BreeSerif-Regular.ufo
<glyph name="exclam" format="1">
  <advance width="277"/>
  <unicode hex="0021"/>
  <outline>
    <contour>
      <point x="84" y="529" type="line"/>
      <point x="105" y="180" type="line"/>
      <point x="176" y="180" type="line"/>
      <point x="196" y="529" type="line"/>
      <point x="196" y="646" type="line" smooth="yes"/>
      <point x="196" y="673"/>
      <point x="183" y="695"/>
      <point x="139" y="695" type="curve" smooth="yes"/>
      <point x="98" y="695"/>
      <point x="84" y="673"/>
      <point x="84" y="648" type="curve" smooth="yes"/>
    </contour>
    <contour>
      <point x="70" y="50" type="curve" smooth="yes"/>
      <point x="70" y="13"/>
      <point x="95" y="-17"/>
      <point x="140" y="-17" type="curve" smooth="yes"/>
      <point x="182" y="-17"/>
      <point x="207" y="15"/>
      <point x="207" y="51" type="curve" smooth="yes"/>
      <point x="207" y="88"/>
      <point x="181" y="116"/>
      <point x="137" y="116" type="curve" smooth="yes"/>
      <point x="98" y="116"/>
      <point x="70" y="86"/>
    </contour>
  </outline>
</glyph>
<glyph name="quotedbl" format="1">
  <advance width="349"/>
  <unicode hex="0022"/>
  <outline>
    <contour>
      <point x="56" y="665" type="line"/>
      <point x="66" y="435" type="line"/>
      <point x="139" y="435" type="line"/>
      <point x="149" y="665" type="line"/>
    </contour>
    <contour>
      <point x="199" y="665" type="line"/>
      <point x="209" y="435" type="line"/>
      <point x="283" y="435" type="line"/>
      <point x="292" y="665" type="line"/>
    </contour>
  </outline>
</glyph>
<glyph name="numbersign" format="1">
  <advance width="534"/>
  <unicode hex="0023"/>
  <outline>
    <contour>
      <point x="289" y="0" type="line"/>
      <point x="362" y="0" type="line"/>
      <point x="375" y="157" type="line"/>
      <point x="482" y="157" type="line"/>
      <point x="482" y="223" type="line"/>
      <point x="381" y="223" type="line"/>
      <point x="395" y="379" type="line"/>
      <point x="501" y="379" type="line"/>
      <point x="501" y="445" type="line"/>
      <point x="400" y="445" type="line"/>
      <point x="415" y="605" type="line"/>
      <point x="342" y="605" type="line"/>
      <point x="327" y="445" type="line"/>
      <point x="217" y="445" type="line"/>
      <point x="232" y="605" type="line"/>
      <point x="159" y="605" type="line"/>
      <point x="144" y="445" type="line"/>
      <point x="37" y="445" type="line"/>
      <point x="37" y="379" type="line"/>
      <point x="139" y="379" type="line"/>
      <point x="125" y="223" type="line"/>
      <point x="18" y="223" type="line"/>
      <point x="18" y="157" type="line"/>
      <point x="119" y="157" type="line"/>
      <point x="106" y="0" type="line"/>
      <point x="179" y="0" type="line"/>
      <point x="192" y="157" type="line"/>
      <point x="302" y="157" type="line"/>
    </contour>
    <contour>
      <point x="212" y="379" type="line"/>
      <point x="322" y="379" type="line"/>
      <point x="308" y="223" type="line"/>
      <point x="198" y="223" type="line"/>
    </contour>
  </outline>
</glyph>
<glyph name="dollar" format="1">
  <advance width="535"/>
  <unicode hex="0024"/>
  <outline>
    <contour>
      <point x="230" y="-91" type="line"/>
      <point x="305" y="-91" type="line"/>
      <point x="305" y="12" type="line"/>
      <point x="411" y="28"/>
      <point x="486" y="93"/>
      <point x="486" y="201" type="curve" smooth="yes"/>
      <point x="486" y="322"/>
      <point x="394" y="361"/>
      <point x="306" y="388" type="curve"/>
      <point x="305" y="388" type="line"/>
      <point x="305" y="564" type="line"/>
      <point x="318" y="563"/>
      <point x="331" y="560"/>
      <point x="342" y="557" type="curve"/>
      <point x="359" y="551"/>
      <point x="362" y="544"/>
      <point x="362" y="526" type="curve" smooth="yes"/>
      <point x="362" y="472" type="line"/>
      <point x="460" y="478" type="line"/>
      <point x="460" y="619" type="line"/>
      <point x="411" y="642"/>
      <point x="359" y="654"/>
      <point x="305" y="657" type="curve"/>
      <point x="305" y="747" type="line"/>
      <point x="230" y="747" type="line"/>
      <point x="230" y="655" type="line"/>
      <point x="124" y="640"/>
      <point x="55" y="573"/>
      <point x="55" y="473" type="curve" smooth="yes"/>
      <point x="55" y="357"/>
      <point x="138" y="318"/>
      <point x="230" y="293" type="curve"/>
      <point x="230" y="106" type="line"/>
      <point x="210" y="106"/>
      <point x="191" y="109"/>
      <point x="177" y="114" type="curve" smooth="yes"/>
      <point x="160" y="120"/>
      <point x="157" y="127"/>
      <point x="157" y="145" type="curve" smooth="yes"/>
      <point x="157" y="203" type="line"/>
      <point x="58" y="196" type="line"/>
      <point x="58" y="47" type="line"/>
      <point x="110" y="23"/>
      <point x="164" y="11"/>
      <point x="230" y="9" type="curve"/>
    </contour>
    <contour>
      <point x="362" y="196" type="curve" smooth="yes"/>
      <point x="362" y="149"/>
      <point x="339" y="124"/>
      <point x="305" y="113" type="curve"/>
      <point x="305" y="269" type="line"/>
      <point x="339" y="255"/>
      <point x="362" y="234"/>
    </contour>
    <contour>
      <point x="178" y="484" type="curve" smooth="yes"/>
      <point x="178" y="524"/>
      <point x="198" y="547"/>
      <point x="230" y="558" type="curve"/>
      <point x="230" y="414" type="line"/>
      <point x="198" y="429"/>
      <point x="178" y="448"/>
    </contour>
  </outline>
</glyph>
<glyph name="percent" format="1">
  <advance width="801"/>
  <unicode hex="0025"/>
  <outline>
    <contour>
      <point x="615" y="351" type="curve" smooth="yes"/>
      <point x="520" y="351"/>
      <point x="456" y="287"/>
      <point x="456" y="168" type="curve" smooth="yes"/>
      <point x="456" y="48"/>
      <point x="510" y="-14"/>
      <point x="610" y="-14" type="curve" smooth="yes"/>
      <point x="710" y="-14"/>
      <point x="769" y="50"/>
      <point x="769" y="172" type="curve" smooth="yes"/>
      <point x="769" y="295"/>
      <point x="707" y="351"/>
    </contour>
    <contour>
      <point x="611" y="55" type="curve" smooth="yes"/>
      <point x="572" y="55"/>
      <point x="543" y="81"/>
      <point x="543" y="165" type="curve" smooth="yes"/>
      <point x="543" y="252"/>
      <point x="570" y="282"/>
      <point x="613" y="282" type="curve" smooth="yes"/>
      <point x="652" y="282"/>
      <point x="681" y="256"/>
      <point x="681" y="169" type="curve" smooth="yes"/>
      <point x="681" y="79"/>
      <point x="649" y="55"/>
    </contour>
    <contour>
      <point x="193" y="657" type="curve" smooth="yes"/>
      <point x="98" y="657"/>
      <point x="34" y="593"/>
      <point x="34" y="474" type="curve" smooth="yes"/>
      <point x="34" y="354"/>
      <point x="88" y="292"/>
      <point x="188" y="292" type="curve" smooth="yes"/>
      <point x="288" y="292"/>
      <point x="347" y="356"/>
      <point x="347" y="478" type="curve" smooth="yes"/>
      <point x="347" y="601"/>
      <point x="285" y="657"/>
    </contour>
    <contour>
      <point x="189" y="361" type="curve" smooth="yes"/>
      <point x="150" y="361"/>
      <point x="121" y="387"/>
      <point x="121" y="471" type="curve" smooth="yes"/>
      <point x="121" y="558"/>
      <point x="148" y="588"/>
      <point x="191" y="588" type="curve" smooth="yes"/>
      <point x="230" y="588"/>
      <point x="259" y="562"/>
      <point x="259" y="475" type="curve" smooth="yes"/>
      <point x="259" y="385"/>
      <point x="227" y="361"/>
    </contour>
    <contour>
      <point x="293" y="-9" type="line"/>
      <point x="587" y="619" type="line"/>
      <point x="506" y="653" type="line"/>
      <point x="214" y="27" type="line"/>
    </contour>
  </outline>
</glyph>
<glyph name="ampersand" format="1">
  <advance width="714"/>
  <unicode hex="0026"/>
  <outline>
    <contour>
      <point x="475" y="220" type="curve"/>
      <point x="377" y="303"/>
      <point x="259" y="421"/>
      <point x="259" y="505" type="curve" smooth="yes"/>
      <point x="259" y="556"/>
      <point x="285" y="582"/>
      <point x="340" y="582" type="curve" smooth="yes"/>
      <point x="359" y="582"/>
      <point x="376" y="579"/>
      <point x="393" y="574" type="curve" smooth="yes"/>
      <point x="411" y="568"/>
      <point x="414" y="558"/>
      <point x="414" y="539" type="curve" smooth="yes"/>
      <point x="414" y="478" type="line"/>
      <point x="516" y="485" type="line"/>
      <point x="516" y="636" type="line"/>
      <point x="456" y="664"/>
      <point x="402" y="677"/>
      <point x="334" y="677" type="curve" smooth="yes"/>
      <point x="210" y="677"/>
      <point x="141" y="605"/>
      <point x="141" y="507" type="curve" smooth="yes"/>
      <point x="141" y="471"/>
      <point x="150" y="433"/>
      <point x="172" y="397" type="curve"/>
      <point x="103" y="354"/>
      <point x="50" y="287"/>
      <point x="50" y="189" type="curve" smooth="yes"/>
      <point x="50" y="88"/>
      <point x="114" y="-14"/>
      <point x="286" y="-14" type="curve" smooth="yes"/>
      <point x="372" y="-14"/>
      <point x="445" y="13"/>
      <point x="492" y="60" type="curve"/>
      <point x="539" y="22"/>
      <point x="584" y="-11"/>
      <point x="618" y="-34" type="curve"/>
      <point x="684" y="53" type="line"/>
      <point x="659" y="71"/>
      <point x="607" y="108"/>
      <point x="558" y="149" type="curve"/>
      <point x="587" y="204"/>
      <point x="600" y="265"/>
      <point x="600" y="325" type="curve"/>
      <point x="655" y="327" type="line"/>
      <point x="655" y="408" type="line"/>
      <point x="444" y="408" type="line"/>
      <point x="444" y="330" type="line"/>
      <point x="476" y="328" type="line" smooth="yes"/>
      <point x="488" y="327"/>
      <point x="494" y="324"/>
      <point x="494" y="312" type="curve" smooth="yes"/>
      <point x="494" y="282"/>
      <point x="486" y="248"/>
    </contour>
    <contour>
      <point x="408" y="130" type="curve"/>
      <point x="381" y="100"/>
      <point x="341" y="83"/>
      <point x="289" y="83" type="curve" smooth="yes"/>
      <point x="207" y="83"/>
      <point x="166" y="131"/>
      <point x="166" y="197" type="curve" smooth="yes"/>
      <point x="166" y="248"/>
      <point x="190" y="288"/>
      <point x="227" y="314" type="curve"/>
      <point x="273" y="252"/>
      <point x="342" y="186"/>
    </contour>
  </outline>
</glyph>
<glyph name="quotesingle" format="1">
  <advance width="205"/>
  <unicode hex="0027"/>
  <outline>
    <contour>
      <point x="56" y="665" type="line"/>
      <point x="66" y="435" type="line"/>
      <point x="139" y="435" type="line"/>
      <point x="149" y="665" type="line"/>
    </contour>
  </outline>
</glyph>
<glyph name="parenleft" format="1">
  <advance width="331"/>
  <unicode hex="0028"/>
  <outline>
    <contour>
      <point x="69" y="271" type="curve" smooth="yes"/>
      <point x="69" y="122"/>
      <point x="115" y="-30"/>
      <point x="201" y="-176" type="curve"/>
      <point x="295" y="-131" type="line"/>
      <point x="227" y="7"/>
      <point x="187" y="134"/>
      <point x="187" y="276" type="curve" smooth="yes"/>
      <point x="187" y="417"/>
      <point x="226" y="547"/>
      <point x="296" y="685" type="curve"/>
      <point x="201" y="729" type="line"/>
      <point x="117" y="582"/>
      <point x="69" y="420"/>
    </contour>
  </outline>
</glyph>
<glyph name="parenright" format="1">
  <advance width="331"/>
  <unicode hex="0029"/>
  <outline>
    <contour>
      <point x="262" y="284" type="curve" smooth="yes"/>
      <point x="262" y="433"/>
      <point x="216" y="585"/>
      <point x="130" y="731" type="curve"/>
      <point x="36" y="686" type="line"/>
      <point x="104" y="548"/>
      <point x="144" y="421"/>
      <point x="144" y="279" type="curve" smooth="yes"/>
      <point x="144" y="138"/>
      <point x="105" y="8"/>
      <point x="35" y="-130" type="curve"/>
      <point x="130" y="-174" type="line"/>
      <point x="214" y="-27"/>
      <point x="262" y="135"/>
    </contour>
  </outline>
</glyph>
<glyph name="asterisk" format="1">
  <advance width="452"/>
  <unicode hex="002A"/>
  <outline>
    <contour>
      <point x="179" y="557" type="line"/>
      <point x="110" y="508" type="line" smooth="yes"/>
      <point x="79" y="487"/>
      <point x="75" y="448"/>
      <point x="116" y="429" type="curve" smooth="yes"/>
      <point x="156" y="410" type="line"/>
      <point x="224" y="533" type="line"/>
      <point x="272" y="444" type="line" smooth="yes"/>
      <point x="290" y="410"/>
      <point x="326" y="401"/>
      <point x="352" y="438" type="curve" smooth="yes"/>
      <point x="377" y="474" type="line"/>
      <point x="269" y="554" type="line"/>
      <point x="362" y="562" type="line" smooth="yes"/>
      <point x="400" y="565"/>
      <point x="421" y="598"/>
      <point x="395" y="635" type="curve" smooth="yes"/>
      <point x="370" y="671" type="line"/>
      <point x="253" y="597" type="line"/>
      <point x="271" y="696" type="line" smooth="yes"/>
      <point x="278" y="734"/>
      <point x="257" y="764"/>
      <point x="213" y="752" type="curve" smooth="yes"/>
      <point x="171" y="741" type="line"/>
      <point x="203" y="599" type="line"/>
      <point x="126" y="653" type="line" smooth="yes"/>
      <point x="95" y="675"/>
      <point x="59" y="667"/>
      <point x="52" y="623" type="curve" smooth="yes"/>
      <point x="45" y="579" type="line"/>
    </contour>
  </outline>
</glyph>
<glyph name="plus" format="1">
  <advance width="535"/>
  <unicode hex="002B"/>
  <outline>
    <contour>
      <point x="216" y="364" type="line"/>
      <point x="62" y="364" type="line"/>
      <point x="62" y="266" type="line"/>
      <point x="216" y="266" type="line"/>
      <point x="216" y="106" type="line"/>
      <point x="318" y="106" type="line"/>
      <point x="318" y="266" type="line"/>
      <point x="472" y="266" type="line"/>
      <point x="472" y="364" type="line"/>
      <point x="318" y="364" type="line"/>
      <point x="318" y="525" type="line"/>
      <point x="216" y="525" type="line"/>
    </contour>
  </outline>
</glyph>
<glyph name="comma" format="1">
  <advance width="241"/>
  <unicode hex="002C"/>
  <outline>
    <contour>
      <point x="202" y="79" type="line"/>
      <point x="168" y="100"/>
      <point x="144" y="117"/>
      <point x="116" y="117" type="curve" smooth="yes"/>
      <point x="88" y="117"/>
      <point x="71" y="97"/>
      <point x="67" y="67" type="curve" smooth="yes"/>
      <point x="36" y="-136" type="line"/>
      <point x="99" y="-155" type="line"/>
    </contour>
  </outline>
</glyph>
<glyph name="hyphen" format="1">
  <advance width="322"/>
  <unicode hex="002D"/>
  <outline>
    <contour>
      <point x="30" y="242" type="line"/>
      <point x="292" y="242" type="line"/>
      <point x="292" y="334" type="line"/>
      <point x="30" y="334" type="line"/>
    </contour>
  </outline>
</glyph>
<glyph name="period" format="1">
  <advance width="226"/>
  <unicode hex="002E"/>
  <outline>
    <contour>
      <point x="40" y="56" type="curve" smooth="yes"/>
      <point x="40" y="14"/>
      <point x="65" y="-15"/>
      <point x="115" y="-15" type="curve" smooth="yes"/>
      <point x="160" y="-15"/>
      <point x="186" y="17"/>
      <point x="186" y="57" type="curve" smooth="yes"/>
      <point x="186" y="99"/>
      <point x="159" y="128"/>
      <point x="111" y="128" type="curve" smooth="yes"/>
      <point x="67" y="128"/>
      <point x="40" y="97"/>
    </contour>
  </outline>
</glyph>
<glyph name="slash" format="1">
  <advance width="428"/>
  <unicode hex="002F"/>
  <outline>
    <contour>
      <point x="110" y="-110" type="line"/>
      <point x="418" y="718" type="line"/>
      <point x="314" y="755" type="line"/>
      <point x="8" y="-72" type="line"/>
    </contour>
  </outline>
</glyph>
<glyph name="zero" format="1">
  <advance width="535"/>
  <unicode hex="0030"/>
  <outline>
    <contour>
      <point x="272" y="657" type="curve" smooth="yes"/>
      <point x="129" y="657"/>
      <point x="35" y="554"/>
      <point x="35" y="324" type="curve" smooth="yes"/>
      <point x="35" y="91"/>
      <point x="112" y="-10"/>
      <point x="265" y="-10" type="curve" smooth="yes"/>
      <point x="417" y="-10"/>
      <point x="499" y="91"/>
      <point x="499" y="328" type="curve" smooth="yes"/>
      <point x="499" y="564"/>
      <point x="412" y="657"/>
    </contour>
    <contour>
      <point x="267" y="86" type="curve" smooth="yes"/>
      <point x="199" y="86"/>
      <point x="156" y="140"/>
      <point x="156" y="313" type="curve" smooth="yes"/>
      <point x="156" y="502"/>
      <point x="199" y="559"/>
      <point x="269" y="559" type="curve" smooth="yes"/>
      <point x="335" y="559"/>
      <point x="380" y="508"/>
      <point x="380" y="326" type="curve" smooth="yes"/>
      <point x="380" y="136"/>
      <point x="333" y="86"/>
    </contour>
  </outline>
</glyph>
<glyph name="one" format="1">
  <advance width="454"/>
  <unicode hex="0031"/>
  <outline>
    <contour>
      <point x="205" y="121" type="line" smooth="yes"/>
      <point x="205" y="96"/>
      <point x="195" y="89"/>
      <point x="176" y="88" type="curve" smooth="yes"/>
      <point x="80" y="82" type="line"/>
      <point x="80" y="0" type="line"/>
      <point x="428" y="0" type="line"/>
      <point x="428" y="85" type="line"/>
      <point x="324" y="90" type="line"/>
      <point x="324" y="644" type="line"/>
      <point x="226" y="644" type="line"/>
      <point x="44" y="531" type="line"/>
      <point x="88" y="454" type="line"/>
      <point x="205" y="514" type="line"/>
    </contour>
  </outline>
</glyph>
<glyph name="two" format="1">
  <advance width="513"/>
  <unicode hex="0032"/>
  <outline>
    <contour>
      <point x="59" y="0" type="line"/>
      <point x="458" y="0" type="line"/>
      <point x="458" y="99" type="line"/>
      <point x="208" y="99" type="line"/>
      <point x="369" y="289" type="line" smooth="yes"/>
      <point x="422" y="353"/>
      <point x="454" y="413"/>
      <point x="454" y="479" type="curve" smooth="yes"/>
      <point x="454" y="585"/>
      <point x="387" y="657"/>
      <point x="264" y="657" type="curve" smooth="yes"/>
      <point x="188" y="657"/>
      <point x="114" y="636"/>
      <point x="62" y="610" type="curve"/>
      <point x="62" y="450" type="line"/>
      <point x="164" y="443" type="line"/>
      <point x="164" y="514" type="line" smooth="yes"/>
      <point x="164" y="533"/>
      <point x="166" y="543"/>
      <point x="184" y="549" type="curve" smooth="yes"/>
      <point x="199" y="554"/>
      <point x="216" y="557"/>
      <point x="244" y="557" type="curve" smooth="yes"/>
      <point x="291" y="557"/>
      <point x="328" y="529"/>
      <point x="328" y="471" type="curve" smooth="yes"/>
      <point x="328" y="414"/>
      <point x="305" y="388"/>
      <point x="258" y="328" type="curve" smooth="yes"/>
      <point x="59" y="77" type="line"/>
    </contour>
  </outline>
</glyph>
<glyph name="three" format="1">
  <advance width="522"/>
  <unicode hex="0033"/>
  <outline>
    <contour>
      <point x="167" y="373" type="line"/>
      <point x="158" y="282" type="line"/>
      <point x="196" y="282" type="line" smooth="yes"/>
      <point x="304" y="282"/>
      <point x="341" y="249"/>
      <point x="341" y="185" type="curve" smooth="yes"/>
      <point x="341" y="114"/>
      <point x="296" y="88"/>
      <point x="232" y="88" type="curve" smooth="yes"/>
      <point x="182" y="88"/>
      <point x="118" y="108"/>
      <point x="75" y="132" type="curve"/>
      <point x="40" y="37" type="line"/>
      <point x="79" y="12"/>
      <point x="158" y="-13"/>
      <point x="236" y="-13" type="curve" smooth="yes"/>
      <point x="392" y="-13"/>
      <point x="462" y="75"/>
      <point x="462" y="192" type="curve" smooth="yes"/>
      <point x="462" y="245"/>
      <point x="443" y="308"/>
      <point x="361" y="334" type="curve"/>
      <point x="413" y="367"/>
      <point x="452" y="425"/>
      <point x="452" y="497" type="curve" smooth="yes"/>
      <point x="452" y="588"/>
      <point x="390" y="657"/>
      <point x="263" y="657" type="curve" smooth="yes"/>
      <point x="183" y="657"/>
      <point x="111" y="633"/>
      <point x="59" y="607" type="curve"/>
      <point x="59" y="447" type="line"/>
      <point x="161" y="440" type="line"/>
      <point x="161" y="512" type="line" smooth="yes"/>
      <point x="161" y="531"/>
      <point x="163" y="541"/>
      <point x="181" y="547" type="curve" smooth="yes"/>
      <point x="196" y="552"/>
      <point x="215" y="557"/>
      <point x="243" y="557" type="curve" smooth="yes"/>
      <point x="301" y="557"/>
      <point x="330" y="529"/>
      <point x="330" y="480" type="curve" smooth="yes"/>
      <point x="330" y="429"/>
      <point x="305" y="395"/>
      <point x="270" y="373" type="curve"/>
    </contour>
  </outline>
</glyph>
<glyph name="four" format="1">
  <advance width="536"/>
  <unicode hex="0034"/>
  <outline>
    <contour>
      <point x="347" y="462" type="line"/>
      <point x="305" y="329" type="line"/>
      <point x="305" y="275" type="line"/>
      <point x="162" y="275" type="line"/>
      <point x="323" y="612" type="line"/>
      <point x="228" y="659" type="line"/>
      <point x="40" y="264" type="line"/>
      <point x="40" y="181" type="line"/>
      <point x="296" y="181" type="line"/>
      <point x="296" y="115" type="line" smooth="yes"/>
      <point x="296" y="94"/>
      <point x="284" y="88"/>
      <point x="267" y="87" type="curve" smooth="yes"/>
      <point x="205" y="82" type="line"/>
      <point x="205" y="0" type="line"/>
      <point x="499" y="0" type="line"/>
      <point x="499" y="85" type="line"/>
      <point x="416" y="90" type="line"/>
      <point x="416" y="180" type="line"/>
      <point x="506" y="180" type="line"/>
      <point x="506" y="275" type="line"/>
      <point x="417" y="275" type="line"/>
      <point x="417" y="462" type="line"/>
    </contour>
  </outline>
</glyph>
<glyph name="five" format="1">
  <advance width="507"/>
  <unicode hex="0035"/>
  <outline>
    <contour>
      <point x="442" y="549" type="line"/>
      <point x="442" y="708" type="line"/>
      <point x="347" y="715" type="line"/>
      <point x="347" y="672" type="line" smooth="yes"/>
      <point x="347" y="656"/>
      <point x="342" y="644"/>
      <point x="324" y="644" type="curve" smooth="yes"/>
      <point x="125" y="644" type="line"/>
      <point x="82" y="308" type="line"/>
      <point x="181" y="308"/>
      <point x="321" y="295"/>
      <point x="321" y="186" type="curve" smooth="yes"/>
      <point x="321" y="130"/>
      <point x="295" y="88"/>
      <point x="219" y="88" type="curve" smooth="yes"/>
      <point x="160" y="88"/>
      <point x="107" y="110"/>
      <point x="69" y="131" type="curve"/>
      <point x="29" y="39" type="line"/>
      <point x="67" y="15"/>
      <point x="144" y="-11"/>
      <point x="224" y="-11" type="curve" smooth="yes"/>
      <point x="389" y="-11"/>
      <point x="446" y="94"/>
      <point x="446" y="188" type="curve" smooth="yes"/>
      <point x="446" y="329"/>
      <point x="329" y="386"/>
      <point x="193" y="396" type="curve"/>
      <point x="213" y="549" type="line"/>
    </contour>
  </outline>
</glyph>
<glyph name="six" format="1">
  <advance width="534"/>
  <unicode hex="0036"/>
  <outline>
    <contour>
      <point x="395" y="671" type="line"/>
      <point x="125" y="641"/>
      <point x="54" y="460"/>
      <point x="54" y="276" type="curve" smooth="yes"/>
      <point x="54" y="113"/>
      <point x="113" y="-11"/>
      <point x="271" y="-11" type="curve" smooth="yes"/>
      <point x="417" y="-11"/>
      <point x="489" y="88"/>
      <point x="489" y="216" type="curve" smooth="yes"/>
      <point x="489" y="335"/>
      <point x="426" y="410"/>
      <point x="315" y="410" type="curve" smooth="yes"/>
      <point x="271" y="410"/>
      <point x="216" y="393"/>
      <point x="179" y="369" type="curve"/>
      <point x="194" y="480"/>
      <point x="260" y="561"/>
      <point x="418" y="581" type="curve"/>
    </contour>
    <contour>
      <point x="372" y="211" type="curve" smooth="yes"/>
      <point x="372" y="128"/>
      <point x="331" y="81"/>
      <point x="275" y="81" type="curve" smooth="yes"/>
      <point x="195" y="81"/>
      <point x="168" y="170"/>
      <point x="172" y="286" type="curve"/>
      <point x="195" y="305"/>
      <point x="247" y="325"/>
      <point x="283" y="325" type="curve" smooth="yes"/>
      <point x="340" y="325"/>
      <point x="372" y="289"/>
    </contour>
  </outline>
</glyph>
<glyph name="seven" format="1">
  <advance width="475"/>
  <unicode hex="0037"/>
  <outline>
    <contour>
      <point x="23" y="644" type="line"/>
      <point x="23" y="481" type="line"/>
      <point x="125" y="474" type="line"/>
      <point x="125" y="514" type="line" smooth="yes"/>
      <point x="125" y="534"/>
      <point x="130" y="545"/>
      <point x="147" y="545" type="curve" smooth="yes"/>
      <point x="336" y="545" type="line"/>
      <point x="101" y="0" type="line"/>
      <point x="226" y="0" type="line"/>
      <point x="455" y="561" type="line"/>
      <point x="455" y="644" type="line"/>
    </contour>
  </outline>
</glyph>
<glyph name="eight" format="1">
  <advance width="535"/>
  <unicode hex="0038"/>
  <outline>
    <contour>
      <point x="47" y="159" type="curve" smooth="yes"/>
      <point x="47" y="81"/>
      <point x="96" y="-11"/>
      <point x="263" y="-11" type="curve" smooth="yes"/>
      <point x="422" y="-11"/>
      <point x="490" y="76"/>
      <point x="490" y="173" type="curve" smooth="yes"/>
      <point x="490" y="246"/>
      <point x="442" y="304"/>
      <point x="368" y="347" type="curve"/>
      <point x="418" y="389"/>
      <point x="463" y="440"/>
      <point x="463" y="507" type="curve" smooth="yes"/>
      <point x="463" y="582"/>
      <point x="410" y="657"/>
      <point x="271" y="657" type="curve" smooth="yes"/>
      <point x="147" y="657"/>
      <point x="68" y="584"/>
      <point x="68" y="490" type="curve" smooth="yes"/>
      <point x="68" y="415"/>
      <point x="122" y="370"/>
      <point x="169" y="341" type="curve"/>
      <point x="119" y="312"/>
      <point x="47" y="252"/>
    </contour>
    <contour>
      <point x="362" y="170" type="curve" smooth="yes"/>
      <point x="362" y="114"/>
      <point x="325" y="80"/>
      <point x="263" y="80" type="curve" smooth="yes"/>
      <point x="196" y="80"/>
      <point x="164" y="122"/>
      <point x="164" y="167" type="curve" smooth="yes"/>
      <point x="164" y="227"/>
      <point x="204" y="262"/>
      <point x="251" y="293" type="curve"/>
      <point x="313" y="261"/>
      <point x="362" y="229"/>
    </contour>
    <contour>
      <point x="267" y="572" type="curve" smooth="yes"/>
      <point x="317" y="572"/>
      <point x="352" y="545"/>
      <point x="352" y="501" type="curve" smooth="yes"/>
      <point x="352" y="456"/>
      <point x="314" y="413"/>
      <point x="279" y="389" type="curve"/>
      <point x="226" y="416"/>
      <point x="184" y="450"/>
      <point x="184" y="497" type="curve" smooth="yes"/>
      <point x="184" y="539"/>
      <point x="220" y="572"/>
    </contour>
  </outline>
</glyph>
<glyph name="nine" format="1">
  <advance width="535"/>
  <unicode hex="0039"/>
  <outline>
    <contour>
      <point x="139" y="-12" type="line"/>
      <point x="410" y="12"/>
      <point x="484" y="185"/>
      <point x="484" y="370" type="curve" smooth="yes"/>
      <point x="484" y="532"/>
      <point x="428" y="657"/>
      <point x="270" y="657" type="curve" smooth="yes"/>
      <point x="124" y="657"/>
      <point x="50" y="557"/>
      <point x="50" y="430" type="curve" smooth="yes"/>
      <point x="50" y="311"/>
      <point x="112" y="236"/>
      <point x="223" y="236" type="curve" smooth="yes"/>
      <point x="274" y="236"/>
      <point x="323" y="249"/>
      <point x="361" y="274" type="curve"/>
      <point x="346" y="163"/>
      <point x="270" y="99"/>
      <point x="115" y="81" type="curve"/>
    </contour>
    <contour>
      <point x="167" y="434" type="curve" smooth="yes"/>
      <point x="167" y="518"/>
      <point x="207" y="564"/>
      <point x="266" y="564" type="curve" smooth="yes"/>
      <point x="344" y="564"/>
      <point x="370" y="475"/>
      <point x="367" y="360" type="curve"/>
      <point x="344" y="341"/>
      <point x="292" y="323"/>
      <point x="255" y="323" type="curve" smooth="yes"/>
      <point x="198" y="323"/>
      <point x="167" y="365"/>
    </contour>
  </outline>
</glyph>
<glyph name="semicolon" format="1">
  <advance width="241"/>
  <unicode hex="003B"/>
  <outline>
    <contour>
      <point x="68" y="424" type="curve" smooth="yes"/>
      <point x="68" y="382"/>
      <point x="93" y="353"/>
      <point x="143" y="353" type="curve" smooth="yes"/>
      <point x="188" y="353"/>
      <point x="214" y="385"/>
      <point x="214" y="425" type="curve" smooth="yes"/>
      <point x="214" y="467"/>
      <point x="187" y="496"/>
      <point x="139" y="496" type="curve" smooth="yes"/>
      <point x="95" y="496"/>
      <point x="68" y="465"/>
    </contour>
    <contour>
      <point x="202" y="79" type="line"/>
      <point x="168" y="100"/>
      <point x="144" y="117"/>
      <point x="116" y="117" type="curve" smooth="yes"/>
      <point x="88" y="117"/>
      <point x="71" y="97"/>
      <point x="67" y="67" type="curve" smooth="yes"/>
      <point x="36" y="-136" type="line"/>
      <point x="99" y="-155" type="line"/>
    </contour>
  </outline>
</glyph>
<glyph name="less" format="1">
  <advance width="535"/>
  <unicode hex="003C"/>
  <outline>
    <contour>
      <point x="434" y="537" type="line"/>
      <point x="68" y="358" type="line"/>
      <point x="68" y="280" type="line"/>
      <point x="434" y="100" type="line"/>
      <point x="476" y="190" type="line"/>
      <point x="201" y="322" type="line"/>
      <point x="474" y="448" type="line"/>
    </contour>
  </outline>
</glyph>
<glyph name="equal" format="1">
  <advance width="535"/>
  <unicode hex="003D"/>
  <outline>
    <contour>
      <point x="470" y="450" type="line"/>
      <point x="65" y="450" type="line"/>
      <point x="65" y="354" type="line"/>
      <point x="470" y="354" type="line"/>
    </contour>
    <contour>
      <point x="470" y="259" type="line"/>
      <point x="65" y="259" type="line"/>
      <point x="65" y="162" type="line"/>
      <point x="470" y="162" type="line"/>
    </contour>
  </outline>
</glyph>
<glyph name="greater" format="1">
  <advance width="535"/>
  <unicode hex="003E"/>
  <outline>
    <contour>
      <point x="70" y="448" type="line"/>
      <point x="343" y="322" type="line"/>
      <point x="68" y="190" type="line"/>
      <point x="110" y="100" type="line"/>
      <point x="476" y="280" type="line"/>
      <point x="476" y="358" type="line"/>
      <point x="110" y="537" type="line"/>
    </contour>
  </outline>
</glyph>
<glyph name="question" format="1">
  <advance width="433"/>
  <unicode hex="003F"/>
  <outline>
    <contour>
      <point x="281" y="538" type="curve" smooth="yes"/>
      <point x="281" y="482"/>
      <point x="247" y="465"/>
      <point x="211" y="438" type="curve" smooth="yes"/>
      <point x="153" y="394"/>
      <point x="127" y="361"/>
      <point x="131" y="285" type="curve" smooth="yes"/>
      <point x="136" y="180" type="line"/>
      <point x="232" y="180" type="line"/>
      <point x="237" y="290" type="line" smooth="yes"/>
      <point x="239" y="330"/>
      <point x="255" y="342"/>
      <point x="290" y="367" type="curve" smooth="yes"/>
      <point x="349" y="411"/>
      <point x="397" y="452"/>
      <point x="397" y="544" type="curve" smooth="yes"/>
      <point x="397" y="632"/>
      <point x="345" y="695"/>
      <point x="224" y="695" type="curve" smooth="yes"/>
      <point x="153" y="695"/>
      <point x="92" y="674"/>
      <point x="40" y="649" type="curve"/>
      <point x="40" y="512" type="line"/>
      <point x="142" y="505" type="line"/>
      <point x="142" y="558" type="line" smooth="yes"/>
      <point x="142" y="577"/>
      <point x="144" y="588"/>
      <point x="162" y="593" type="curve" smooth="yes"/>
      <point x="182" y="599"/>
      <point x="197" y="601"/>
      <point x="212" y="601" type="curve" smooth="yes"/>
      <point x="253" y="601"/>
      <point x="281" y="581"/>
    </contour>
    <contour>
      <point x="116" y="50" type="curve" smooth="yes"/>
      <point x="116" y="13"/>
      <point x="141" y="-17"/>
      <point x="186" y="-17" type="curve" smooth="yes"/>
      <point x="228" y="-17"/>
      <point x="253" y="15"/>
      <point x="253" y="51" type="curve" smooth="yes"/>
      <point x="253" y="88"/>
      <point x="227" y="116"/>
      <point x="183" y="116" type="curve" smooth="yes"/>
      <point x="144" y="116"/>
      <point x="116" y="86"/>
    </contour>
  </outline>
</glyph>
<glyph name="at" format="1">
  <advance width="953"/>
  <unicode hex="0040"/>
  <outline>
    <contour>
      <point x="798" y="284" type="curve" smooth="yes"/>
      <point x="798" y="126"/>
      <point x="735" y="75"/>
      <point x="658" y="70" type="curve"/>
      <point x="654" y="123" type="line"/>
      <point x="654" y="416" type="line"/>
      <point x="595" y="438"/>
      <point x="533" y="445"/>
      <point x="504" y="445" type="curve" smooth="yes"/>
      <point x="364" y="445"/>
      <point x="287" y="354"/>
      <point x="287" y="201" type="curve" smooth="yes"/>
      <point x="287" y="93"/>
      <point x="324" y="-3"/>
      <point x="450" y="-3" type="curve" smooth="yes"/>
      <point x="515" y="-3"/>
      <point x="548" y="25"/>
      <point x="568" y="55" type="curve"/>
      <point x="571" y="54" type="line"/>
      <point x="579" y="0" type="line"/>
      <point x="636" y="0" type="line" smooth="yes"/>
      <point x="780" y="1"/>
      <point x="885" y="94"/>
      <point x="885" y="287" type="curve" smooth="yes"/>
      <point x="885" y="521"/>
      <point x="729" y="648"/>
      <point x="506" y="648" type="curve" smooth="yes"/>
      <point x="258" y="648"/>
      <point x="67" y="496"/>
      <point x="67" y="212" type="curve" smooth="yes"/>
      <point x="67" y="2"/>
      <point x="181" y="-193"/>
      <point x="458" y="-193" type="curve" smooth="yes"/>
      <point x="531" y="-193"/>
      <point x="593" y="-181"/>
      <point x="644" y="-159" type="curve"/>
      <point x="619" y="-86" type="line"/>
      <point x="568" y="-109"/>
      <point x="515" y="-117"/>
      <point x="461" y="-117" type="curve" smooth="yes"/>
      <point x="266" y="-117"/>
      <point x="159" y="22"/>
      <point x="159" y="216" type="curve" smooth="yes"/>
      <point x="159" y="416"/>
      <point x="274" y="570"/>
      <point x="500" y="570" type="curve" smooth="yes"/>
      <point x="705" y="570"/>
      <point x="798" y="452"/>
    </contour>
    <contour>
      <point x="555" y="361" type="curve"/>
      <point x="555" y="167" type="line" smooth="yes"/>
      <point x="555" y="121"/>
      <point x="538" y="71"/>
      <point x="473" y="71" type="curve" smooth="yes"/>
      <point x="402" y="71"/>
      <point x="385" y="138"/>
      <point x="385" y="204" type="curve" smooth="yes"/>
      <point x="385" y="287"/>
      <point x="403" y="371"/>
      <point x="498" y="372" type="curve" smooth="yes"/>
      <point x="521" y="372"/>
      <point x="544" y="366"/>
    </contour>
  </outline>
</glyph>
<glyph name="B" format="1">
  <advance width="602"/>
  <unicode hex="0042"/>
  <outline>
    <contour>
      <point x="39" y="665" type="line"/>
      <point x="39" y="580" type="line"/>
      <point x="96" y="577" type="line"/>
      <point x="96" y="112" type="line" smooth="yes"/>
      <point x="96" y="92"/>
      <point x="84" y="86"/>
      <point x="67" y="84" type="curve" smooth="yes"/>
      <point x="34" y="81" type="line"/>
      <point x="34" y="0" type="line"/>
      <point x="315" y="0" type="line" smooth="yes"/>
      <point x="481" y="0"/>
      <point x="571" y="69"/>
      <point x="571" y="199" type="curve" smooth="yes"/>
      <point x="571" y="287"/>
      <point x="520" y="339"/>
      <point x="445" y="358" type="curve"/>
      <point x="499" y="386"/>
      <point x="537" y="432"/>
      <point x="537" y="498" type="curve" smooth="yes"/>
      <point x="537" y="631"/>
      <point x="434" y="665"/>
      <point x="321" y="665" type="curve" smooth="yes"/>
    </contour>
    <contour>
      <point x="218" y="303" type="line"/>
      <point x="317" y="303" type="line" smooth="yes"/>
      <point x="396" y="303"/>
      <point x="442" y="267"/>
      <point x="442" y="200" type="curve" smooth="yes"/>
      <point x="442" y="139"/>
      <point x="410" y="94"/>
      <point x="312" y="94" type="curve" smooth="yes"/>
      <point x="218" y="94" type="line"/>
    </contour>
    <contour>
      <point x="218" y="573" type="line"/>
      <point x="299" y="573" type="line" smooth="yes"/>
      <point x="364" y="573"/>
      <point x="413" y="557"/>
      <point x="413" y="485" type="curve" smooth="yes"/>
      <point x="413" y="432"/>
      <point x="378" y="392"/>
      <point x="292" y="392" type="curve" smooth="yes"/>
      <point x="218" y="392" type="line"/>
    </contour>
  </outline>
</glyph>
<glyph name="D" format="1">
  <advance width="665"/>
  <unicode hex="0044"/>
  <outline>
    <contour>
      <point x="34" y="0" type="line"/>
      <point x="318" y="0" type="line" smooth="yes"/>
      <point x="479" y="0"/>
      <point x="625" y="94"/>
      <point x="625" y="356" type="curve" smooth="yes"/>
      <point x="625" y="564"/>
      <point x="504" y="665"/>
      <point x="313" y="665" type="curve" smooth="yes"/>
      <point x="39" y="665" type="line"/>
      <point x="39" y="580" type="line"/>
      <point x="96" y="577" type="line"/>
      <point x="96" y="112" type="line" smooth="yes"/>
      <point x="96" y="92"/>
      <point x="84" y="86"/>
      <point x="67" y="84" type="curve" smooth="yes"/>
      <point x="34" y="81" type="line"/>
    </contour>
    <contour>
      <point x="218" y="568" type="line"/>
      <point x="307" y="568" type="line" smooth="yes"/>
      <point x="415" y="568"/>
      <point x="502" y="518"/>
      <point x="502" y="338" type="curve" smooth="yes"/>
      <point x="502" y="178"/>
      <point x="432" y="96"/>
      <point x="320" y="96" type="curve" smooth="yes"/>
      <point x="218" y="96" type="line"/>
    </contour>
  </outline>
</glyph>
<glyph name="F" format="1">
  <advance width="543"/>
  <unicode hex="0046"/>
  <outline>
    <contour>
      <point x="34" y="0" type="line"/>
      <point x="307" y="0" type="line"/>
      <point x="307" y="85" type="line"/>
      <point x="218" y="88" type="line"/>
      <point x="218" y="284" type="line"/>
      <point x="464" y="284" type="line"/>
      <point x="464" y="386" type="line"/>
      <point x="218" y="386" type="line"/>
      <point x="218" y="563" type="line"/>
      <point x="391" y="563" type="line" smooth="yes"/>
      <point x="418" y="563"/>
      <point x="420" y="551"/>
      <point x="420" y="532" type="curve" smooth="yes"/>
      <point x="420" y="492" type="line"/>
      <point x="522" y="499" type="line"/>
      <point x="522" y="665" type="line"/>
      <point x="39" y="665" type="line"/>
      <point x="39" y="580" type="line"/>
      <point x="96" y="577" type="line"/>
      <point x="96" y="112" type="line" smooth="yes"/>
      <point x="96" y="92"/>
      <point x="84" y="86"/>
      <point x="67" y="84" type="curve" smooth="yes"/>
      <point x="34" y="81" type="line"/>
    </contour>
  </outline>
</glyph>
<glyph name="G" format="1">
  <advance width="641"/>
  <unicode hex="0047"/>
  <outline>
    <contour>
      <point x="564" y="233" type="line" smooth="yes"/>
      <point x="564" y="257"/>
      <point x="572" y="264"/>
      <point x="593" y="266" type="curve" smooth="yes"/>
      <point x="616" y="268" type="line"/>
      <point x="616" y="348" type="line"/>
      <point x="367" y="348" type="line"/>
      <point x="367" y="263" type="line"/>
      <point x="444" y="260" type="line"/>
      <point x="445" y="260" type="line"/>
      <point x="445" y="111" type="line"/>
      <point x="425" y="98"/>
      <point x="378" y="87"/>
      <point x="339" y="87" type="curve" smooth="yes"/>
      <point x="217" y="87"/>
      <point x="165" y="182"/>
      <point x="165" y="339" type="curve" smooth="yes"/>
      <point x="165" y="488"/>
      <point x="224" y="578"/>
      <point x="358" y="578" type="curve" smooth="yes"/>
      <point x="387" y="578"/>
      <point x="413" y="576"/>
      <point x="432" y="570" type="curve" smooth="yes"/>
      <point x="450" y="564"/>
      <point x="453" y="556"/>
      <point x="453" y="537" type="curve" smooth="yes"/>
      <point x="453" y="459" type="line"/>
      <point x="555" y="466" type="line"/>
      <point x="555" y="636" type="line"/>
      <point x="495" y="664"/>
      <point x="426" y="677"/>
      <point x="359" y="677" type="curve" smooth="yes"/>
      <point x="215" y="677"/>
      <point x="40" y="590"/>
      <point x="40" y="331" type="curve" smooth="yes"/>
      <point x="40" y="99"/>
      <point x="153" y="-12"/>
      <point x="334" y="-12" type="curve" smooth="yes"/>
      <point x="427" y="-12"/>
      <point x="509" y="14"/>
      <point x="564" y="52" type="curve"/>
    </contour>
  </outline>
</glyph>
<glyph name="H" format="1">
  <advance width="712"/>
  <unicode hex="0048"/>
  <outline>
    <contour>
      <point x="499" y="117" type="line" smooth="yes"/>
      <point x="499" y="92"/>
      <point x="489" y="86"/>
      <point x="470" y="84" type="curve" smooth="yes"/>
      <point x="437" y="81" type="line"/>
      <point x="437" y="0" type="line"/>
      <point x="679" y="0" type="line"/>
      <point x="679" y="85" type="line"/>
      <point x="622" y="88" type="line"/>
      <point x="622" y="549" type="line" smooth="yes"/>
      <point x="622" y="573"/>
      <point x="634" y="579"/>
      <point x="651" y="581" type="curve" smooth="yes"/>
      <point x="684" y="584" type="line"/>
      <point x="684" y="665" type="line"/>
      <point x="442" y="665" type="line"/>
      <point x="442" y="580" type="line"/>
      <point x="499" y="577" type="line"/>
      <point x="499" y="393" type="line"/>
      <point x="216" y="393" type="line"/>
      <point x="216" y="548" type="line" smooth="yes"/>
      <point x="216" y="573"/>
      <point x="227" y="579"/>
      <point x="246" y="581" type="curve" smooth="yes"/>
      <point x="279" y="584" type="line"/>
      <point x="279" y="665" type="line"/>
      <point x="37" y="665" type="line"/>
      <point x="37" y="580" type="line"/>
      <point x="94" y="577" type="line"/>
      <point x="94" y="112" type="line" smooth="yes"/>
      <point x="94" y="92"/>
      <point x="82" y="86"/>
      <point x="65" y="84" type="curve" smooth="yes"/>
      <point x="32" y="81" type="line"/>
      <point x="32" y="0" type="line"/>
      <point x="274" y="0" type="line"/>
      <point x="274" y="85" type="line"/>
      <point x="216" y="88" type="line"/>
      <point x="216" y="290" type="line"/>
      <point x="499" y="290" type="line"/>
    </contour>
  </outline>
</glyph>
<glyph name="I" format="1">
  <advance width="307"/>
  <unicode hex="0049"/>
  <outline>
    <contour>
      <point x="94" y="117" type="line" smooth="yes"/>
      <point x="94" y="92"/>
      <point x="84" y="86"/>
      <point x="65" y="84" type="curve" smooth="yes"/>
      <point x="32" y="81" type="line"/>
      <point x="32" y="0" type="line"/>
      <point x="274" y="0" type="line"/>
      <point x="274" y="85" type="line"/>
      <point x="217" y="88" type="line"/>
      <point x="217" y="549" type="line" smooth="yes"/>
      <point x="217" y="573"/>
      <point x="229" y="579"/>
      <point x="246" y="581" type="curve" smooth="yes"/>
      <point x="279" y="584" type="line"/>
      <point x="279" y="665" type="line"/>
      <point x="37" y="665" type="line"/>
      <point x="37" y="580" type="line"/>
      <point x="94" y="577" type="line"/>
    </contour>
  </outline>
</glyph>
<glyph name="J" format="1">
  <advance width="474"/>
  <unicode hex="004A"/>
  <outline>
    <contour>
      <point x="204" y="-13" type="curve" smooth="yes"/>
      <point x="323" y="-13"/>
      <point x="383" y="43"/>
      <point x="393" y="134" type="curve" smooth="yes"/>
      <point x="397" y="168"/>
      <point x="397" y="208"/>
      <point x="397" y="239" type="curve" smooth="yes"/>
      <point x="397" y="550" type="line" smooth="yes"/>
      <point x="397" y="570"/>
      <point x="406" y="579"/>
      <point x="426" y="581" type="curve" smooth="yes"/>
      <point x="459" y="584" type="line"/>
      <point x="459" y="665" type="line"/>
      <point x="197" y="665" type="line"/>
      <point x="197" y="580" type="line"/>
      <point x="275" y="576" type="line"/>
      <point x="275" y="181" type="line" smooth="yes"/>
      <point x="275" y="118"/>
      <point x="257" y="90"/>
      <point x="203" y="90" type="curve" smooth="yes"/>
      <point x="182" y="90"/>
      <point x="167" y="92"/>
      <point x="151" y="98" type="curve" smooth="yes"/>
      <point x="133" y="105"/>
      <point x="130" y="113"/>
      <point x="130" y="132" type="curve" smooth="yes"/>
      <point x="130" y="211" type="line"/>
      <point x="28" y="204" type="line"/>
      <point x="28" y="29" type="line"/>
      <point x="79" y="0"/>
      <point x="140" y="-13"/>
    </contour>
  </outline>
</glyph>
<glyph name="M" format="1">
  <advance width="834"/>
  <unicode hex="004D"/>
  <outline>
    <contour>
      <point x="248" y="665" type="line"/>
      <point x="47" y="665" type="line"/>
      <point x="47" y="580" type="line"/>
      <point x="108" y="576" type="line"/>
      <point x="81" y="111" type="line" smooth="yes"/>
      <point x="80" y="95"/>
      <point x="70" y="85"/>
      <point x="56" y="84" type="curve" smooth="yes"/>
      <point x="20" y="81" type="line"/>
      <point x="20" y="0" type="line"/>
      <point x="256" y="0" type="line"/>
      <point x="256" y="85" type="line"/>
      <point x="191" y="88" type="line"/>
      <point x="211" y="459" type="line"/>
      <point x="213" y="459" type="line"/>
      <point x="365" y="64" type="line"/>
      <point x="460" y="64" type="line"/>
      <point x="614" y="463" type="line"/>
      <point x="616" y="463" type="line"/>
      <point x="635" y="110" type="line" smooth="yes"/>
      <point x="636" y="91"/>
      <point x="625" y="85"/>
      <point x="609" y="84" type="curve" smooth="yes"/>
      <point x="573" y="81" type="line"/>
      <point x="573" y="0" type="line"/>
      <point x="814" y="0" type="line"/>
      <point x="814" y="85" type="line"/>
      <point x="752" y="88" type="line"/>
      <point x="727" y="546" type="line" smooth="yes"/>
      <point x="726" y="573"/>
      <point x="738" y="579"/>
      <point x="756" y="581" type="curve" smooth="yes"/>
      <point x="789" y="584" type="line"/>
      <point x="789" y="665" type="line"/>
      <point x="591" y="665" type="line"/>
      <point x="420" y="213" type="line"/>
      <point x="418" y="213" type="line"/>
    </contour>
  </outline>
</glyph>
<glyph name="P" format="1">
  <advance width="590"/>
  <unicode hex="0050"/>
  <outline>
    <contour>
      <point x="32" y="0" type="line"/>
      <point x="312" y="0" type="line"/>
      <point x="312" y="85" type="line"/>
      <point x="216" y="88" type="line"/>
      <point x="216" y="233" type="line"/>
      <point x="301" y="233" type="line" smooth="yes"/>
      <point x="452" y="233"/>
      <point x="560" y="309"/>
      <point x="560" y="461" type="curve" smooth="yes"/>
      <point x="560" y="595"/>
      <point x="470" y="665"/>
      <point x="323" y="665" type="curve" smooth="yes"/>
      <point x="37" y="665" type="line"/>
      <point x="37" y="580" type="line"/>
      <point x="94" y="577" type="line"/>
      <point x="94" y="112" type="line" smooth="yes"/>
      <point x="94" y="92"/>
      <point x="82" y="86"/>
      <point x="65" y="84" type="curve" smooth="yes"/>
      <point x="32" y="81" type="line"/>
    </contour>
    <contour>
      <point x="216" y="330" type="line"/>
      <point x="216" y="568" type="line"/>
      <point x="277" y="568" type="line" smooth="yes"/>
      <point x="375" y="568"/>
      <point x="434" y="552"/>
      <point x="434" y="449" type="curve" smooth="yes"/>
      <point x="434" y="360"/>
      <point x="375" y="330"/>
      <point x="288" y="330" type="curve" smooth="yes"/>
    </contour>
  </outline>
</glyph>
<glyph name="Q" format="1">
  <advance width="664"/>
  <unicode hex="0051"/>
  <outline>
    <contour>
      <point x="623" y="331" type="curve" smooth="yes"/>
      <point x="623" y="585"/>
      <point x="489" y="677"/>
      <point x="340" y="677" type="curve" smooth="yes"/>
      <point x="200" y="677"/>
      <point x="39" y="587"/>
      <point x="39" y="331" type="curve" smooth="yes"/>
      <point x="39" y="127"/>
      <point x="123" y="19"/>
      <point x="277" y="-1" type="curve"/>
      <point x="263" y="-73" type="line"/>
      <point x="291" y="-67"/>
      <point x="317" y="-66"/>
      <point x="340" y="-68" type="curve" smooth="yes"/>
      <point x="454" y="-76"/>
      <point x="548" y="-180"/>
      <point x="694" y="-165" type="curve"/>
      <point x="706" y="-69" type="line"/>
      <point x="571" y="-85"/>
      <point x="543" y="-1"/>
      <point x="411" y="6" type="curve"/>
      <point x="411" y="9" type="line"/>
      <point x="549" y="45"/>
      <point x="623" y="159"/>
    </contour>
    <contour>
      <point x="164" y="336" type="curve" smooth="yes"/>
      <point x="164" y="455"/>
      <point x="206" y="574"/>
      <point x="334" y="574" type="curve" smooth="yes"/>
      <point x="472" y="574"/>
      <point x="499" y="430"/>
      <point x="499" y="328" type="curve" smooth="yes"/>
      <point x="499" y="208"/>
      <point x="463" y="88"/>
      <point x="336" y="88" type="curve" smooth="yes"/>
      <point x="192" y="88"/>
      <point x="164" y="222"/>
    </contour>
  </outline>
</glyph>
<glyph name="T" format="1">
  <advance width="553"/>
  <unicode hex="0054"/>
  <outline>
    <contour>
      <point x="218" y="112" type="line" smooth="yes"/>
      <point x="218" y="92"/>
      <point x="208" y="86"/>
      <point x="189" y="84" type="curve" smooth="yes"/>
      <point x="136" y="81" type="line"/>
      <point x="136" y="0" type="line"/>
      <point x="418" y="0" type="line"/>
      <point x="418" y="85" type="line"/>
      <point x="339" y="88" type="line"/>
      <point x="339" y="566" type="line"/>
      <point x="407" y="566" type="line" smooth="yes"/>
      <point x="434" y="566"/>
      <point x="436" y="554"/>
      <point x="436" y="535" type="curve" smooth="yes"/>
      <point x="436" y="488" type="line"/>
      <point x="538" y="495" type="line"/>
      <point x="538" y="665" type="line"/>
      <point x="15" y="665" type="line"/>
      <point x="15" y="495" type="line"/>
      <point x="117" y="488" type="line"/>
      <point x="117" y="535" type="line" smooth="yes"/>
      <point x="117" y="552"/>
      <point x="119" y="566"/>
      <point x="140" y="566" type="curve" smooth="yes"/>
      <point x="218" y="566" type="line"/>
    </contour>
  </outline>
</glyph>
<glyph name="V" format="1">
  <advance width="654"/>
  <unicode hex="0056"/>
  <outline>
    <contour>
      <point x="201" y="546" type="line" smooth="yes"/>
      <point x="194" y="570"/>
      <point x="208" y="579"/>
      <point x="230" y="581" type="curve" smooth="yes"/>
      <point x="263" y="584" type="line"/>
      <point x="263" y="665" type="line"/>
      <point x="5" y="665" type="line"/>
      <point x="5" y="580" type="line"/>
      <point x="62" y="577" type="line"/>
      <point x="266" y="0" type="line"/>
      <point x="396" y="0" type="line"/>
      <point x="585" y="551" type="line" smooth="yes"/>
      <point x="592" y="571"/>
      <point x="598" y="579"/>
      <point x="616" y="581" type="curve" smooth="yes"/>
      <point x="649" y="584" type="line"/>
      <point x="649" y="665" type="line"/>
      <point x="419" y="665" type="line"/>
      <point x="419" y="580" type="line"/>
      <point x="480" y="576" type="line"/>
      <point x="340" y="143" type="line"/>
      <point x="335" y="143" type="line"/>
    </contour>
  </outline>
</glyph>
<glyph name="W" format="1">
  <advance width="885"/>
  <unicode hex="0057"/>
  <outline>
    <contour>
      <point x="880" y="584" type="line"/>
      <point x="880" y="665" type="line"/>
      <point x="655" y="665" type="line"/>
      <point x="655" y="580" type="line"/>
      <point x="709" y="576" type="line"/>
      <point x="624" y="158" type="line"/>
      <point x="622" y="158" type="line"/>
      <point x="514" y="612" type="line"/>
      <point x="385" y="612" type="line"/>
      <point x="281" y="160" type="line"/>
      <point x="277" y="160" type="line"/>
      <point x="190" y="546" type="line" smooth="yes"/>
      <point x="185" y="570"/>
      <point x="198" y="579"/>
      <point x="220" y="581" type="curve" smooth="yes"/>
      <point x="253" y="584" type="line"/>
      <point x="253" y="665" type="line"/>
      <point x="5" y="665" type="line"/>
      <point x="5" y="580" type="line"/>
      <point x="62" y="577" type="line"/>
      <point x="200" y="0" type="line"/>
      <point x="341" y="0" type="line"/>
      <point x="443" y="445" type="line"/>
      <point x="446" y="445" type="line"/>
      <point x="551" y="0" type="line"/>
      <point x="688" y="0" type="line"/>
      <point x="814" y="545" type="line" smooth="yes"/>
      <point x="819" y="568"/>
      <point x="826" y="579"/>
      <point x="847" y="581" type="curve" smooth="yes"/>
    </contour>
  </outline>
</glyph>
<glyph name="X" format="1">
  <advance width="621"/>
  <unicode hex="0058"/>
  <outline>
    <contour>
      <point x="521" y="549" type="line"/>
      <point x="534" y="569"/>
      <point x="544" y="579"/>
      <point x="559" y="581" type="curve" smooth="yes"/>
      <point x="590" y="584" type="line"/>
      <point x="590" y="665" type="line"/>
      <point x="361" y="665" type="line"/>
      <point x="361" y="580" type="line"/>
      <point x="411" y="577" type="line"/>
      <point x="314" y="434" type="line"/>
      <point x="247" y="539" type="line" smooth="yes"/>
      <point x="234" y="559"/>
      <point x="241" y="577"/>
      <point x="269" y="580" type="curve" smooth="yes"/>
      <point x="294" y="583" type="line"/>
      <point x="294" y="665" type="line"/>
      <point x="29" y="665" type="line"/>
      <point x="29" y="577" type="line"/>
      <point x="84" y="572" type="line"/>
      <point x="236" y="348" type="line"/>
      <point x="74" y="116" type="line" smooth="yes"/>
      <point x="61" y="96"/>
      <point x="51" y="86"/>
      <point x="36" y="84" type="curve" smooth="yes"/>
      <point x="5" y="81" type="line"/>
      <point x="5" y="0" type="line"/>
      <point x="235" y="0" type="line"/>
      <point x="235" y="85" type="line"/>
      <point x="187" y="88" type="line"/>
      <point x="302" y="262" type="line"/>
      <point x="392" y="123" type="line" smooth="yes"/>
      <point x="404" y="105"/>
      <point x="394" y="88"/>
      <point x="368" y="85" type="curve" smooth="yes"/>
      <point x="338" y="82" type="line"/>
      <point x="338" y="0" type="line"/>
      <point x="616" y="0" type="line"/>
      <point x="616" y="88" type="line"/>
      <point x="553" y="92" type="line"/>
      <point x="378" y="356" type="line"/>
    </contour>
  </outline>
</glyph>
<glyph name="Z" format="1">
  <advance width="533"/>
  <unicode hex="005A"/>
  <outline>
    <contour>
      <point x="477" y="584" type="line"/>
      <point x="477" y="665" type="line"/>
      <point x="40" y="665" type="line"/>
      <point x="40" y="506" type="line"/>
      <point x="142" y="499" type="line"/>
      <point x="142" y="539" type="line" smooth="yes"/>
      <point x="142" y="556"/>
      <point x="148" y="570"/>
      <point x="169" y="570" type="curve" smooth="yes"/>
      <point x="335" y="570" type="line"/>
      <point x="33" y="83" type="line"/>
      <point x="33" y="0" type="line"/>
      <point x="493" y="0" type="line"/>
      <point x="493" y="190" type="line"/>
      <point x="391" y="197" type="line"/>
      <point x="391" y="127" type="line" smooth="yes"/>
      <point x="391" y="108"/>
      <point x="387" y="95"/>
      <point x="366" y="95" type="curve" smooth="yes"/>
      <point x="172" y="95" type="line"/>
    </contour>
  </outline>
</glyph>
<glyph name="bracketleft" format="1">
  <advance width="325"/>
  <unicode hex="005B"/>
  <outline>
    <contour>
      <point x="80" y="-166" type="line"/>
      <point x="290" y="-166" type="line"/>
      <point x="290" y="-85" type="line"/>
      <point x="190" y="-85" type="line"/>
      <point x="190" y="633" type="line"/>
      <point x="290" y="633" type="line"/>
      <point x="290" y="714" type="line"/>
      <point x="80" y="714" type="line"/>
    </contour>
  </outline>
</glyph>
<glyph name="backslash" format="1">
  <advance width="440"/>
  <unicode hex="005C"/>
  <outline>
    <contour>
      <point x="15" y="718" type="line"/>
      <point x="322" y="-109" type="line"/>
      <point x="425" y="-72" type="line"/>
      <point x="118" y="756" type="line"/>
    </contour>
  </outline>
</glyph>
<glyph name="bracketright" format="1">
  <advance width="325"/>
  <unicode hex="005D"/>
  <outline>
    <contour>
      <point x="245" y="714" type="line"/>
      <point x="35" y="714" type="line"/>
      <point x="35" y="633" type="line"/>
      <point x="135" y="633" type="line"/>
      <point x="135" y="-85" type="line"/>
      <point x="35" y="-85" type="line"/>
      <point x="35" y="-166" type="line"/>
      <point x="245" y="-166" type="line"/>
    </contour>
  </outline>
</glyph>
<glyph name="asciicircum" format="1">
  <advance width="553"/>
  <unicode hex="005E"/>
  <outline>
    <contour>
      <point x="509" y="301" type="line"/>
      <point x="323" y="674" type="line"/>
      <point x="236" y="674" type="line"/>
      <point x="49" y="302" type="line"/>
      <point x="147" y="285" type="line"/>
      <point x="278" y="552" type="line"/>
      <point x="408" y="285" type="line"/>
    </contour>
  </outline>
</glyph>
<glyph name="underscore" format="1">
  <advance width="500"/>
  <unicode hex="005F"/>
  <outline>
    <contour>
      <point x="0" y="-147" type="line"/>
      <point x="500" y="-147" type="line"/>
      <point x="500" y="-74" type="line"/>
      <point x="0" y="-74" type="line"/>
    </contour>
  </outline>
</glyph>
<glyph name="grave" format="1">
  <advance width="500"/>
  <unicode hex="0060"/>
  <outline>
    <contour>
      <point x="234" y="786" type="line"/>
      <point x="187" y="764" type="line" smooth="yes"/>
      <point x="146" y="745"/>
      <point x="154" y="713"/>
      <point x="183" y="685" type="curve" smooth="yes"/>
      <point x="311" y="561" type="line"/>
      <point x="350" y="594" type="line"/>
    </contour>
  </outline>
</glyph>
<glyph name="b" format="1">
  <advance width="556"/>
  <unicode hex="0062"/>
  <outline>
    <contour>
      <point x="77" y="30" type="line"/>
      <point x="119" y="6"/>
      <point x="206" y="-13"/>
      <point x="276" y="-13" type="curve" smooth="yes"/>
      <point x="437" y="-13"/>
      <point x="518" y="81"/>
      <point x="518" y="276" type="curve" smooth="yes"/>
      <point x="518" y="432"/>
      <point x="438" y="518"/>
      <point x="314" y="518" type="curve" smooth="yes"/>
      <point x="267" y="518"/>
      <point x="221" y="502"/>
      <point x="193" y="476" type="curve"/>
      <point x="193" y="713" type="line"/>
      <point x="17" y="713" type="line"/>
      <point x="17" y="630" type="line"/>
      <point x="52" y="628" type="line" smooth="yes"/>
      <point x="69" y="627"/>
      <point x="77" y="621"/>
      <point x="77" y="604" type="curve" smooth="yes"/>
    </contour>
    <contour>
      <point x="193" y="354" type="line" smooth="yes"/>
      <point x="193" y="399"/>
      <point x="237" y="429"/>
      <point x="283" y="429" type="curve" smooth="yes"/>
      <point x="376" y="429"/>
      <point x="395" y="338"/>
      <point x="395" y="260" type="curve" smooth="yes"/>
      <point x="395" y="123"/>
      <point x="351" y="75"/>
      <point x="281" y="75" type="curve" smooth="yes"/>
      <point x="248" y="75"/>
      <point x="212" y="85"/>
      <point x="193" y="95" type="curve"/>
    </contour>
  </outline>
</glyph>
<glyph name="c" format="1">
  <advance width="471"/>
  <unicode hex="0063"/>
  <outline>
    <contour>
      <point x="283" y="78" type="curve" smooth="yes"/>
      <point x="194" y="78"/>
      <point x="154" y="148"/>
      <point x="154" y="257" type="curve" smooth="yes"/>
      <point x="154" y="368"/>
      <point x="195" y="428"/>
      <point x="275" y="428" type="curve" smooth="yes"/>
      <point x="290" y="428"/>
      <point x="302" y="426"/>
      <point x="314" y="422" type="curve" smooth="yes"/>
      <point x="332" y="416"/>
      <point x="335" y="407"/>
      <point x="335" y="388" type="curve" smooth="yes"/>
      <point x="335" y="340" type="line"/>
      <point x="427" y="347" type="line"/>
      <point x="427" y="477" type="line"/>
      <point x="379" y="503"/>
      <point x="331" y="518"/>
      <point x="271" y="518" type="curve" smooth="yes"/>
      <point x="158" y="518"/>
      <point x="33" y="448"/>
      <point x="33" y="245" type="curve" smooth="yes"/>
      <point x="33" y="79"/>
      <point x="120" y="-14"/>
      <point x="267" y="-14" type="curve" smooth="yes"/>
      <point x="341" y="-14"/>
      <point x="402" y="12"/>
      <point x="441" y="44" type="curve"/>
      <point x="398" y="121" type="line"/>
      <point x="357" y="91"/>
      <point x="322" y="78"/>
    </contour>
  </outline>
</glyph>
<glyph name="j" format="1">
  <advance width="283"/>
  <unicode hex="006A"/>
  <outline>
    <contour>
      <point x="208" y="503" type="line"/>
      <point x="29" y="503" type="line"/>
      <point x="29" y="420" type="line"/>
      <point x="64" y="418" type="line" smooth="yes"/>
      <point x="83" y="417"/>
      <point x="89" y="411"/>
      <point x="89" y="389" type="curve" smooth="yes"/>
      <point x="89" y="-29" type="line" smooth="yes"/>
      <point x="89" y="-95"/>
      <point x="68" y="-117"/>
      <point x="30" y="-117" type="curve" smooth="yes"/>
      <point x="4" y="-117"/>
      <point x="-20" y="-109"/>
      <point x="-44" y="-96" type="curve"/>
      <point x="-80" y="-179" type="line"/>
      <point x="-45" y="-201"/>
      <point x="7" y="-214"/>
      <point x="48" y="-214" type="curve" smooth="yes"/>
      <point x="190" y="-214"/>
      <point x="208" y="-120"/>
      <point x="208" y="-24" type="curve" smooth="yes"/>
    </contour>
    <contour>
      <point x="61" y="642" type="curve" smooth="yes"/>
      <point x="61" y="600"/>
      <point x="91" y="569"/>
      <point x="137" y="569" type="curve" smooth="yes"/>
      <point x="182" y="569"/>
      <point x="214" y="600"/>
      <point x="214" y="642" type="curve" smooth="yes"/>
      <point x="214" y="684"/>
      <point x="182" y="717"/>
      <point x="138" y="717" type="curve" smooth="yes"/>
      <point x="91" y="717"/>
      <point x="61" y="684"/>
    </contour>
  </outline>
</glyph>
<glyph name="m" format="1">
  <advance width="866"/>
  <unicode hex="006D"/>
  <outline>
    <contour>
      <point x="27" y="422" type="line"/>
      <point x="69" y="419" type="line" smooth="yes"/>
      <point x="88" y="418"/>
      <point x="94" y="410"/>
      <point x="94" y="388" type="curve" smooth="yes"/>
      <point x="94" y="112" type="line"/>
      <point x="93" y="112" type="line"/>
      <point x="93" y="87"/>
      <point x="83" y="81"/>
      <point x="64" y="79" type="curve" smooth="yes"/>
      <point x="31" y="76" type="line"/>
      <point x="31" y="0" type="line"/>
      <point x="267" y="0" type="line"/>
      <point x="267" y="80" type="line"/>
      <point x="213" y="83" type="line"/>
      <point x="213" y="325" type="line" smooth="yes"/>
      <point x="213" y="377"/>
      <point x="240" y="426"/>
      <point x="310" y="426" type="curve" smooth="yes"/>
      <point x="374" y="426"/>
      <point x="379" y="379"/>
      <point x="379" y="318" type="curve" smooth="yes"/>
      <point x="379" y="112" type="line" smooth="yes"/>
      <point x="379" y="87"/>
      <point x="369" y="81"/>
      <point x="350" y="79" type="curve" smooth="yes"/>
      <point x="317" y="76" type="line"/>
      <point x="317" y="0" type="line"/>
      <point x="553" y="0" type="line"/>
      <point x="553" y="80" type="line"/>
      <point x="498" y="83" type="line"/>
      <point x="498" y="323" type="line" smooth="yes"/>
      <point x="498" y="382"/>
      <point x="528" y="426"/>
      <point x="595" y="426" type="curve" smooth="yes"/>
      <point x="659" y="426"/>
      <point x="664" y="379"/>
      <point x="664" y="318" type="curve" smooth="yes"/>
      <point x="664" y="111" type="line"/>
      <point x="663" y="87"/>
      <point x="653" y="81"/>
      <point x="635" y="79" type="curve" smooth="yes"/>
      <point x="602" y="76" type="line"/>
      <point x="602" y="0" type="line"/>
      <point x="840" y="0" type="line"/>
      <point x="840" y="80" type="line"/>
      <point x="783" y="83" type="line"/>
      <point x="783" y="344" type="line" smooth="yes"/>
      <point x="783" y="462"/>
      <point x="727" y="518"/>
      <point x="633" y="518" type="curve" smooth="yes"/>
      <point x="567" y="518"/>
      <point x="516" y="488"/>
      <point x="481" y="438" type="curve"/>
      <point x="458" y="492"/>
      <point x="412" y="518"/>
      <point x="348" y="518" type="curve" smooth="yes"/>
      <point x="282" y="518"/>
      <point x="231" y="488"/>
      <point x="196" y="438" type="curve"/>
      <point x="196" y="503" type="line"/>
      <point x="27" y="503" type="line"/>
    </contour>
  </outline>
</glyph>
<glyph name="o" format="1">
  <advance width="528"/>
  <unicode hex="006F"/>
  <outline>
    <contour>
      <point x="263" y="73" type="curve" smooth="yes"/>
      <point x="167" y="73"/>
      <point x="154" y="173"/>
      <point x="154" y="266" type="curve" smooth="yes"/>
      <point x="154" y="362"/>
      <point x="186" y="430"/>
      <point x="265" y="430" type="curve" smooth="yes"/>
      <point x="345" y="430"/>
      <point x="372" y="361"/>
      <point x="372" y="249" type="curve" smooth="yes"/>
      <point x="372" y="145"/>
      <point x="341" y="73"/>
    </contour>
    <contour>
      <point x="33" y="252" type="curve" smooth="yes"/>
      <point x="33" y="71"/>
      <point x="121" y="-15"/>
      <point x="255" y="-15" type="curve" smooth="yes"/>
      <point x="387" y="-15"/>
      <point x="494" y="73"/>
      <point x="494" y="265" type="curve" smooth="yes"/>
      <point x="494" y="495"/>
      <point x="345" y="518"/>
      <point x="271" y="518" type="curve" smooth="yes"/>
      <point x="168" y="518"/>
      <point x="33" y="460"/>
    </contour>
  </outline>
</glyph>
<glyph name="p" format="1">
  <advance width="568"/>
  <unicode hex="0070"/>
  <outline>
    <contour>
      <point x="89" y="-95" type="line" smooth="yes"/>
      <point x="89" y="-120"/>
      <point x="79" y="-126"/>
      <point x="60" y="-128" type="curve" smooth="yes"/>
      <point x="27" y="-131" type="line"/>
      <point x="27" y="-207" type="line"/>
      <point x="285" y="-207" type="line"/>
      <point x="285" y="-128" type="line"/>
      <point x="204" y="-124" type="line"/>
      <point x="204" y="14" type="line"/>
      <point x="230" y="-2"/>
      <point x="272" y="-15"/>
      <point x="311" y="-15" type="curve" smooth="yes"/>
      <point x="443" y="-15"/>
      <point x="530" y="80"/>
      <point x="530" y="264" type="curve" smooth="yes"/>
      <point x="530" y="443"/>
      <point x="460" y="518"/>
      <point x="349" y="518" type="curve" smooth="yes"/>
      <point x="264" y="518"/>
      <point x="209" y="472"/>
      <point x="191" y="438" type="curve"/>
      <point x="191" y="503" type="line"/>
      <point x="22" y="503" type="line"/>
      <point x="22" y="422" type="line"/>
      <point x="64" y="419" type="line"/>
      <point x="83" y="419"/>
      <point x="89" y="411"/>
      <point x="89" y="389" type="curve" smooth="yes"/>
    </contour>
    <contour>
      <point x="406" y="254" type="curve" smooth="yes"/>
      <point x="406" y="167"/>
      <point x="377" y="80"/>
      <point x="292" y="80" type="curve" smooth="yes"/>
      <point x="266" y="80"/>
      <point x="230" y="88"/>
      <point x="204" y="105" type="curve"/>
      <point x="204" y="335" type="line" smooth="yes"/>
      <point x="204" y="381"/>
      <point x="248" y="421"/>
      <point x="305" y="421" type="curve" smooth="yes"/>
      <point x="358" y="421"/>
      <point x="406" y="387"/>
    </contour>
  </outline>
</glyph>
<glyph name="q" format="1">
  <advance width="551"/>
  <unicode hex="0071"/>
  <outline>
    <contour>
      <point x="367" y="-95" type="line" smooth="yes"/>
      <point x="367" y="-120"/>
      <point x="356" y="-127"/>
      <point x="337" y="-128" type="curve" smooth="yes"/>
      <point x="278" y="-131" type="line"/>
      <point x="278" y="-207" type="line"/>
      <point x="541" y="-207" type="line"/>
      <point x="541" y="-127" type="line"/>
      <point x="483" y="-124" type="line"/>
      <point x="483" y="481" type="line"/>
      <point x="424" y="506"/>
      <point x="346" y="518"/>
      <point x="298" y="518" type="curve" smooth="yes"/>
      <point x="147" y="518"/>
      <point x="40" y="433"/>
      <point x="40" y="230" type="curve" smooth="yes"/>
      <point x="40" y="117"/>
      <point x="88" y="-13"/>
      <point x="234" y="-13" type="curve" smooth="yes"/>
      <point x="283" y="-13"/>
      <point x="333" y="3"/>
      <point x="367" y="43" type="curve"/>
    </contour>
    <contour>
      <point x="366" y="164" type="line" smooth="yes"/>
      <point x="366" y="104"/>
      <point x="324" y="75"/>
      <point x="268" y="75" type="curve" smooth="yes"/>
      <point x="172" y="75"/>
      <point x="163" y="175"/>
      <point x="163" y="246" type="curve" smooth="yes"/>
      <point x="163" y="351"/>
      <point x="204" y="431"/>
      <point x="287" y="431" type="curve" smooth="yes"/>
      <point x="315" y="431"/>
      <point x="343" y="427"/>
      <point x="366" y="419" type="curve"/>
    </contour>
  </outline>
</glyph>
<glyph name="r" format="1">
  <advance width="462"/>
  <unicode hex="0072"/>
  <outline>
    <contour>
      <point x="95" y="112" type="line" smooth="yes"/>
      <point x="95" y="87"/>
      <point x="85" y="81"/>
      <point x="66" y="79" type="curve" smooth="yes"/>
      <point x="33" y="76" type="line"/>
      <point x="33" y="0" type="line"/>
      <point x="301" y="0" type="line"/>
      <point x="301" y="79" type="line"/>
      <point x="214" y="83" type="line"/>
      <point x="214" y="315" type="line" smooth="yes"/>
      <point x="214" y="373"/>
      <point x="251" y="416"/>
      <point x="305" y="416" type="curve" smooth="yes"/>
      <point x="316" y="416"/>
      <point x="323" y="415"/>
      <point x="332" y="411" type="curve" smooth="yes"/>
      <point x="340" y="407"/>
      <point x="342" y="398"/>
      <point x="342" y="386" type="curve" smooth="yes"/>
      <point x="342" y="340" type="line"/>
      <point x="435" y="347" type="line"/>
      <point x="435" y="496" type="line"/>
      <point x="402" y="512"/>
      <point x="372" y="518"/>
      <point x="339" y="518" type="curve" smooth="yes"/>
      <point x="273" y="518"/>
      <point x="220" y="478"/>
      <point x="197" y="428" type="curve"/>
      <point x="197" y="503" type="line"/>
      <point x="28" y="503" type="line"/>
      <point x="28" y="422" type="line"/>
      <point x="70" y="419" type="line" smooth="yes"/>
      <point x="89" y="418"/>
      <point x="95" y="411"/>
      <point x="95" y="389" type="curve" smooth="yes"/>
    </contour>
  </outline>
</glyph>
<glyph name="v" format="1">
  <advance width="558"/>
  <unicode hex="0076"/>
  <outline>
    <contour>
      <point x="337" y="503" type="line"/>
      <point x="337" y="423" type="line"/>
      <point x="389" y="420" type="line"/>
      <point x="289" y="91" type="line"/>
      <point x="287" y="91" type="line"/>
      <point x="184" y="420" type="line"/>
      <point x="245" y="423" type="line"/>
      <point x="245" y="503" type="line"/>
      <point x="10" y="503" type="line"/>
      <point x="10" y="425" type="line"/>
      <point x="39" y="423" type="line" smooth="yes"/>
      <point x="57" y="422"/>
      <point x="62" y="416"/>
      <point x="68" y="398" type="curve" smooth="yes"/>
      <point x="208" y="0" type="line"/>
      <point x="361" y="0" type="line"/>
      <point x="490" y="399" type="line" smooth="yes"/>
      <point x="496" y="418"/>
      <point x="504" y="422"/>
      <point x="517" y="423" type="curve" smooth="yes"/>
      <point x="548" y="425" type="line"/>
      <point x="548" y="503" type="line"/>
    </contour>
  </outline>
</glyph>
<glyph name="w" format="1">
  <advance width="795"/>
  <unicode hex="0077"/>
  <outline>
    <contour>
      <point x="364" y="483" type="line"/>
      <point x="254" y="113" type="line"/>
      <point x="252" y="113" type="line"/>
      <point x="183" y="420" type="line"/>
      <point x="239" y="423" type="line"/>
      <point x="239" y="503" type="line"/>
      <point x="10" y="503" type="line"/>
      <point x="10" y="426" type="line"/>
      <point x="39" y="424" type="line" smooth="yes"/>
      <point x="57" y="423"/>
      <point x="62" y="417"/>
      <point x="68" y="399" type="curve"/>
      <point x="169" y="0" type="line"/>
      <point x="316" y="0" type="line"/>
      <point x="401" y="298" type="line"/>
      <point x="404" y="298" type="line"/>
      <point x="486" y="0" type="line"/>
      <point x="630" y="0" type="line"/>
      <point x="725" y="400" type="line"/>
      <point x="731" y="419"/>
      <point x="739" y="423"/>
      <point x="752" y="424" type="curve" smooth="yes"/>
      <point x="785" y="426" type="line"/>
      <point x="785" y="503" type="line"/>
      <point x="584" y="503" type="line"/>
      <point x="584" y="423" type="line"/>
      <point x="635" y="420" type="line"/>
      <point x="567" y="111" type="line"/>
      <point x="565" y="111" type="line"/>
      <point x="461" y="483" type="line"/>
    </contour>
  </outline>
</glyph>
<glyph name="x" format="1">
  <advance width="534"/>
  <unicode hex="0078"/>
  <outline>
    <contour>
      <point x="319" y="106" type="line" smooth="yes"/>
      <point x="328" y="94"/>
      <point x="328" y="82"/>
      <point x="309" y="81" type="curve" smooth="yes"/>
      <point x="278" y="79" type="line"/>
      <point x="278" y="0" type="line"/>
      <point x="516" y="0" type="line"/>
      <point x="516" y="79" type="line"/>
      <point x="465" y="85" type="line"/>
      <point x="334" y="259" type="line"/>
      <point x="444" y="398" type="line" smooth="yes"/>
      <point x="457" y="414"/>
      <point x="467" y="422"/>
      <point x="484" y="423" type="curve" smooth="yes"/>
      <point x="514" y="425" type="line"/>
      <point x="514" y="503" type="line"/>
      <point x="311" y="503" type="line"/>
      <point x="311" y="423" type="line"/>
      <point x="352" y="420" type="line"/>
      <point x="275" y="320" type="line"/>
      <point x="218" y="396" type="line" smooth="yes"/>
      <point x="209" y="408"/>
      <point x="214" y="421"/>
      <point x="230" y="422" type="curve" smooth="yes"/>
      <point x="259" y="424" type="line"/>
      <point x="259" y="503" type="line"/>
      <point x="26" y="503" type="line"/>
      <point x="26" y="426" type="line"/>
      <point x="77" y="420" type="line"/>
      <point x="200" y="250" type="line"/>
      <point x="85" y="106" type="line" smooth="yes"/>
      <point x="72" y="90"/>
      <point x="62" y="84"/>
      <point x="45" y="82" type="curve" smooth="yes"/>
      <point x="14" y="79" type="line"/>
      <point x="14" y="0" type="line"/>
      <point x="222" y="0" type="line"/>
      <point x="222" y="80" type="line"/>
      <point x="175" y="83" type="line"/>
      <point x="258" y="186" type="line"/>
    </contour>
  </outline>
</glyph>
<glyph name="y" format="1">
  <advance width="573"/>
  <unicode hex="0079"/>
  <outline>
    <contour>
      <point x="401" y="19" type="line" smooth="yes"/>
      <point x="401" y="-72"/>
      <point x="364" y="-128"/>
      <point x="272" y="-128" type="curve" smooth="yes"/>
      <point x="242" y="-128"/>
      <point x="220" y="-125"/>
      <point x="201" y="-118" type="curve" smooth="yes"/>
      <point x="183" y="-111"/>
      <point x="178" y="-101"/>
      <point x="178" y="-82" type="curve" smooth="yes"/>
      <point x="178" y="-34" type="line"/>
      <point x="83" y="-42" type="line"/>
      <point x="83" y="-181" type="line"/>
      <point x="125" y="-202"/>
      <point x="208" y="-214"/>
      <point x="271" y="-214" type="curve" smooth="yes"/>
      <point x="420" y="-214"/>
      <point x="503" y="-146"/>
      <point x="503" y="19" type="curve" smooth="yes"/>
      <point x="503" y="503" type="line"/>
      <point x="327" y="503" type="line"/>
      <point x="327" y="421" type="line"/>
      <point x="359" y="419" type="line"/>
      <point x="378" y="419"/>
      <point x="384" y="411"/>
      <point x="384" y="389" type="curve" smooth="yes"/>
      <point x="384" y="208" type="line" smooth="yes"/>
      <point x="384" y="156"/>
      <point x="347" y="109"/>
      <point x="277" y="109" type="curve" smooth="yes"/>
      <point x="213" y="109"/>
      <point x="203" y="155"/>
      <point x="203" y="216" type="curve" smooth="yes"/>
      <point x="203" y="503" type="line"/>
      <point x="27" y="503" type="line"/>
      <point x="27" y="421" type="line"/>
      <point x="59" y="419" type="line" smooth="yes"/>
      <point x="76" y="418"/>
      <point x="84" y="412"/>
      <point x="84" y="391" type="curve" smooth="yes"/>
      <point x="84" y="190" type="line" smooth="yes"/>
      <point x="84" y="72"/>
      <point x="139" y="17"/>
      <point x="239" y="17" type="curve" smooth="yes"/>
      <point x="305" y="17"/>
      <point x="366" y="45"/>
      <point x="401" y="95" type="curve"/>
    </contour>
  </outline>
</glyph>
<glyph name="z" format="1">
  <advance width="483"/>
  <unicode hex="007A"/>
  <outline>
    <contour>
      <point x="448" y="0" type="line"/>
      <point x="448" y="159" type="line"/>
      <point x="354" y="166" type="line"/>
      <point x="354" y="124" type="line" smooth="yes"/>
      <point x="354" y="104"/>
      <point x="349" y="90"/>
      <point x="325" y="90" type="curve" smooth="yes"/>
      <point x="183" y="90" type="line"/>
      <point x="443" y="435" type="line"/>
      <point x="443" y="503" type="line"/>
      <point x="45" y="503" type="line"/>
      <point x="45" y="352" type="line"/>
      <point x="139" y="345" type="line"/>
      <point x="139" y="380" type="line" smooth="yes"/>
      <point x="139" y="401"/>
      <point x="141" y="414"/>
      <point x="171" y="414" type="curve" smooth="yes"/>
      <point x="297" y="414" type="line"/>
      <point x="40" y="76" type="line"/>
      <point x="40" y="0" type="line"/>
    </contour>
  </outline>
</glyph>
<glyph name="braceleft" format="1">
  <advance width="340"/>
  <unicode hex="007B"/>
  <outline>
    <contour>
      <point x="148" y="281" type="curve"/>
      <point x="198" y="301"/>
      <point x="214" y="341"/>
      <point x="214" y="407" type="curve" smooth="yes"/>
      <point x="214" y="453"/>
      <point x="205" y="525"/>
      <point x="205" y="570" type="curve" smooth="yes"/>
      <point x="205" y="617"/>
      <point x="211" y="640"/>
      <point x="255" y="640" type="curve" smooth="yes"/>
      <point x="266" y="640"/>
      <point x="278" y="638"/>
      <point x="295" y="635" type="curve"/>
      <point x="305" y="709" type="line"/>
      <point x="277" y="716"/>
      <point x="247" y="719"/>
      <point x="225" y="719" type="curve" smooth="yes"/>
      <point x="145" y="719"/>
      <point x="95" y="673"/>
      <point x="99" y="579" type="curve" smooth="yes"/>
      <point x="101" y="541"/>
      <point x="105" y="485"/>
      <point x="107" y="437" type="curve" smooth="yes"/>
      <point x="110" y="357"/>
      <point x="99" y="325"/>
      <point x="43" y="318" type="curve"/>
      <point x="43" y="244" type="line"/>
      <point x="99" y="237"/>
      <point x="109" y="198"/>
      <point x="105" y="126" type="curve" smooth="yes"/>
      <point x="101" y="70"/>
      <point x="95" y="14"/>
      <point x="95" y="-44" type="curve" smooth="yes"/>
      <point x="95" y="-121"/>
      <point x="141" y="-171"/>
      <point x="223" y="-171" type="curve" smooth="yes"/>
      <point x="244" y="-171"/>
      <point x="274" y="-168"/>
      <point x="302" y="-162" type="curve"/>
      <point x="292" y="-86" type="line"/>
      <point x="276" y="-90"/>
      <point x="264" y="-91"/>
      <point x="253" y="-91" type="curve" smooth="yes"/>
      <point x="209" y="-91"/>
      <point x="203" y="-62"/>
      <point x="203" y="-16" type="curve" smooth="yes"/>
      <point x="203" y="30"/>
      <point x="214" y="114"/>
      <point x="214" y="160" type="curve" smooth="yes"/>
      <point x="214" y="232"/>
      <point x="200" y="263"/>
    </contour>
  </outline>
</glyph>
<glyph name="bar" format="1">
  <advance width="274"/>
  <unicode hex="007C"/>
  <outline>
    <contour>
      <point x="85" y="-88" type="line"/>
      <point x="189" y="-88" type="line"/>
      <point x="189" y="747" type="line"/>
      <point x="85" y="747" type="line"/>
    </contour>
  </outline>
</glyph>
<glyph name="braceright" format="1">
  <advance width="340"/>
  <unicode hex="007D"/>
  <outline>
    <contour>
      <point x="192" y="281" type="curve"/>
      <point x="140" y="263"/>
      <point x="126" y="232"/>
      <point x="126" y="160" type="curve" smooth="yes"/>
      <point x="126" y="114"/>
      <point x="137" y="30"/>
      <point x="137" y="-16" type="curve" smooth="yes"/>
      <point x="137" y="-62"/>
      <point x="131" y="-91"/>
      <point x="87" y="-91" type="curve" smooth="yes"/>
      <point x="76" y="-91"/>
      <point x="64" y="-90"/>
      <point x="48" y="-86" type="curve"/>
      <point x="38" y="-162" type="line"/>
      <point x="66" y="-168"/>
      <point x="96" y="-171"/>
      <point x="117" y="-171" type="curve" smooth="yes"/>
      <point x="199" y="-171"/>
      <point x="245" y="-121"/>
      <point x="245" y="-44" type="curve" smooth="yes"/>
      <point x="245" y="14"/>
      <point x="239" y="70"/>
      <point x="235" y="126" type="curve" smooth="yes"/>
      <point x="231" y="198"/>
      <point x="241" y="237"/>
      <point x="297" y="244" type="curve"/>
      <point x="297" y="318" type="line"/>
      <point x="241" y="325"/>
      <point x="230" y="357"/>
      <point x="233" y="437" type="curve" smooth="yes"/>
      <point x="235" y="485"/>
      <point x="239" y="541"/>
      <point x="241" y="579" type="curve" smooth="yes"/>
      <point x="245" y="673"/>
      <point x="195" y="719"/>
      <point x="115" y="719" type="curve" smooth="yes"/>
      <point x="93" y="719"/>
      <point x="63" y="716"/>
      <point x="35" y="709" type="curve"/>
      <point x="45" y="635" type="line"/>
      <point x="62" y="638"/>
      <point x="74" y="640"/>
      <point x="85" y="640" type="curve" smooth="yes"/>
      <point x="129" y="640"/>
      <point x="135" y="617"/>
      <point x="135" y="570" type="curve" smooth="yes"/>
      <point x="135" y="525"/>
      <point x="126" y="453"/>
      <point x="126" y="407" type="curve" smooth="yes"/>
      <point x="126" y="341"/>
      <point x="142" y="301"/>
    </contour>
  </outline>
</glyph>
<glyph name="asciitilde" format="1">
  <advance width="598"/>
  <unicode hex="007E"/>
  <outline>
    <contour>
      <point x="405" y="218" type="curve" smooth="yes"/>
      <point x="459" y="218"/>
      <point x="515" y="245"/>
      <point x="551" y="322" type="curve"/>
      <point x="478" y="376" type="line"/>
      <point x="453" y="331"/>
      <point x="428" y="312"/>
      <point x="397" y="312" type="curve" smooth="yes"/>
      <point x="333" y="312"/>
      <point x="274" y="388"/>
      <point x="193" y="388" type="curve" smooth="yes"/>
      <point x="130" y="388"/>
      <point x="85" y="346"/>
      <point x="47" y="282" type="curve"/>
      <point x="119" y="226" type="line"/>
      <point x="145" y="265"/>
      <point x="170" y="291"/>
      <point x="203" y="291" type="curve" smooth="yes"/>
      <point x="258" y="291"/>
      <point x="320" y="218"/>
    </contour>
  </outline>
</glyph>
<glyph name="exclamdown" format="1">
  <advance width="277"/>
  <unicode hex="00A1"/>
  <outline>
    <contour>
      <point x="193" y="-28" type="line"/>
      <point x="172" y="321" type="line"/>
      <point x="101" y="321" type="line"/>
      <point x="81" y="-28" type="line"/>
      <point x="81" y="-145" type="line" smooth="yes"/>
      <point x="81" y="-172"/>
      <point x="94" y="-194"/>
      <point x="138" y="-194" type="curve" smooth="yes"/>
      <point x="179" y="-194"/>
      <point x="193" y="-172"/>
      <point x="193" y="-147" type="curve" smooth="yes"/>
    </contour>
    <contour>
      <point x="207" y="451" type="curve" smooth="yes"/>
      <point x="207" y="488"/>
      <point x="182" y="518"/>
      <point x="137" y="518" type="curve" smooth="yes"/>
      <point x="95" y="518"/>
      <point x="70" y="486"/>
      <point x="70" y="450" type="curve" smooth="yes"/>
      <point x="70" y="413"/>
      <point x="96" y="385"/>
      <point x="140" y="385" type="curve" smooth="yes"/>
      <point x="179" y="385"/>
      <point x="207" y="415"/>
    </contour>
  </outline>
</glyph>
<glyph name="cent" format="1">
  <advance width="535"/>
  <unicode hex="00A2"/>
  <outline>
    <contour>
      <point x="270" y="-60" type="line"/>
      <point x="345" y="-60" type="line"/>
      <point x="345" y="48" type="line"/>
      <point x="407" y="53"/>
      <point x="458" y="77"/>
      <point x="493" y="105" type="curve"/>
      <point x="450" y="182" type="line"/>
      <point x="412" y="154"/>
      <point x="380" y="141"/>
      <point x="345" y="139" type="curve"/>
      <point x="345" y="483" type="line"/>
      <point x="354" y="482"/>
      <point x="363" y="480"/>
      <point x="371" y="478" type="curve"/>
      <point x="389" y="472"/>
      <point x="392" y="463"/>
      <point x="392" y="444" type="curve" smooth="yes"/>
      <point x="392" y="396" type="line"/>
      <point x="484" y="403" type="line"/>
      <point x="484" y="533" type="line"/>
      <point x="442" y="555"/>
      <point x="396" y="570"/>
      <point x="345" y="573" type="curve"/>
      <point x="345" y="685" type="line"/>
      <point x="270" y="685" type="line"/>
      <point x="270" y="569" type="line"/>
      <point x="171" y="549"/>
      <point x="75" y="473"/>
      <point x="75" y="301" type="curve" smooth="yes"/>
      <point x="75" y="154"/>
      <point x="151" y="68"/>
      <point x="270" y="50" type="curve"/>
    </contour>
    <contour>
      <point x="196" y="313" type="curve" smooth="yes"/>
      <point x="196" y="395"/>
      <point x="222" y="449"/>
      <point x="270" y="472" type="curve"/>
      <point x="270" y="152" type="line"/>
      <point x="219" y="176"/>
      <point x="196" y="233"/>
    </contour>
  </outline>
</glyph>
<glyph name="sterling" format="1">
  <advance width="552"/>
  <unicode hex="00A3"/>
  <outline>
    <contour>
      <point x="116" y="210" type="line" smooth="yes"/>
      <point x="111" y="142"/>
      <point x="73" y="104"/>
      <point x="32" y="85" type="curve"/>
      <point x="32" y="-8" type="line"/>
      <point x="72" y="10"/>
      <point x="119" y="22"/>
      <point x="158" y="22" type="curve" smooth="yes"/>
      <point x="249" y="22"/>
      <point x="304" y="-3"/>
      <point x="400" y="-3" type="curve" smooth="yes"/>
      <point x="425" y="-3"/>
      <point x="455" y="0"/>
      <point x="487" y="6" type="curve"/>
      <point x="500" y="113" type="line"/>
      <point x="465" y="103"/>
      <point x="434" y="99"/>
      <point x="406" y="99" type="curve" smooth="yes"/>
      <point x="336" y="99"/>
      <point x="291" y="119"/>
      <point x="235" y="119" type="curve" smooth="yes"/>
      <point x="202" y="119"/>
      <point x="178" y="109"/>
      <point x="151" y="99" type="curve"/>
      <point x="149" y="103" type="line"/>
      <point x="195" y="138"/>
      <point x="232" y="188"/>
      <point x="236" y="249" type="curve" smooth="yes"/>
      <point x="239" y="290" type="line"/>
      <point x="409" y="290" type="line"/>
      <point x="419" y="373" type="line"/>
      <point x="244" y="373" type="line"/>
      <point x="250" y="450" type="line" smooth="yes"/>
      <point x="255" y="527"/>
      <point x="286" y="559"/>
      <point x="354" y="559" type="curve" smooth="yes"/>
      <point x="371" y="559"/>
      <point x="387" y="556"/>
      <point x="401" y="550" type="curve" smooth="yes"/>
      <point x="419" y="543"/>
      <point x="421" y="535"/>
      <point x="421" y="516" type="curve" smooth="yes"/>
      <point x="421" y="469" type="line"/>
      <point x="523" y="476" type="line"/>
      <point x="523" y="616" type="line"/>
      <point x="480" y="639"/>
      <point x="411" y="657"/>
      <point x="353" y="657" type="curve" smooth="yes"/>
      <point x="244" y="657"/>
      <point x="145" y="612"/>
      <point x="134" y="459" type="curve" smooth="yes"/>
      <point x="128" y="373" type="line"/>
      <point x="48" y="373" type="line"/>
      <point x="38" y="289" type="line"/>
      <point x="122" y="289" type="line"/>
    </contour>
  </outline>
</glyph>
<glyph name="yen" format="1">
  <advance width="550"/>
  <unicode hex="00A5"/>
  <outline>
    <contour>
      <point x="59" y="296" type="line"/>
      <point x="212" y="296" type="line"/>
      <point x="212" y="231" type="line"/>
      <point x="59" y="231" type="line"/>
      <point x="59" y="155" type="line"/>
      <point x="212" y="155" type="line"/>
      <point x="212" y="112" type="line" smooth="yes"/>
      <point x="212" y="92"/>
      <point x="202" y="85"/>
      <point x="183" y="84" type="curve" smooth="yes"/>
      <point x="130" y="81" type="line"/>
      <point x="130" y="0" type="line"/>
      <point x="412" y="0" type="line"/>
      <point x="412" y="85" type="line"/>
      <point x="334" y="88" type="line"/>
      <point x="334" y="155" type="line"/>
      <point x="487" y="155" type="line"/>
      <point x="487" y="231" type="line"/>
      <point x="334" y="231" type="line"/>
      <point x="334" y="296" type="line"/>
      <point x="487" y="296" type="line"/>
      <point x="487" y="372" type="line"/>
      <point x="374" y="372" type="line"/>
      <point x="481" y="551" type="line" smooth="yes"/>
      <point x="491" y="569"/>
      <point x="499" y="579"/>
      <point x="515" y="581" type="curve" smooth="yes"/>
      <point x="545" y="584" type="line"/>
      <point x="545" y="665" type="line"/>
      <point x="330" y="665" type="line"/>
      <point x="330" y="580" type="line"/>
      <point x="380" y="576" type="line"/>
      <point x="281" y="388" type="line"/>
      <point x="277" y="388" type="line"/>
      <point x="202" y="542" type="line" smooth="yes"/>
      <point x="191" y="563"/>
      <point x="197" y="579"/>
      <point x="219" y="581" type="curve" smooth="yes"/>
      <point x="249" y="584" type="line"/>
      <point x="249" y="665" type="line"/>
      <point x="5" y="665" type="line"/>
      <point x="5" y="580" type="line"/>
      <point x="52" y="577" type="line"/>
      <point x="172" y="372" type="line"/>
      <point x="59" y="372" type="line"/>
    </contour>
  </outline>
</glyph>
<glyph name="brokenbar" format="1">
  <advance width="275"/>
  <unicode hex="00A6"/>
  <outline>
    <contour>
      <point x="85" y="-88" type="line"/>
      <point x="190" y="-88" type="line"/>
      <point x="190" y="286" type="line"/>
      <point x="85" y="286" type="line"/>
    </contour>
    <contour>
      <point x="85" y="403" type="line"/>
      <point x="190" y="403" type="line"/>
      <point x="190" y="747" type="line"/>
      <point x="85" y="747" type="line"/>
    </contour>
  </outline>
</glyph>
<glyph name="section" format="1">
  <advance width="552"/>
  <unicode hex="00A7"/>
  <outline>
    <contour>
      <point x="407" y="35" type="curve"/>
      <point x="463" y="83"/>
      <point x="489" y="139"/>
      <point x="489" y="190" type="curve" smooth="yes"/>
      <point x="489" y="277"/>
      <point x="429" y="328"/>
      <point x="354" y="376" type="curve" smooth="yes"/>
      <point x="286" y="419"/>
      <point x="223" y="447"/>
      <point x="223" y="509" type="curve" smooth="yes"/>
      <point x="223" y="549"/>
      <point x="249" y="577"/>
      <point x="304" y="577" type="curve" smooth="yes"/>
      <point x="319" y="577"/>
      <point x="330" y="575"/>
      <point x="340" y="572" type="curve" smooth="yes"/>
      <point x="358" y="566"/>
      <point x="361" y="556"/>
      <point x="361" y="537" type="curve" smooth="yes"/>
      <point x="361" y="489" type="line"/>
      <point x="453" y="496" type="line"/>
      <point x="453" y="626" type="line"/>
      <point x="405" y="651"/>
      <point x="358" y="667"/>
      <point x="295" y="667" type="curve" smooth="yes"/>
      <point x="147" y="667"/>
      <point x="114" y="563"/>
      <point x="114" y="500" type="curve" smooth="yes"/>
      <point x="114" y="471"/>
      <point x="118" y="447"/>
      <point x="127" y="427" type="curve"/>
      <point x="71" y="379"/>
      <point x="43" y="323"/>
      <point x="43" y="268" type="curve" smooth="yes"/>
      <point x="43" y="185"/>
      <point x="91" y="138"/>
      <point x="180" y="86" type="curve" smooth="yes"/>
      <point x="249" y="45"/>
      <point x="311" y="15"/>
      <point x="311" y="-47" type="curve" smooth="yes"/>
      <point x="311" y="-87"/>
      <point x="285" y="-115"/>
      <point x="230" y="-115" type="curve" smooth="yes"/>
      <point x="215" y="-115"/>
      <point x="204" y="-113"/>
      <point x="194" y="-110" type="curve" smooth="yes"/>
      <point x="176" y="-104"/>
      <point x="173" y="-94"/>
      <point x="173" y="-75" type="curve" smooth="yes"/>
      <point x="173" y="-27" type="line"/>
      <point x="81" y="-34" type="line"/>
      <point x="81" y="-166" type="line"/>
      <point x="129" y="-191"/>
      <point x="176" y="-205"/>
      <point x="239" y="-205" type="curve" smooth="yes"/>
      <point x="387" y="-205"/>
      <point x="420" y="-101"/>
      <point x="420" y="-38" type="curve" smooth="yes"/>
      <point x="420" y="-9"/>
      <point x="415" y="14"/>
    </contour>
    <contour>
      <point x="265" y="168" type="curve" smooth="yes"/>
      <point x="191" y="217"/>
      <point x="153" y="236"/>
      <point x="153" y="289" type="curve" smooth="yes"/>
      <point x="153" y="312"/>
      <point x="164" y="338"/>
      <point x="182" y="355" type="curve"/>
      <point x="206" y="334"/>
      <point x="236" y="315"/>
      <point x="269" y="294" type="curve" smooth="yes"/>
      <point x="343" y="245"/>
      <point x="381" y="226"/>
      <point x="381" y="173" type="curve" smooth="yes"/>
      <point x="381" y="150"/>
      <point x="370" y="123"/>
      <point x="352" y="107" type="curve"/>
      <point x="327" y="128"/>
      <point x="297" y="146"/>
    </contour>
  </outline>
</glyph>
<glyph name="dieresis" format="1">
  <advance width="500"/>
  <unicode hex="00A8"/>
  <outline>
    <contour>
      <point x="283" y="647" type="curve" smooth="yes"/>
      <point x="283" y="609"/>
      <point x="310" y="581"/>
      <point x="352" y="581" type="curve" smooth="yes"/>
      <point x="392" y="581"/>
      <point x="421" y="609"/>
      <point x="421" y="647" type="curve" smooth="yes"/>
      <point x="421" y="684"/>
      <point x="393" y="714"/>
      <point x="352" y="714" type="curve" smooth="yes"/>
      <point x="311" y="714"/>
      <point x="283" y="684"/>
    </contour>
    <contour>
      <point x="83" y="647" type="curve" smooth="yes"/>
      <point x="83" y="609"/>
      <point x="110" y="581"/>
      <point x="152" y="581" type="curve" smooth="yes"/>
      <point x="192" y="581"/>
      <point x="221" y="609"/>
      <point x="221" y="647" type="curve" smooth="yes"/>
      <point x="221" y="684"/>
      <point x="193" y="714"/>
      <point x="152" y="714" type="curve" smooth="yes"/>
      <point x="111" y="714"/>
      <point x="83" y="684"/>
    </contour>
  </outline>
</glyph>
<glyph name="copyright" format="1">
  <advance width="814"/>
  <unicode hex="00A9"/>
  <outline>
    <contour>
      <point x="753" y="332" type="curve" smooth="yes"/>
      <point x="753" y="521"/>
      <point x="609" y="676"/>
      <point x="402" y="676" type="curve" smooth="yes"/>
      <point x="201" y="676"/>
      <point x="60" y="521"/>
      <point x="60" y="326" type="curve" smooth="yes"/>
      <point x="60" y="124"/>
      <point x="190" y="-20"/>
      <point x="402" y="-20" type="curve" smooth="yes"/>
      <point x="608" y="-20"/>
      <point x="753" y="132"/>
    </contour>
    <contour>
      <point x="674" y="329" type="curve" smooth="yes"/>
      <point x="674" y="169"/>
      <point x="559" y="52"/>
      <point x="403" y="52" type="curve" smooth="yes"/>
      <point x="249" y="52"/>
      <point x="139" y="158"/>
      <point x="139" y="326" type="curve" smooth="yes"/>
      <point x="139" y="483"/>
      <point x="245" y="604"/>
      <point x="403" y="604" type="curve" smooth="yes"/>
      <point x="557" y="604"/>
      <point x="674" y="486"/>
    </contour>
    <contour>
      <point x="409" y="198" type="curve" smooth="yes"/>
      <point x="342" y="198"/>
      <point x="312" y="249"/>
      <point x="312" y="332" type="curve" smooth="yes"/>
      <point x="312" y="431"/>
      <point x="359" y="461"/>
      <point x="403" y="461" type="curve" smooth="yes"/>
      <point x="447" y="461"/>
      <point x="475" y="437"/>
      <point x="499" y="411" type="curve"/>
      <point x="555" y="455" type="line"/>
      <point x="519" y="504"/>
      <point x="467" y="530"/>
      <point x="405" y="530" type="curve" smooth="yes"/>
      <point x="333" y="530"/>
      <point x="232" y="486"/>
      <point x="232" y="331" type="curve" smooth="yes"/>
      <point x="232" y="209"/>
      <point x="289" y="130"/>
      <point x="407" y="130" type="curve" smooth="yes"/>
      <point x="470" y="130"/>
      <point x="517" y="157"/>
      <point x="545" y="186" type="curve"/>
      <point x="505" y="240" type="line"/>
      <point x="477" y="217"/>
      <point x="450" y="198"/>
    </contour>
  </outline>
</glyph>
<glyph name="ordfeminine" format="1">
  <advance width="414"/>
  <unicode hex="00AA"/>
  <outline>
    <contour>
      <point x="280" y="264" type="line"/>
      <point x="396" y="264" type="line"/>
      <point x="396" y="321" type="line"/>
      <point x="379" y="322" type="line" smooth="yes"/>
      <point x="363" y="323"/>
      <point x="358" y="327"/>
      <point x="358" y="342" type="curve" smooth="yes"/>
      <point x="358" y="586" type="line"/>
      <point x="309" y="604"/>
      <point x="256" y="610"/>
      <point x="230" y="610" type="curve" smooth="yes"/>
      <point x="113" y="610"/>
      <point x="48" y="535"/>
      <point x="48" y="419" type="curve" smooth="yes"/>
      <point x="48" y="334"/>
      <point x="85" y="256"/>
      <point x="183" y="256" type="curve" smooth="yes"/>
      <point x="227" y="256"/>
      <point x="255" y="276"/>
      <point x="276" y="302" type="curve"/>
      <point x="280" y="302" type="line"/>
    </contour>
    <contour>
      <point x="266" y="369" type="line" smooth="yes"/>
      <point x="266" y="350"/>
      <point x="243" y="324"/>
      <point x="206" y="324" type="curve" smooth="yes"/>
      <point x="158" y="324"/>
      <point x="140" y="366"/>
      <point x="140" y="429" type="curve" smooth="yes"/>
      <point x="140" y="490"/>
      <point x="163" y="541"/>
      <point x="220" y="541" type="curve" smooth="yes"/>
      <point x="238" y="541"/>
      <point x="255" y="537"/>
      <point x="266" y="533" type="curve"/>
    </contour>
  </outline>
</glyph>
<glyph name="guillemotleft" format="1">
  <advance width="530"/>
  <unicode hex="00AB"/>
  <outline>
    <contour>
      <point x="293" y="406" type="line"/>
      <point x="246" y="451" type="line"/>
      <point x="76" y="315" type="line" smooth="yes"/>
      <point x="56" y="299"/>
      <point x="47" y="283"/>
      <point x="47" y="264" type="curve" smooth="yes"/>
      <point x="47" y="250"/>
      <point x="52" y="234"/>
      <point x="65" y="222" type="curve" smooth="yes"/>
      <point x="239" y="61" type="line"/>
      <point x="286" y="103" type="line"/>
      <point x="173" y="263" type="line"/>
    </contour>
    <contour>
      <point x="497" y="406" type="line"/>
      <point x="450" y="451" type="line"/>
      <point x="280" y="315" type="line" smooth="yes"/>
      <point x="260" y="299"/>
      <point x="251" y="283"/>
      <point x="251" y="264" type="curve" smooth="yes"/>
      <point x="251" y="250"/>
      <point x="256" y="234"/>
      <point x="269" y="222" type="curve" smooth="yes"/>
      <point x="443" y="61" type="line"/>
      <point x="490" y="103" type="line"/>
      <point x="377" y="263" type="line"/>
    </contour>
  </outline>
</glyph>
<glyph name="logicalnot" format="1">
  <advance width="535"/>
  <unicode hex="00AC"/>
  <outline>
    <contour>
      <point x="385" y="171" type="line"/>
      <point x="481" y="171" type="line"/>
      <point x="481" y="412" type="line"/>
      <point x="52" y="412" type="line"/>
      <point x="52" y="315" type="line"/>
      <point x="385" y="315" type="line"/>
    </contour>
  </outline>
</glyph>
<glyph name="uni00AD" format="1">
  <advance width="322"/>
  <unicode hex="00AD"/>
  <outline>
    <contour>
      <point x="42" y="244" type="line"/>
      <point x="279" y="244" type="line"/>
      <point x="279" y="337" type="line"/>
      <point x="42" y="337" type="line"/>
    </contour>
  </outline>
</glyph>
<glyph name="registered" format="1">
  <advance width="463"/>
  <unicode hex="00AE"/>
  <outline>
    <contour>
      <point x="287" y="459" type="line" smooth="yes"/>
      <point x="285" y="464"/>
      <point x="281" y="471"/>
      <point x="274" y="474" type="curve"/>
      <point x="293" y="483"/>
      <point x="308" y="501"/>
      <point x="308" y="532" type="curve" smooth="yes"/>
      <point x="308" y="571"/>
      <point x="281" y="589"/>
      <point x="238" y="589" type="curve" smooth="yes"/>
      <point x="162" y="589" type="line"/>
      <point x="162" y="378" type="line"/>
      <point x="207" y="378" type="line"/>
      <point x="207" y="462" type="line"/>
      <point x="226" y="462" type="line" smooth="yes"/>
      <point x="234" y="462"/>
      <point x="238" y="457"/>
      <point x="242" y="448" type="curve" smooth="yes"/>
      <point x="273" y="378" type="line"/>
      <point x="323" y="378" type="line"/>
    </contour>
    <contour>
      <point x="207" y="498" type="line"/>
      <point x="207" y="553" type="line"/>
      <point x="223" y="553" type="line" smooth="yes"/>
      <point x="244" y="553"/>
      <point x="259" y="550"/>
      <point x="259" y="528" type="curve" smooth="yes"/>
      <point x="259" y="506"/>
      <point x="246" y="498"/>
      <point x="223" y="498" type="curve" smooth="yes"/>
    </contour>
    <contour>
      <point x="433" y="483" type="curve" smooth="yes"/>
      <point x="433" y="593"/>
      <point x="349" y="677"/>
      <point x="229" y="677" type="curve" smooth="yes"/>
      <point x="112" y="677"/>
      <point x="30" y="593"/>
      <point x="30" y="481" type="curve" smooth="yes"/>
      <point x="30" y="368"/>
      <point x="106" y="286"/>
      <point x="229" y="286" type="curve" smooth="yes"/>
      <point x="349" y="286"/>
      <point x="433" y="368"/>
    </contour>
    <contour>
      <point x="380" y="481" type="curve" smooth="yes"/>
      <point x="380" y="390"/>
      <point x="317" y="331"/>
      <point x="229" y="331" type="curve" smooth="yes"/>
      <point x="144" y="331"/>
      <point x="83" y="392"/>
      <point x="83" y="481" type="curve" smooth="yes"/>
      <point x="83" y="568"/>
      <point x="140" y="631"/>
      <point x="229" y="631" type="curve" smooth="yes"/>
      <point x="316" y="631"/>
      <point x="380" y="568"/>
    </contour>
  </outline>
</glyph>
<glyph name="macron" format="1">
  <advance width="500"/>
  <unicode hex="00AF"/>
  <outline>
    <contour>
      <point x="104" y="610" type="line"/>
      <point x="391" y="610" type="line"/>
      <point x="391" y="694" type="line"/>
      <point x="104" y="694" type="line"/>
    </contour>
  </outline>
</glyph>
<glyph name="degree" format="1">
  <advance width="298"/>
  <unicode hex="00B0"/>
  <outline>
    <contour>
      <point x="35" y="596" type="curve" smooth="yes"/>
      <point x="35" y="532"/>
      <point x="75" y="481"/>
      <point x="146" y="481" type="curve" smooth="yes"/>
      <point x="217" y="481"/>
      <point x="263" y="532"/>
      <point x="263" y="602" type="curve" smooth="yes"/>
      <point x="263" y="662"/>
      <point x="221" y="714"/>
      <point x="149" y="714" type="curve" smooth="yes"/>
      <point x="81" y="714"/>
      <point x="35" y="663"/>
    </contour>
    <contour>
      <point x="97" y="596" type="curve" smooth="yes"/>
      <point x="97" y="632"/>
      <point x="113" y="657"/>
      <point x="149" y="657" type="curve" smooth="yes"/>
      <point x="184" y="657"/>
      <point x="200" y="632"/>
      <point x="200" y="596" type="curve" smooth="yes"/>
      <point x="200" y="563"/>
      <point x="183" y="537"/>
      <point x="149" y="537" type="curve" smooth="yes"/>
      <point x="115" y="537"/>
      <point x="97" y="562"/>
    </contour>
  </outline>
</glyph>
<glyph name="plusminus" format="1">
  <advance width="535"/>
  <unicode hex="00B1"/>
  <outline>
    <contour>
      <point x="214" y="364" type="line"/>
      <point x="65" y="364" type="line"/>
      <point x="65" y="266" type="line"/>
      <point x="214" y="266" type="line"/>
      <point x="214" y="132" type="line"/>
      <point x="65" y="132" type="line"/>
      <point x="65" y="35" type="line"/>
      <point x="470" y="35" type="line"/>
      <point x="470" y="132" type="line"/>
      <point x="316" y="132" type="line"/>
      <point x="316" y="266" type="line"/>
      <point x="470" y="266" type="line"/>
      <point x="470" y="364" type="line"/>
      <point x="316" y="364" type="line"/>
      <point x="316" y="520" type="line"/>
      <point x="214" y="520" type="line"/>
    </contour>
  </outline>
</glyph>
<glyph name="twosuperior" format="1">
  <advance width="337"/>
  <unicode hex="00B2"/>
  <outline>
    <contour>
      <point x="173" y="737" type="curve" smooth="yes"/>
      <point x="118" y="737"/>
      <point x="68" y="723"/>
      <point x="23" y="700" type="curve"/>
      <point x="23" y="591" type="line"/>
      <point x="99" y="587" type="line"/>
      <point x="99" y="632" type="line" smooth="yes"/>
      <point x="99" y="646"/>
      <point x="99" y="652"/>
      <point x="113" y="658" type="curve" smooth="yes"/>
      <point x="122" y="662"/>
      <point x="134" y="665"/>
      <point x="156" y="665" type="curve" smooth="yes"/>
      <point x="183" y="665"/>
      <point x="203" y="651"/>
      <point x="203" y="623" type="curve" smooth="yes"/>
      <point x="203" y="595"/>
      <point x="184" y="573"/>
      <point x="159" y="543" type="curve" smooth="yes"/>
      <point x="35" y="399" type="line"/>
      <point x="35" y="341" type="line"/>
      <point x="310" y="341" type="line"/>
      <point x="310" y="416" type="line"/>
      <point x="152" y="416" type="line"/>
      <point x="241" y="517" type="line" smooth="yes"/>
      <point x="276" y="558"/>
      <point x="297" y="589"/>
      <point x="297" y="637" type="curve" smooth="yes"/>
      <point x="297" y="693"/>
      <point x="257" y="737"/>
    </contour>
  </outline>
</glyph>
<glyph name="threesuperior" format="1">
  <advance width="337"/>
  <unicode hex="00B3"/>
  <outline>
    <contour>
      <point x="98" y="571" type="line"/>
      <point x="92" y="505" type="line"/>
      <point x="124" y="505" type="line" smooth="yes"/>
      <point x="184" y="505"/>
      <point x="208" y="489"/>
      <point x="208" y="453" type="curve" smooth="yes"/>
      <point x="208" y="416"/>
      <point x="179" y="406"/>
      <point x="145" y="406" type="curve" smooth="yes"/>
      <point x="114" y="406"/>
      <point x="74" y="418"/>
      <point x="47" y="432" type="curve"/>
      <point x="24" y="367" type="line"/>
      <point x="48" y="352"/>
      <point x="100" y="336"/>
      <point x="149" y="336" type="curve" smooth="yes"/>
      <point x="248" y="336"/>
      <point x="295" y="389"/>
      <point x="295" y="459" type="curve" smooth="yes"/>
      <point x="295" y="491"/>
      <point x="283" y="528"/>
      <point x="231" y="544" type="curve"/>
      <point x="266" y="568"/>
      <point x="288" y="598"/>
      <point x="288" y="641" type="curve" smooth="yes"/>
      <point x="288" y="696"/>
      <point x="246" y="737"/>
      <point x="166" y="737" type="curve" smooth="yes"/>
      <point x="116" y="737"/>
      <point x="65" y="723"/>
      <point x="32" y="707" type="curve"/>
      <point x="32" y="612" type="line"/>
      <point x="102" y="607" type="line"/>
      <point x="102" y="640" type="line" smooth="yes"/>
      <point x="102" y="652"/>
      <point x="102" y="658"/>
      <point x="115" y="662" type="curve" smooth="yes"/>
      <point x="124" y="665"/>
      <point x="136" y="667"/>
      <point x="151" y="667" type="curve" smooth="yes"/>
      <point x="182" y="667"/>
      <point x="201" y="657"/>
      <point x="201" y="626" type="curve" smooth="yes"/>
      <point x="201" y="601"/>
      <point x="185" y="584"/>
      <point x="163" y="571" type="curve"/>
    </contour>
  </outline>
</glyph>
<glyph name="acute" format="1">
  <advance width="500"/>
  <unicode hex="00B4"/>
  <outline>
    <contour>
      <point x="148" y="594" type="line"/>
      <point x="187" y="561" type="line"/>
      <point x="315" y="685" type="line" smooth="yes"/>
      <point x="344" y="713"/>
      <point x="352" y="745"/>
      <point x="311" y="764" type="curve" smooth="yes"/>
      <point x="264" y="786" type="line"/>
    </contour>
  </outline>
</glyph>
<glyph name="mu" format="1">
  <advance width="584"/>
  <unicode hex="00B5"/>
  <outline>
    <contour>
      <point x="504" y="503" type="line"/>
      <point x="390" y="503" type="line"/>
      <point x="390" y="231" type="line" smooth="yes"/>
      <point x="390" y="135"/>
      <point x="353" y="70"/>
      <point x="283" y="70" type="curve" smooth="yes"/>
      <point x="208" y="70"/>
      <point x="186" y="128"/>
      <point x="186" y="214" type="curve" smooth="yes"/>
      <point x="186" y="503" type="line"/>
      <point x="74" y="503" type="line"/>
      <point x="74" y="-216" type="line"/>
      <point x="181" y="-216" type="line"/>
      <point x="181" y="35" type="line"/>
      <point x="203" y="2"/>
      <point x="243" y="-14"/>
      <point x="284" y="-14" type="curve" smooth="yes"/>
      <point x="342" y="-14"/>
      <point x="392" y="20"/>
      <point x="413" y="69" type="curve"/>
      <point x="416" y="14"/>
      <point x="440" y="-12"/>
      <point x="492" y="-12" type="curve" smooth="yes"/>
      <point x="520" y="-12"/>
      <point x="554" y="-4"/>
      <point x="583" y="12" type="curve"/>
      <point x="569" y="82" type="line"/>
      <point x="552" y="74"/>
      <point x="541" y="70"/>
      <point x="530" y="70" type="curve" smooth="yes"/>
      <point x="514" y="70"/>
      <point x="504" y="78"/>
      <point x="504" y="103" type="curve" smooth="yes"/>
    </contour>
  </outline>
</glyph>
<glyph name="paragraph" format="1">
  <advance width="549"/>
  <unicode hex="00B6"/>
  <outline>
    <contour>
      <point x="457" y="549" type="line" smooth="yes"/>
      <point x="457" y="573"/>
      <point x="469" y="579"/>
      <point x="486" y="581" type="curve" smooth="yes"/>
      <point x="519" y="584" type="line"/>
      <point x="519" y="665" type="line"/>
      <point x="292" y="665" type="line" smooth="yes"/>
      <point x="157" y="665"/>
      <point x="51" y="602"/>
      <point x="51" y="430" type="curve" smooth="yes"/>
      <point x="51" y="284"/>
      <point x="152" y="218"/>
      <point x="270" y="215" type="curve"/>
      <point x="270" y="579" type="line"/>
      <point x="342" y="579" type="line"/>
      <point x="342" y="62" type="line" smooth="yes"/>
      <point x="342" y="-32"/>
      <point x="306" y="-78"/>
      <point x="187" y="-107" type="curve"/>
      <point x="212" y="-205" type="line"/>
      <point x="409" y="-165"/>
      <point x="457" y="-87"/>
      <point x="457" y="81" type="curve" smooth="yes"/>
    </contour>
  </outline>
</glyph>
<glyph name="periodcentered" format="1">
  <advance width="309"/>
  <unicode hex="00B7"/>
  <outline>
    <contour>
      <point x="85" y="307" type="curve" smooth="yes"/>
      <point x="85" y="267"/>
      <point x="109" y="239"/>
      <point x="156" y="239" type="curve" smooth="yes"/>
      <point x="199" y="239"/>
      <point x="224" y="269"/>
      <point x="224" y="308" type="curve" smooth="yes"/>
      <point x="224" y="348"/>
      <point x="198" y="375"/>
      <point x="153" y="375" type="curve" smooth="yes"/>
      <point x="111" y="375"/>
      <point x="85" y="346"/>
    </contour>
  </outline>
</glyph>
<glyph name="cedilla" format="1">
  <advance width="500"/>
  <unicode hex="00B8"/>
  <outline>
    <contour>
      <point x="212" y="3" type="line"/>
      <point x="176" y="-110" type="line"/>
      <point x="229" y="-110"/>
      <point x="264" y="-117"/>
      <point x="264" y="-148" type="curve" smooth="yes"/>
      <point x="264" y="-168"/>
      <point x="251" y="-185"/>
      <point x="216" y="-185" type="curve" smooth="yes"/>
      <point x="193" y="-185"/>
      <point x="164" y="-177"/>
      <point x="149" y="-172" type="curve"/>
      <point x="133" y="-224" type="line"/>
      <point x="156" y="-234"/>
      <point x="190" y="-242"/>
      <point x="223" y="-242" type="curve" smooth="yes"/>
      <point x="278" y="-242"/>
      <point x="345" y="-218"/>
      <point x="345" y="-145" type="curve" smooth="yes"/>
      <point x="345" y="-94"/>
      <point x="305" y="-67"/>
      <point x="252" y="-63" type="curve"/>
      <point x="269" y="3" type="line"/>
    </contour>
  </outline>
</glyph>
<glyph name="onesuperior" format="1">
  <advance width="316"/>
  <unicode hex="00B9"/>
  <outline>
    <contour>
      <point x="61" y="407" type="line"/>
      <point x="61" y="341" type="line"/>
      <point x="294" y="341" type="line"/>
      <point x="294" y="408" type="line"/>
      <point x="224" y="411" type="line"/>
      <point x="224" y="731" type="line"/>
      <point x="151" y="731" type="line"/>
      <point x="26" y="660" type="line"/>
      <point x="55" y="603" type="line"/>
      <point x="136" y="639" type="line"/>
      <point x="136" y="427" type="line" smooth="yes"/>
      <point x="136" y="416"/>
      <point x="132" y="412"/>
      <point x="120" y="411" type="curve" smooth="yes"/>
    </contour>
  </outline>
</glyph>
<glyph name="ordmasculine" format="1">
  <advance width="406"/>
  <unicode hex="00BA"/>
  <outline>
    <contour>
      <point x="202" y="331" type="curve" smooth="yes"/>
      <point x="149" y="331"/>
      <point x="136" y="380"/>
      <point x="136" y="442" type="curve" smooth="yes"/>
      <point x="136" y="495"/>
      <point x="154" y="537"/>
      <point x="201" y="537" type="curve" smooth="yes"/>
      <point x="253" y="537"/>
      <point x="269" y="499"/>
      <point x="269" y="432" type="curve" smooth="yes"/>
      <point x="269" y="364"/>
      <point x="248" y="331"/>
    </contour>
    <contour>
      <point x="42" y="430" type="curve" smooth="yes"/>
      <point x="42" y="322"/>
      <point x="99" y="256"/>
      <point x="198" y="256" type="curve" smooth="yes"/>
      <point x="295" y="256"/>
      <point x="363" y="321"/>
      <point x="363" y="443" type="curve" smooth="yes"/>
      <point x="363" y="577"/>
      <point x="276" y="611"/>
      <point x="206" y="611" type="curve" smooth="yes"/>
      <point x="135" y="611"/>
      <point x="42" y="571"/>
    </contour>
  </outline>
</glyph>
<glyph name="guillemotright" format="1">
  <advance width="530"/>
  <unicode hex="00BB"/>
  <outline>
    <contour>
      <point x="154" y="263" type="line"/>
      <point x="41" y="105" type="line"/>
      <point x="88" y="63" type="line"/>
      <point x="260" y="221" type="line" smooth="yes"/>
      <point x="273" y="233"/>
      <point x="280" y="252"/>
      <point x="280" y="266" type="curve" smooth="yes"/>
      <point x="280" y="285"/>
      <point x="271" y="301"/>
      <point x="251" y="317" type="curve" smooth="yes"/>
      <point x="81" y="453" type="line"/>
      <point x="34" y="408" type="line"/>
    </contour>
    <contour>
      <point x="358" y="263" type="line"/>
      <point x="245" y="105" type="line"/>
      <point x="292" y="63" type="line"/>
      <point x="464" y="221" type="line" smooth="yes"/>
      <point x="477" y="233"/>
      <point x="484" y="252"/>
      <point x="484" y="266" type="curve" smooth="yes"/>
      <point x="484" y="285"/>
      <point x="475" y="301"/>
      <point x="455" y="317" type="curve" smooth="yes"/>
      <point x="285" y="453" type="line"/>
      <point x="238" y="408" type="line"/>
    </contour>
  </outline>
</glyph>
<glyph name="onequarter" format="1">
  <advance width="825"/>
  <unicode hex="00BC"/>
  <outline>
    <contour>
      <point x="62" y="327" type="line"/>
      <point x="62" y="261" type="line"/>
      <point x="295" y="261" type="line"/>
      <point x="295" y="328" type="line"/>
      <point x="225" y="331" type="line"/>
      <point x="225" y="651" type="line"/>
      <point x="152" y="651" type="line"/>
      <point x="27" y="580" type="line"/>
      <point x="56" y="523" type="line"/>
      <point x="137" y="559" type="line"/>
      <point x="137" y="347" type="line" smooth="yes"/>
      <point x="137" y="336"/>
      <point x="133" y="332"/>
      <point x="121" y="331" type="curve" smooth="yes"/>
    </contour>
    <contour>
      <point x="284" y="-41" type="line"/>
      <point x="610" y="653" type="line"/>
      <point x="532" y="686" type="line"/>
      <point x="208" y="-6" type="line"/>
    </contour>
    <contour>
      <point x="624" y="86" type="line" smooth="yes"/>
      <point x="624" y="75"/>
      <point x="620" y="71"/>
      <point x="608" y="70" type="curve" smooth="yes"/>
      <point x="549" y="66" type="line"/>
      <point x="549" y="0" type="line"/>
      <point x="782" y="0" type="line"/>
      <point x="782" y="67" type="line"/>
      <point x="711" y="70" type="line"/>
      <point x="711" y="111" type="line"/>
      <point x="772" y="111" type="line"/>
      <point x="772" y="182" type="line"/>
      <point x="711" y="182" type="line"/>
      <point x="711" y="258" type="line"/>
      <point x="658" y="258" type="line"/>
      <point x="629" y="182" type="line"/>
      <point x="561" y="182" type="line"/>
      <point x="653" y="371" type="line"/>
      <point x="584" y="403" type="line"/>
      <point x="472" y="171" type="line"/>
      <point x="472" y="113" type="line"/>
      <point x="624" y="113" type="line"/>
    </contour>
  </outline>
</glyph>
<glyph name="onehalf" format="1">
  <advance width="825"/>
  <unicode hex="00BD"/>
  <outline>
    <contour>
      <point x="64" y="327" type="line"/>
      <point x="64" y="261" type="line"/>
      <point x="297" y="261" type="line"/>
      <point x="297" y="328" type="line"/>
      <point x="227" y="331" type="line"/>
      <point x="227" y="651" type="line"/>
      <point x="154" y="651" type="line"/>
      <point x="29" y="580" type="line"/>
      <point x="58" y="523" type="line"/>
      <point x="139" y="559" type="line"/>
      <point x="139" y="347" type="line" smooth="yes"/>
      <point x="139" y="336"/>
      <point x="135" y="332"/>
      <point x="123" y="331" type="curve" smooth="yes"/>
    </contour>
    <contour>
      <point x="277" y="-41" type="line"/>
      <point x="603" y="653" type="line"/>
      <point x="525" y="686" type="line"/>
      <point x="201" y="-6" type="line"/>
    </contour>
    <contour>
      <point x="647" y="396" type="curve" smooth="yes"/>
      <point x="592" y="396"/>
      <point x="542" y="382"/>
      <point x="497" y="359" type="curve"/>
      <point x="497" y="250" type="line"/>
      <point x="573" y="246" type="line"/>
      <point x="573" y="291" type="line" smooth="yes"/>
      <point x="573" y="305"/>
      <point x="573" y="311"/>
      <point x="587" y="317" type="curve" smooth="yes"/>
      <point x="596" y="321"/>
      <point x="608" y="324"/>
      <point x="630" y="324" type="curve" smooth="yes"/>
      <point x="657" y="324"/>
      <point x="677" y="310"/>
      <point x="677" y="282" type="curve" smooth="yes"/>
      <point x="677" y="254"/>
      <point x="658" y="232"/>
      <point x="633" y="202" type="curve" smooth="yes"/>
      <point x="509" y="58" type="line"/>
      <point x="509" y="0" type="line"/>
      <point x="784" y="0" type="line"/>
      <point x="784" y="75" type="line"/>
      <point x="626" y="75" type="line"/>
      <point x="715" y="176" type="line" smooth="yes"/>
      <point x="750" y="217"/>
      <point x="771" y="248"/>
      <point x="771" y="296" type="curve" smooth="yes"/>
      <point x="771" y="352"/>
      <point x="731" y="396"/>
    </contour>
  </outline>
</glyph>
<glyph name="threequarters" format="1">
  <advance width="825"/>
  <unicode hex="00BE"/>
  <outline>
    <contour>
      <point x="124" y="491" type="line"/>
      <point x="118" y="425" type="line"/>
      <point x="150" y="425" type="line" smooth="yes"/>
      <point x="210" y="425"/>
      <point x="234" y="409"/>
      <point x="234" y="373" type="curve" smooth="yes"/>
      <point x="234" y="336"/>
      <point x="205" y="326"/>
      <point x="171" y="326" type="curve" smooth="yes"/>
      <point x="140" y="326"/>
      <point x="100" y="338"/>
      <point x="73" y="352" type="curve"/>
      <point x="50" y="287" type="line"/>
      <point x="74" y="272"/>
      <point x="126" y="256"/>
      <point x="175" y="256" type="curve" smooth="yes"/>
      <point x="274" y="256"/>
      <point x="321" y="309"/>
      <point x="321" y="379" type="curve" smooth="yes"/>
      <point x="321" y="411"/>
      <point x="309" y="448"/>
      <point x="257" y="464" type="curve"/>
      <point x="292" y="488"/>
      <point x="314" y="518"/>
      <point x="314" y="561" type="curve" smooth="yes"/>
      <point x="314" y="616"/>
      <point x="272" y="657"/>
      <point x="192" y="657" type="curve" smooth="yes"/>
      <point x="142" y="657"/>
      <point x="91" y="643"/>
      <point x="58" y="627" type="curve"/>
      <point x="58" y="532" type="line"/>
      <point x="128" y="527" type="line"/>
      <point x="128" y="560" type="line" smooth="yes"/>
      <point x="128" y="572"/>
      <point x="128" y="578"/>
      <point x="141" y="582" type="curve" smooth="yes"/>
      <point x="150" y="585"/>
      <point x="162" y="587"/>
      <point x="177" y="587" type="curve" smooth="yes"/>
      <point x="208" y="587"/>
      <point x="227" y="577"/>
      <point x="227" y="546" type="curve" smooth="yes"/>
      <point x="227" y="521"/>
      <point x="211" y="504"/>
      <point x="189" y="491" type="curve"/>
    </contour>
    <contour>
      <point x="294" y="-41" type="line"/>
      <point x="620" y="653" type="line"/>
      <point x="542" y="686" type="line"/>
      <point x="218" y="-6" type="line"/>
    </contour>
    <contour>
      <point x="635" y="86" type="line" smooth="yes"/>
      <point x="635" y="75"/>
      <point x="631" y="71"/>
      <point x="619" y="70" type="curve" smooth="yes"/>
      <point x="560" y="66" type="line"/>
      <point x="560" y="0" type="line"/>
      <point x="793" y="0" type="line"/>
      <point x="793" y="67" type="line"/>
      <point x="722" y="70" type="line"/>
      <point x="722" y="111" type="line"/>
      <point x="783" y="111" type="line"/>
      <point x="783" y="182" type="line"/>
      <point x="722" y="182" type="line"/>
      <point x="722" y="258" type="line"/>
      <point x="669" y="258" type="line"/>
      <point x="640" y="182" type="line"/>
      <point x="572" y="182" type="line"/>
      <point x="664" y="371" type="line"/>
      <point x="595" y="403" type="line"/>
      <point x="483" y="171" type="line"/>
      <point x="483" y="113" type="line"/>
      <point x="635" y="113" type="line"/>
    </contour>
  </outline>
</glyph>
<glyph name="questiondown" format="1">
  <advance width="433"/>
  <unicode hex="00BF"/>
  <outline>
    <contour>
      <point x="164" y="-37" type="curve" smooth="yes"/>
      <point x="164" y="19"/>
      <point x="198" y="36"/>
      <point x="234" y="63" type="curve" smooth="yes"/>
      <point x="292" y="107"/>
      <point x="318" y="140"/>
      <point x="314" y="216" type="curve" smooth="yes"/>
      <point x="309" y="321" type="line"/>
      <point x="213" y="321" type="line"/>
      <point x="208" y="211" type="line" smooth="yes"/>
      <point x="206" y="171"/>
      <point x="190" y="159"/>
      <point x="155" y="134" type="curve" smooth="yes"/>
      <point x="96" y="90"/>
      <point x="48" y="49"/>
      <point x="48" y="-43" type="curve" smooth="yes"/>
      <point x="48" y="-131"/>
      <point x="100" y="-194"/>
      <point x="221" y="-194" type="curve" smooth="yes"/>
      <point x="292" y="-194"/>
      <point x="353" y="-173"/>
      <point x="405" y="-148" type="curve"/>
      <point x="405" y="-11" type="line"/>
      <point x="303" y="-4" type="line"/>
      <point x="303" y="-57" type="line" smooth="yes"/>
      <point x="303" y="-76"/>
      <point x="301" y="-87"/>
      <point x="283" y="-92" type="curve" smooth="yes"/>
      <point x="263" y="-98"/>
      <point x="248" y="-100"/>
      <point x="233" y="-100" type="curve" smooth="yes"/>
      <point x="192" y="-100"/>
      <point x="164" y="-80"/>
    </contour>
    <contour>
      <point x="329" y="451" type="curve" smooth="yes"/>
      <point x="329" y="488"/>
      <point x="304" y="518"/>
      <point x="259" y="518" type="curve" smooth="yes"/>
      <point x="217" y="518"/>
      <point x="192" y="486"/>
      <point x="192" y="450" type="curve" smooth="yes"/>
      <point x="192" y="413"/>
      <point x="218" y="385"/>
      <point x="262" y="385" type="curve" smooth="yes"/>
      <point x="301" y="385"/>
      <point x="329" y="415"/>
    </contour>
  </outline>
</glyph>
<glyph name="Acircumflex" format="1">
  <advance width="662"/>
  <unicode hex="00C2"/>
  <outline>
    <contour>
      <point x="68" y="112" type="line" smooth="yes"/>
      <point x="61" y="93"/>
      <point x="55" y="86"/>
      <point x="38" y="84" type="curve" smooth="yes"/>
      <point x="5" y="81" type="line"/>
      <point x="5" y="0" type="line"/>
      <point x="236" y="0" type="line"/>
      <point x="236" y="85" type="line"/>
      <point x="176" y="88" type="line"/>
      <point x="206" y="176" type="line"/>
      <point x="440" y="176" type="line"/>
      <point x="461" y="114" type="line" smooth="yes"/>
      <point x="468" y="92"/>
      <point x="458" y="86"/>
      <point x="437" y="84" type="curve" smooth="yes"/>
      <point x="399" y="81" type="line"/>
      <point x="399" y="0" type="line"/>
      <point x="657" y="0" type="line"/>
      <point x="657" y="85" type="line"/>
      <point x="600" y="88" type="line"/>
      <point x="599" y="88" type="line"/>
      <point x="395" y="665" type="line"/>
      <point x="166" y="665" type="line"/>
      <point x="166" y="584" type="line"/>
      <point x="229" y="578" type="line"/>
    </contour>
    <contour>
      <point x="323" y="553" type="line"/>
      <point x="326" y="553" type="line"/>
      <point x="416" y="268" type="line"/>
      <point x="230" y="268" type="line"/>
    </contour>
    <contour>
      <point x="181" y="708" type="line"/>
      <point x="299" y="794" type="line"/>
      <point x="419" y="708" type="line"/>
      <point x="460" y="743" type="line"/>
      <point x="340" y="872" type="line" smooth="yes"/>
      <point x="315" y="898"/>
      <point x="286" y="900"/>
      <point x="258" y="870" type="curve" smooth="yes"/>
      <point x="140" y="742" type="line"/>
    </contour>
  </outline>
</glyph>
<glyph name="Atilde" format="1">
  <advance width="662"/>
  <unicode hex="00C3"/>
  <outline>
    <contour>
      <point x="68" y="112" type="line" smooth="yes"/>
      <point x="61" y="93"/>
      <point x="55" y="86"/>
      <point x="38" y="84" type="curve" smooth="yes"/>
      <point x="5" y="81" type="line"/>
      <point x="5" y="0" type="line"/>
      <point x="236" y="0" type="line"/>
      <point x="236" y="85" type="line"/>
      <point x="176" y="88" type="line"/>
      <point x="206" y="176" type="line"/>
      <point x="440" y="176" type="line"/>
      <point x="461" y="114" type="line" smooth="yes"/>
      <point x="468" y="92"/>
      <point x="458" y="86"/>
      <point x="437" y="84" type="curve" smooth="yes"/>
      <point x="399" y="81" type="line"/>
      <point x="399" y="0" type="line"/>
      <point x="657" y="0" type="line"/>
      <point x="657" y="85" type="line"/>
      <point x="600" y="88" type="line"/>
      <point x="599" y="88" type="line"/>
      <point x="395" y="665" type="line"/>
      <point x="166" y="665" type="line"/>
      <point x="166" y="584" type="line"/>
      <point x="229" y="578" type="line"/>
    </contour>
    <contour>
      <point x="323" y="553" type="line"/>
      <point x="326" y="553" type="line"/>
      <point x="416" y="268" type="line"/>
      <point x="230" y="268" type="line"/>
    </contour>
    <contour>
      <point x="184" y="728" type="line"/>
      <point x="205" y="752"/>
      <point x="215" y="757"/>
      <point x="242" y="757" type="curve" smooth="yes"/>
      <point x="275" y="757"/>
      <point x="326" y="730"/>
      <point x="367" y="730" type="curve" smooth="yes"/>
      <point x="415" y="730"/>
      <point x="447" y="757"/>
      <point x="470" y="817" type="curve"/>
      <point x="416" y="846" type="line"/>
      <point x="404" y="826"/>
      <point x="387" y="814"/>
      <point x="372" y="814" type="curve" smooth="yes"/>
      <point x="334" y="814"/>
      <point x="284" y="842"/>
      <point x="238" y="842" type="curve" smooth="yes"/>
      <point x="199" y="842"/>
      <point x="161" y="818"/>
      <point x="136" y="763" type="curve"/>
    </contour>
  </outline>
</glyph>
<glyph name="Aring" format="1">
  <advance width="662"/>
  <unicode hex="00C5"/>
  <outline>
    <contour>
      <point x="68" y="112" type="line" smooth="yes"/>
      <point x="61" y="93"/>
      <point x="55" y="86"/>
      <point x="38" y="84" type="curve" smooth="yes"/>
      <point x="5" y="81" type="line"/>
      <point x="5" y="0" type="line"/>
      <point x="236" y="0" type="line"/>
      <point x="236" y="85" type="line"/>
      <point x="176" y="88" type="line"/>
      <point x="206" y="176" type="line"/>
      <point x="440" y="176" type="line"/>
      <point x="461" y="114" type="line" smooth="yes"/>
      <point x="468" y="92"/>
      <point x="458" y="86"/>
      <point x="437" y="84" type="curve" smooth="yes"/>
      <point x="399" y="81" type="line"/>
      <point x="399" y="0" type="line"/>
      <point x="657" y="0" type="line"/>
      <point x="657" y="85" type="line"/>
      <point x="600" y="88" type="line"/>
      <point x="599" y="88" type="line"/>
      <point x="395" y="665" type="line"/>
      <point x="166" y="665" type="line"/>
      <point x="166" y="584" type="line"/>
      <point x="229" y="578" type="line"/>
    </contour>
    <contour>
      <point x="323" y="553" type="line"/>
      <point x="326" y="553" type="line"/>
      <point x="416" y="268" type="line"/>
      <point x="230" y="268" type="line"/>
    </contour>
    <contour>
      <point x="210" y="793" type="curve" smooth="yes"/>
      <point x="210" y="741"/>
      <point x="243" y="700"/>
      <point x="302" y="700" type="curve" smooth="yes"/>
      <point x="361" y="700"/>
      <point x="398" y="741"/>
      <point x="398" y="798" type="curve" smooth="yes"/>
      <point x="398" y="846"/>
      <point x="364" y="886"/>
      <point x="305" y="886" type="curve" smooth="yes"/>
      <point x="249" y="886"/>
      <point x="210" y="847"/>
    </contour>
    <contour>
      <point x="269" y="793" type="curve" smooth="yes"/>
      <point x="269" y="818"/>
      <point x="279" y="834"/>
      <point x="305" y="834" type="curve" smooth="yes"/>
      <point x="330" y="834"/>
      <point x="341" y="818"/>
      <point x="341" y="793" type="curve" smooth="yes"/>
      <point x="341" y="770"/>
      <point x="329" y="751"/>
      <point x="305" y="751" type="curve" smooth="yes"/>
      <point x="281" y="751"/>
      <point x="269" y="769"/>
    </contour>
  </outline>
</glyph>
<glyph name="AE" format="1">
  <advance width="854"/>
  <unicode hex="00C6"/>
  <outline>
    <contour>
      <point x="63" y="112" type="line" smooth="yes"/>
      <point x="56" y="93"/>
      <point x="50" y="86"/>
      <point x="33" y="84" type="curve" smooth="yes"/>
      <point x="0" y="81" type="line"/>
      <point x="0" y="0" type="line"/>
      <point x="231" y="0" type="line"/>
      <point x="231" y="85" type="line"/>
      <point x="171" y="88" type="line"/>
      <point x="201" y="176" type="line"/>
      <point x="435" y="176" type="line"/>
      <point x="456" y="114" type="line" smooth="yes"/>
      <point x="463" y="92"/>
      <point x="453" y="86"/>
      <point x="432" y="84" type="curve" smooth="yes"/>
      <point x="394" y="81" type="line"/>
      <point x="394" y="0" type="line"/>
      <point x="814" y="0" type="line"/>
      <point x="814" y="178" type="line"/>
      <point x="712" y="185" type="line"/>
      <point x="712" y="135" type="line" smooth="yes"/>
      <point x="712" y="115"/>
      <point x="710" y="103"/>
      <point x="684" y="103" type="curve" smooth="yes"/>
      <point x="589" y="103" type="line"/>
      <point x="523" y="290" type="line"/>
      <point x="754" y="290" type="line"/>
      <point x="754" y="392" type="line"/>
      <point x="505" y="392" type="line"/>
      <point x="446" y="563" type="line"/>
      <point x="671" y="563" type="line" smooth="yes"/>
      <point x="698" y="563"/>
      <point x="700" y="551"/>
      <point x="700" y="532" type="curve" smooth="yes"/>
      <point x="700" y="492" type="line"/>
      <point x="802" y="499" type="line"/>
      <point x="802" y="665" type="line"/>
      <point x="161" y="665" type="line"/>
      <point x="161" y="584" type="line"/>
      <point x="224" y="578" type="line"/>
    </contour>
    <contour>
      <point x="318" y="553" type="line"/>
      <point x="321" y="553" type="line"/>
      <point x="411" y="268" type="line"/>
      <point x="225" y="268" type="line"/>
    </contour>
  </outline>
</glyph>
<glyph name="Ccedilla" format="1">
  <advance width="602"/>
  <unicode hex="00C7"/>
  <outline>
    <contour>
      <point x="419" y="570" type="curve" smooth="yes"/>
      <point x="437" y="564"/>
      <point x="440" y="556"/>
      <point x="440" y="537" type="curve" smooth="yes"/>
      <point x="440" y="459" type="line"/>
      <point x="542" y="466" type="line"/>
      <point x="542" y="636" type="line"/>
      <point x="482" y="664"/>
      <point x="413" y="677"/>
      <point x="354" y="677" type="curve" smooth="yes"/>
      <point x="200" y="677"/>
      <point x="40" y="590"/>
      <point x="40" y="329" type="curve" smooth="yes"/>
      <point x="40" y="123"/>
      <point x="131" y="10"/>
      <point x="298" y="-9" type="curve"/>
      <point x="266" y="-110" type="line"/>
      <point x="319" y="-110"/>
      <point x="354" y="-117"/>
      <point x="354" y="-148" type="curve" smooth="yes"/>
      <point x="354" y="-168"/>
      <point x="341" y="-185"/>
      <point x="306" y="-185" type="curve" smooth="yes"/>
      <point x="283" y="-185"/>
      <point x="254" y="-177"/>
      <point x="239" y="-172" type="curve"/>
      <point x="223" y="-224" type="line"/>
      <point x="246" y="-234"/>
      <point x="280" y="-242"/>
      <point x="313" y="-242" type="curve" smooth="yes"/>
      <point x="368" y="-242"/>
      <point x="435" y="-218"/>
      <point x="435" y="-145" type="curve" smooth="yes"/>
      <point x="435" y="-94"/>
      <point x="395" y="-67"/>
      <point x="342" y="-63" type="curve"/>
      <point x="355" y="-13" type="line"/>
      <point x="419" y="-13"/>
      <point x="497" y="-1"/>
      <point x="552" y="28" type="curve"/>
      <point x="552" y="201" type="line"/>
      <point x="450" y="208" type="line"/>
      <point x="450" y="128" type="line" smooth="yes"/>
      <point x="450" y="109"/>
      <point x="447" y="101"/>
      <point x="429" y="95" type="curve" smooth="yes"/>
      <point x="410" y="89"/>
      <point x="384" y="86"/>
      <point x="356" y="86" type="curve" smooth="yes"/>
      <point x="217" y="83"/>
      <point x="165" y="180"/>
      <point x="165" y="337" type="curve" smooth="yes"/>
      <point x="165" y="488"/>
      <point x="228" y="578"/>
      <point x="354" y="578" type="curve" smooth="yes"/>
      <point x="374" y="578"/>
      <point x="400" y="576"/>
    </contour>
  </outline>
</glyph>
<glyph name="Edieresis" format="1">
  <advance width="549"/>
  <unicode hex="00CB"/>
  <outline>
    <contour>
      <point x="509" y="0" type="line"/>
      <point x="509" y="178" type="line"/>
      <point x="407" y="185" type="line"/>
      <point x="407" y="135" type="line" smooth="yes"/>
      <point x="407" y="115"/>
      <point x="405" y="103"/>
      <point x="379" y="103" type="curve" smooth="yes"/>
      <point x="218" y="103" type="line"/>
      <point x="218" y="290" type="line"/>
      <point x="449" y="290" type="line"/>
      <point x="449" y="392" type="line"/>
      <point x="218" y="392" type="line"/>
      <point x="218" y="563" type="line"/>
      <point x="366" y="563" type="line" smooth="yes"/>
      <point x="393" y="563"/>
      <point x="395" y="551"/>
      <point x="395" y="532" type="curve" smooth="yes"/>
      <point x="395" y="492" type="line"/>
      <point x="497" y="499" type="line"/>
      <point x="497" y="665" type="line"/>
      <point x="39" y="665" type="line"/>
      <point x="39" y="580" type="line"/>
      <point x="96" y="577" type="line"/>
      <point x="96" y="112" type="line" smooth="yes"/>
      <point x="96" y="92"/>
      <point x="84" y="86"/>
      <point x="67" y="84" type="curve" smooth="yes"/>
      <point x="34" y="81" type="line"/>
      <point x="34" y="0" type="line"/>
    </contour>
    <contour>
      <point x="307" y="787" type="curve" smooth="yes"/>
      <point x="307" y="749"/>
      <point x="334" y="721"/>
      <point x="376" y="721" type="curve" smooth="yes"/>
      <point x="416" y="721"/>
      <point x="445" y="749"/>
      <point x="445" y="787" type="curve" smooth="yes"/>
      <point x="445" y="824"/>
      <point x="417" y="854"/>
      <point x="376" y="854" type="curve" smooth="yes"/>
      <point x="335" y="854"/>
      <point x="307" y="824"/>
    </contour>
    <contour>
      <point x="107" y="787" type="curve" smooth="yes"/>
      <point x="107" y="749"/>
      <point x="134" y="721"/>
      <point x="176" y="721" type="curve" smooth="yes"/>
      <point x="216" y="721"/>
      <point x="245" y="749"/>
      <point x="245" y="787" type="curve" smooth="yes"/>
      <point x="245" y="824"/>
      <point x="217" y="854"/>
      <point x="176" y="854" type="curve" smooth="yes"/>
      <point x="135" y="854"/>
      <point x="107" y="824"/>
    </contour>
  </outline>
</glyph>
<glyph name="Igrave" format="1">
  <advance width="307"/>
  <unicode hex="00CC"/>
  <outline>
    <contour>
      <point x="94" y="117" type="line" smooth="yes"/>
      <point x="94" y="92"/>
      <point x="84" y="86"/>
      <point x="65" y="84" type="curve" smooth="yes"/>
      <point x="32" y="81" type="line"/>
      <point x="32" y="0" type="line"/>
      <point x="274" y="0" type="line"/>
      <point x="274" y="85" type="line"/>
      <point x="217" y="88" type="line"/>
      <point x="217" y="549" type="line" smooth="yes"/>
      <point x="217" y="573"/>
      <point x="229" y="579"/>
      <point x="246" y="581" type="curve" smooth="yes"/>
      <point x="279" y="584" type="line"/>
      <point x="279" y="665" type="line"/>
      <point x="37" y="665" type="line"/>
      <point x="37" y="580" type="line"/>
      <point x="94" y="577" type="line"/>
    </contour>
    <contour>
      <point x="86" y="907" type="line"/>
      <point x="46" y="874" type="line" smooth="yes"/>
      <point x="13" y="846"/>
      <point x="27" y="816"/>
      <point x="63" y="796" type="curve" smooth="yes"/>
      <point x="218" y="709" type="line"/>
      <point x="248" y="750" type="line"/>
    </contour>
  </outline>
</glyph>
<glyph name="Iacute" format="1">
  <advance width="307"/>
  <unicode hex="00CD"/>
  <outline>
    <contour>
      <point x="94" y="117" type="line" smooth="yes"/>
      <point x="94" y="92"/>
      <point x="84" y="86"/>
      <point x="65" y="84" type="curve" smooth="yes"/>
      <point x="32" y="81" type="line"/>
      <point x="32" y="0" type="line"/>
      <point x="274" y="0" type="line"/>
      <point x="274" y="85" type="line"/>
      <point x="217" y="88" type="line"/>
      <point x="217" y="549" type="line" smooth="yes"/>
      <point x="217" y="573"/>
      <point x="229" y="579"/>
      <point x="246" y="581" type="curve" smooth="yes"/>
      <point x="279" y="584" type="line"/>
      <point x="279" y="665" type="line"/>
      <point x="37" y="665" type="line"/>
      <point x="37" y="580" type="line"/>
      <point x="94" y="577" type="line"/>
    </contour>
    <contour>
      <point x="64" y="750" type="line"/>
      <point x="94" y="709" type="line"/>
      <point x="249" y="796" type="line" smooth="yes"/>
      <point x="285" y="816"/>
      <point x="298" y="847"/>
      <point x="266" y="874" type="curve" smooth="yes"/>
      <point x="226" y="907" type="line"/>
    </contour>
  </outline>
</glyph>
<glyph name="Icircumflex" format="1">
  <advance width="307"/>
  <unicode hex="00CE"/>
  <outline>
    <contour>
      <point x="94" y="117" type="line" smooth="yes"/>
      <point x="94" y="92"/>
      <point x="84" y="86"/>
      <point x="65" y="84" type="curve" smooth="yes"/>
      <point x="32" y="81" type="line"/>
      <point x="32" y="0" type="line"/>
      <point x="274" y="0" type="line"/>
      <point x="274" y="85" type="line"/>
      <point x="217" y="88" type="line"/>
      <point x="217" y="549" type="line" smooth="yes"/>
      <point x="217" y="573"/>
      <point x="229" y="579"/>
      <point x="246" y="581" type="curve" smooth="yes"/>
      <point x="279" y="584" type="line"/>
      <point x="279" y="665" type="line"/>
      <point x="37" y="665" type="line"/>
      <point x="37" y="580" type="line"/>
      <point x="94" y="577" type="line"/>
    </contour>
    <contour>
      <point x="38" y="708" type="line"/>
      <point x="156" y="794" type="line"/>
      <point x="276" y="708" type="line"/>
      <point x="317" y="743" type="line"/>
      <point x="197" y="872" type="line" smooth="yes"/>
      <point x="172" y="898"/>
      <point x="143" y="900"/>
      <point x="115" y="870" type="curve" smooth="yes"/>
      <point x="-3" y="742" type="line"/>
    </contour>
  </outline>
</glyph>
<glyph name="Idieresis" format="1">
  <advance width="307"/>
  <unicode hex="00CF"/>
  <outline>
    <contour>
      <point x="94" y="117" type="line" smooth="yes"/>
      <point x="94" y="92"/>
      <point x="84" y="86"/>
      <point x="65" y="84" type="curve" smooth="yes"/>
      <point x="32" y="81" type="line"/>
      <point x="32" y="0" type="line"/>
      <point x="274" y="0" type="line"/>
      <point x="274" y="85" type="line"/>
      <point x="217" y="88" type="line"/>
      <point x="217" y="549" type="line" smooth="yes"/>
      <point x="217" y="573"/>
      <point x="229" y="579"/>
      <point x="246" y="581" type="curve" smooth="yes"/>
      <point x="279" y="584" type="line"/>
      <point x="279" y="665" type="line"/>
      <point x="37" y="665" type="line"/>
      <point x="37" y="580" type="line"/>
      <point x="94" y="577" type="line"/>
    </contour>
    <contour>
      <point x="190" y="787" type="curve" smooth="yes"/>
      <point x="190" y="749"/>
      <point x="217" y="721"/>
      <point x="259" y="721" type="curve" smooth="yes"/>
      <point x="299" y="721"/>
      <point x="328" y="749"/>
      <point x="328" y="787" type="curve" smooth="yes"/>
      <point x="328" y="824"/>
      <point x="300" y="854"/>
      <point x="259" y="854" type="curve" smooth="yes"/>
      <point x="218" y="854"/>
      <point x="190" y="824"/>
    </contour>
    <contour>
      <point x="-10" y="787" type="curve" smooth="yes"/>
      <point x="-10" y="749"/>
      <point x="17" y="721"/>
      <point x="59" y="721" type="curve" smooth="yes"/>
      <point x="99" y="721"/>
      <point x="128" y="749"/>
      <point x="128" y="787" type="curve" smooth="yes"/>
      <point x="128" y="824"/>
      <point x="100" y="854"/>
      <point x="59" y="854" type="curve" smooth="yes"/>
      <point x="18" y="854"/>
      <point x="-10" y="824"/>
    </contour>
  </outline>
</glyph>
<glyph name="Eth" format="1">
  <advance width="679"/>
  <unicode hex="00D0"/>
  <outline>
    <contour>
      <point x="48" y="0" type="line"/>
      <point x="332" y="0" type="line" smooth="yes"/>
      <point x="493" y="0"/>
      <point x="639" y="94"/>
      <point x="639" y="356" type="curve" smooth="yes"/>
      <point x="639" y="564"/>
      <point x="518" y="665"/>
      <point x="327" y="665" type="curve" smooth="yes"/>
      <point x="53" y="665" type="line"/>
      <point x="53" y="580" type="line"/>
      <point x="110" y="577" type="line"/>
      <point x="110" y="380" type="line"/>
      <point x="36" y="380" type="line"/>
      <point x="36" y="290" type="line"/>
      <point x="110" y="290" type="line"/>
      <point x="110" y="112" type="line" smooth="yes"/>
      <point x="110" y="92"/>
      <point x="98" y="86"/>
      <point x="81" y="84" type="curve" smooth="yes"/>
      <point x="48" y="81" type="line"/>
    </contour>
    <contour>
      <point x="232" y="568" type="line"/>
      <point x="321" y="568" type="line" smooth="yes"/>
      <point x="429" y="568"/>
      <point x="516" y="518"/>
      <point x="516" y="338" type="curve" smooth="yes"/>
      <point x="516" y="178"/>
      <point x="446" y="96"/>
      <point x="334" y="96" type="curve" smooth="yes"/>
      <point x="232" y="96" type="line"/>
      <point x="232" y="290" type="line"/>
      <point x="401" y="290" type="line"/>
      <point x="401" y="380" type="line"/>
      <point x="232" y="380" type="line"/>
    </contour>
  </outline>
</glyph>
<glyph name="Ntilde" format="1">
  <advance width="705"/>
  <unicode hex="00D1"/>
  <outline>
    <contour>
      <point x="32" y="0" type="line"/>
      <point x="277" y="0" type="line"/>
      <point x="277" y="85" type="line"/>
      <point x="212" y="88" type="line"/>
      <point x="212" y="466" type="line"/>
      <point x="214" y="466" type="line"/>
      <point x="503" y="0" type="line"/>
      <point x="620" y="0" type="line"/>
      <point x="620" y="550" type="line" smooth="yes"/>
      <point x="620" y="571"/>
      <point x="629" y="580"/>
      <point x="644" y="581" type="curve" smooth="yes"/>
      <point x="680" y="584" type="line"/>
      <point x="680" y="665" type="line"/>
      <point x="436" y="665" type="line"/>
      <point x="436" y="580" type="line"/>
      <point x="502" y="577" type="line"/>
      <point x="502" y="206" type="line"/>
      <point x="500" y="206" type="line"/>
      <point x="217" y="665" type="line"/>
      <point x="37" y="665" type="line"/>
      <point x="37" y="580" type="line"/>
      <point x="94" y="577" type="line"/>
      <point x="94" y="112" type="line" smooth="yes"/>
      <point x="94" y="92"/>
      <point x="85" y="85"/>
      <point x="68" y="84" type="curve" smooth="yes"/>
      <point x="32" y="81" type="line"/>
    </contour>
    <contour>
      <point x="222" y="728" type="line"/>
      <point x="243" y="752"/>
      <point x="253" y="757"/>
      <point x="280" y="757" type="curve" smooth="yes"/>
      <point x="313" y="757"/>
      <point x="364" y="730"/>
      <point x="405" y="730" type="curve" smooth="yes"/>
      <point x="453" y="730"/>
      <point x="485" y="757"/>
      <point x="508" y="817" type="curve"/>
      <point x="454" y="846" type="line"/>
      <point x="442" y="826"/>
      <point x="425" y="814"/>
      <point x="410" y="814" type="curve" smooth="yes"/>
      <point x="372" y="814"/>
      <point x="322" y="842"/>
      <point x="276" y="842" type="curve" smooth="yes"/>
      <point x="237" y="842"/>
      <point x="199" y="818"/>
      <point x="174" y="763" type="curve"/>
    </contour>
  </outline>
</glyph>
<glyph name="Ograve" format="1">
  <advance width="664"/>
  <unicode hex="00D2"/>
  <outline>
    <contour>
      <point x="624" y="331" type="curve" smooth="yes"/>
      <point x="624" y="585"/>
      <point x="490" y="677"/>
      <point x="341" y="677" type="curve" smooth="yes"/>
      <point x="201" y="677"/>
      <point x="40" y="587"/>
      <point x="40" y="331" type="curve" smooth="yes"/>
      <point x="40" y="103"/>
      <point x="152" y="-13"/>
      <point x="330" y="-13" type="curve" smooth="yes"/>
      <point x="505" y="-13"/>
      <point x="624" y="102"/>
    </contour>
    <contour>
      <point x="165" y="336" type="curve" smooth="yes"/>
      <point x="165" y="455"/>
      <point x="207" y="574"/>
      <point x="335" y="574" type="curve" smooth="yes"/>
      <point x="473" y="574"/>
      <point x="500" y="430"/>
      <point x="500" y="328" type="curve" smooth="yes"/>
      <point x="500" y="208"/>
      <point x="464" y="88"/>
      <point x="337" y="88" type="curve" smooth="yes"/>
      <point x="193" y="88"/>
      <point x="165" y="222"/>
    </contour>
    <contour>
      <point x="282" y="907" type="line"/>
      <point x="242" y="874" type="line" smooth="yes"/>
      <point x="209" y="846"/>
      <point x="223" y="816"/>
      <point x="259" y="796" type="curve" smooth="yes"/>
      <point x="414" y="709" type="line"/>
      <point x="444" y="750" type="line"/>
    </contour>
  </outline>
</glyph>
<glyph name="Ocircumflex" format="1">
  <advance width="664"/>
  <unicode hex="00D4"/>
  <outline>
    <contour>
      <point x="624" y="331" type="curve" smooth="yes"/>
      <point x="624" y="585"/>
      <point x="490" y="677"/>
      <point x="341" y="677" type="curve" smooth="yes"/>
      <point x="201" y="677"/>
      <point x="40" y="587"/>
      <point x="40" y="331" type="curve" smooth="yes"/>
      <point x="40" y="103"/>
      <point x="152" y="-13"/>
      <point x="330" y="-13" type="curve" smooth="yes"/>
      <point x="505" y="-13"/>
      <point x="624" y="102"/>
    </contour>
    <contour>
      <point x="165" y="336" type="curve" smooth="yes"/>
      <point x="165" y="455"/>
      <point x="207" y="574"/>
      <point x="335" y="574" type="curve" smooth="yes"/>
      <point x="473" y="574"/>
      <point x="500" y="430"/>
      <point x="500" y="328" type="curve" smooth="yes"/>
      <point x="500" y="208"/>
      <point x="464" y="88"/>
      <point x="337" y="88" type="curve" smooth="yes"/>
      <point x="193" y="88"/>
      <point x="165" y="222"/>
    </contour>
    <contour>
      <point x="220" y="708" type="line"/>
      <point x="338" y="794" type="line"/>
      <point x="458" y="708" type="line"/>
      <point x="499" y="743" type="line"/>
      <point x="379" y="872" type="line" smooth="yes"/>
      <point x="354" y="898"/>
      <point x="325" y="900"/>
      <point x="297" y="870" type="curve" smooth="yes"/>
      <point x="179" y="742" type="line"/>
    </contour>
  </outline>
</glyph>
<glyph name="Otilde" format="1">
  <advance width="664"/>
  <unicode hex="00D5"/>
  <outline>
    <contour>
      <point x="624" y="331" type="curve" smooth="yes"/>
      <point x="624" y="585"/>
      <point x="490" y="677"/>
      <point x="341" y="677" type="curve" smooth="yes"/>
      <point x="201" y="677"/>
      <point x="40" y="587"/>
      <point x="40" y="331" type="curve" smooth="yes"/>
      <point x="40" y="103"/>
      <point x="152" y="-13"/>
      <point x="330" y="-13" type="curve" smooth="yes"/>
      <point x="505" y="-13"/>
      <point x="624" y="102"/>
    </contour>
    <contour>
      <point x="165" y="336" type="curve" smooth="yes"/>
      <point x="165" y="455"/>
      <point x="207" y="574"/>
      <point x="335" y="574" type="curve" smooth="yes"/>
      <point x="473" y="574"/>
      <point x="500" y="430"/>
      <point x="500" y="328" type="curve" smooth="yes"/>
      <point x="500" y="208"/>
      <point x="464" y="88"/>
      <point x="337" y="88" type="curve" smooth="yes"/>
      <point x="193" y="88"/>
      <point x="165" y="222"/>
    </contour>
    <contour>
      <point x="220" y="728" type="line"/>
      <point x="241" y="752"/>
      <point x="251" y="757"/>
      <point x="278" y="757" type="curve" smooth="yes"/>
      <point x="311" y="757"/>
      <point x="362" y="730"/>
      <point x="403" y="730" type="curve" smooth="yes"/>
      <point x="451" y="730"/>
      <point x="483" y="757"/>
      <point x="506" y="817" type="curve"/>
      <point x="452" y="846" type="line"/>
      <point x="440" y="826"/>
      <point x="423" y="814"/>
      <point x="408" y="814" type="curve" smooth="yes"/>
      <point x="370" y="814"/>
      <point x="320" y="842"/>
      <point x="274" y="842" type="curve" smooth="yes"/>
      <point x="235" y="842"/>
      <point x="197" y="818"/>
      <point x="172" y="763" type="curve"/>
    </contour>
  </outline>
</glyph>
<glyph name="Odieresis" format="1">
  <advance width="664"/>
  <unicode hex="00D6"/>
  <outline>
    <contour>
      <point x="624" y="331" type="curve" smooth="yes"/>
      <point x="624" y="585"/>
      <point x="490" y="677"/>
      <point x="341" y="677" type="curve" smooth="yes"/>
      <point x="201" y="677"/>
      <point x="40" y="587"/>
      <point x="40" y="331" type="curve" smooth="yes"/>
      <point x="40" y="103"/>
      <point x="152" y="-13"/>
      <point x="330" y="-13" type="curve" smooth="yes"/>
      <point x="505" y="-13"/>
      <point x="624" y="102"/>
    </contour>
    <contour>
      <point x="165" y="336" type="curve" smooth="yes"/>
      <point x="165" y="455"/>
      <point x="207" y="574"/>
      <point x="335" y="574" type="curve" smooth="yes"/>
      <point x="473" y="574"/>
      <point x="500" y="430"/>
      <point x="500" y="328" type="curve" smooth="yes"/>
      <point x="500" y="208"/>
      <point x="464" y="88"/>
      <point x="337" y="88" type="curve" smooth="yes"/>
      <point x="193" y="88"/>
      <point x="165" y="222"/>
    </contour>
    <contour>
      <point x="369" y="787" type="curve" smooth="yes"/>
      <point x="369" y="749"/>
      <point x="396" y="721"/>
      <point x="438" y="721" type="curve" smooth="yes"/>
      <point x="478" y="721"/>
      <point x="507" y="749"/>
      <point x="507" y="787" type="curve" smooth="yes"/>
      <point x="507" y="824"/>
      <point x="479" y="854"/>
      <point x="438" y="854" type="curve" smooth="yes"/>
      <point x="397" y="854"/>
      <point x="369" y="824"/>
    </contour>
    <contour>
      <point x="169" y="787" type="curve" smooth="yes"/>
      <point x="169" y="749"/>
      <point x="196" y="721"/>
      <point x="238" y="721" type="curve" smooth="yes"/>
      <point x="278" y="721"/>
      <point x="307" y="749"/>
      <point x="307" y="787" type="curve" smooth="yes"/>
      <point x="307" y="824"/>
      <point x="279" y="854"/>
      <point x="238" y="854" type="curve" smooth="yes"/>
      <point x="197" y="854"/>
      <point x="169" y="824"/>
    </contour>
  </outline>
</glyph>
<glyph name="multiply" format="1">
  <advance width="535"/>
  <unicode hex="00D7"/>
  <outline>
    <contour>
      <point x="197" y="314" type="line"/>
      <point x="83" y="200" type="line"/>
      <point x="153" y="131" type="line"/>
      <point x="266" y="244" type="line"/>
      <point x="379" y="131" type="line"/>
      <point x="451" y="203" type="line"/>
      <point x="338" y="316" type="line"/>
      <point x="450" y="429" type="line"/>
      <point x="381" y="498" type="line"/>
      <point x="269" y="386" type="line"/>
      <point x="155" y="500" type="line"/>
      <point x="83" y="428" type="line"/>
    </contour>
  </outline>
</glyph>
<glyph name="Oslash" format="1">
  <advance width="664"/>
  <unicode hex="00D8"/>
  <outline>
    <contour>
      <point x="624" y="331" type="curve" smooth="yes"/>
      <point x="624" y="465"/>
      <point x="586" y="554"/>
      <point x="528" y="608" type="curve"/>
      <point x="577" y="710" type="line"/>
      <point x="488" y="751" type="line"/>
      <point x="444" y="660" type="line"/>
      <point x="412" y="671"/>
      <point x="377" y="677"/>
      <point x="341" y="677" type="curve" smooth="yes"/>
      <point x="201" y="677"/>
      <point x="40" y="587"/>
      <point x="40" y="331" type="curve" smooth="yes"/>
      <point x="40" y="202"/>
      <point x="76" y="108"/>
      <point x="139" y="52" type="curve"/>
      <point x="86" y="-58" type="line"/>
      <point x="173" y="-100" type="line"/>
      <point x="223" y="3" type="line"/>
      <point x="255" y="-7"/>
      <point x="291" y="-13"/>
      <point x="330" y="-13" type="curve" smooth="yes"/>
      <point x="505" y="-13"/>
      <point x="624" y="102"/>
    </contour>
    <contour>
      <point x="165" y="336" type="curve" smooth="yes"/>
      <point x="165" y="455"/>
      <point x="207" y="574"/>
      <point x="335" y="574" type="curve" smooth="yes"/>
      <point x="356" y="574"/>
      <point x="374" y="570"/>
      <point x="391" y="564" type="curve"/>
      <point x="199" y="164" type="line"/>
      <point x="172" y="213"/>
      <point x="165" y="277"/>
    </contour>
    <contour>
      <point x="500" y="328" type="curve" smooth="yes"/>
      <point x="500" y="208"/>
      <point x="464" y="88"/>
      <point x="337" y="88" type="curve" smooth="yes"/>
      <point x="313" y="88"/>
      <point x="293" y="91"/>
      <point x="275" y="98" type="curve"/>
      <point x="466" y="495" type="line"/>
      <point x="492" y="445"/>
      <point x="500" y="381"/>
    </contour>
  </outline>
</glyph>
<glyph name="Uacute" format="1">
  <advance width="659"/>
  <unicode hex="00DA"/>
  <outline>
    <contour>
      <point x="201" y="548" type="line" smooth="yes"/>
      <point x="201" y="573"/>
      <point x="212" y="579"/>
      <point x="231" y="581" type="curve" smooth="yes"/>
      <point x="264" y="584" type="line"/>
      <point x="264" y="665" type="line"/>
      <point x="22" y="665" type="line"/>
      <point x="22" y="580" type="line"/>
      <point x="80" y="577" type="line"/>
      <point x="80" y="210" type="line" smooth="yes"/>
      <point x="80" y="53"/>
      <point x="164" y="-13"/>
      <point x="328" y="-13" type="curve" smooth="yes"/>
      <point x="480" y="-13"/>
      <point x="579" y="63"/>
      <point x="579" y="194" type="curve" smooth="yes"/>
      <point x="579" y="551" type="line" smooth="yes"/>
      <point x="579" y="571"/>
      <point x="590" y="579"/>
      <point x="608" y="581" type="curve" smooth="yes"/>
      <point x="641" y="584" type="line"/>
      <point x="641" y="665" type="line"/>
      <point x="404" y="665" type="line"/>
      <point x="404" y="580" type="line"/>
      <point x="462" y="577" type="line"/>
      <point x="462" y="211" type="line" smooth="yes"/>
      <point x="462" y="129"/>
      <point x="412" y="89"/>
      <point x="332" y="89" type="curve" smooth="yes"/>
      <point x="252" y="89"/>
      <point x="201" y="118"/>
      <point x="201" y="216" type="curve" smooth="yes"/>
    </contour>
    <contour>
      <point x="243" y="750" type="line"/>
      <point x="273" y="709" type="line"/>
      <point x="428" y="796" type="line" smooth="yes"/>
      <point x="464" y="816"/>
      <point x="477" y="847"/>
      <point x="445" y="874" type="curve" smooth="yes"/>
      <point x="405" y="907" type="line"/>
    </contour>
  </outline>
</glyph>
<glyph name="Udieresis" format="1">
  <advance width="659"/>
  <unicode hex="00DC"/>
  <outline>
    <contour>
      <point x="201" y="548" type="line" smooth="yes"/>
      <point x="201" y="573"/>
      <point x="212" y="579"/>
      <point x="231" y="581" type="curve" smooth="yes"/>
      <point x="264" y="584" type="line"/>
      <point x="264" y="665" type="line"/>
      <point x="22" y="665" type="line"/>
      <point x="22" y="580" type="line"/>
      <point x="80" y="577" type="line"/>
      <point x="80" y="210" type="line" smooth="yes"/>
      <point x="80" y="53"/>
      <point x="164" y="-13"/>
      <point x="328" y="-13" type="curve" smooth="yes"/>
      <point x="480" y="-13"/>
      <point x="579" y="63"/>
      <point x="579" y="194" type="curve" smooth="yes"/>
      <point x="579" y="551" type="line" smooth="yes"/>
      <point x="579" y="571"/>
      <point x="590" y="579"/>
      <point x="608" y="581" type="curve" smooth="yes"/>
      <point x="641" y="584" type="line"/>
      <point x="641" y="665" type="line"/>
      <point x="404" y="665" type="line"/>
      <point x="404" y="580" type="line"/>
      <point x="462" y="577" type="line"/>
      <point x="462" y="211" type="line" smooth="yes"/>
      <point x="462" y="129"/>
      <point x="412" y="89"/>
      <point x="332" y="89" type="curve" smooth="yes"/>
      <point x="252" y="89"/>
      <point x="201" y="118"/>
      <point x="201" y="216" type="curve" smooth="yes"/>
    </contour>
    <contour>
      <point x="369" y="787" type="curve" smooth="yes"/>
      <point x="369" y="749"/>
      <point x="396" y="721"/>
      <point x="438" y="721" type="curve" smooth="yes"/>
      <point x="478" y="721"/>
      <point x="507" y="749"/>
      <point x="507" y="787" type="curve" smooth="yes"/>
      <point x="507" y="824"/>
      <point x="479" y="854"/>
      <point x="438" y="854" type="curve" smooth="yes"/>
      <point x="397" y="854"/>
      <point x="369" y="824"/>
    </contour>
    <contour>
      <point x="169" y="787" type="curve" smooth="yes"/>
      <point x="169" y="749"/>
      <point x="196" y="721"/>
      <point x="238" y="721" type="curve" smooth="yes"/>
      <point x="278" y="721"/>
      <point x="307" y="749"/>
      <point x="307" y="787" type="curve" smooth="yes"/>
      <point x="307" y="824"/>
      <point x="279" y="854"/>
      <point x="238" y="854" type="curve" smooth="yes"/>
      <point x="197" y="854"/>
      <point x="169" y="824"/>
    </contour>
  </outline>
</glyph>
<glyph name="Yacute" format="1">
  <advance width="570"/>
  <unicode hex="00DD"/>
  <outline>
    <contour>
      <point x="222" y="112" type="line" smooth="yes"/>
      <point x="222" y="92"/>
      <point x="212" y="85"/>
      <point x="193" y="84" type="curve" smooth="yes"/>
      <point x="140" y="81" type="line"/>
      <point x="140" y="0" type="line"/>
      <point x="422" y="0" type="line"/>
      <point x="422" y="85" type="line"/>
      <point x="344" y="88" type="line"/>
      <point x="344" y="254" type="line"/>
      <point x="501" y="551" type="line" smooth="yes"/>
      <point x="511" y="569"/>
      <point x="519" y="579"/>
      <point x="535" y="581" type="curve" smooth="yes"/>
      <point x="565" y="584" type="line"/>
      <point x="565" y="665" type="line"/>
      <point x="350" y="665" type="line"/>
      <point x="350" y="580" type="line"/>
      <point x="400" y="576" type="line"/>
      <point x="291" y="368" type="line"/>
      <point x="287" y="368" type="line"/>
      <point x="202" y="542" type="line" smooth="yes"/>
      <point x="191" y="563"/>
      <point x="197" y="579"/>
      <point x="219" y="581" type="curve" smooth="yes"/>
      <point x="249" y="584" type="line"/>
      <point x="249" y="665" type="line"/>
      <point x="5" y="665" type="line"/>
      <point x="5" y="580" type="line"/>
      <point x="52" y="577" type="line"/>
      <point x="222" y="254" type="line"/>
    </contour>
    <contour>
      <point x="191" y="750" type="line"/>
      <point x="221" y="709" type="line"/>
      <point x="376" y="796" type="line" smooth="yes"/>
      <point x="412" y="816"/>
      <point x="425" y="847"/>
      <point x="393" y="874" type="curve" smooth="yes"/>
      <point x="353" y="907" type="line"/>
    </contour>
  </outline>
</glyph>
<glyph name="Thorn" format="1">
  <advance width="590"/>
  <unicode hex="00DE"/>
  <outline>
    <contour>
      <point x="216" y="227" type="line"/>
      <point x="216" y="445" type="line"/>
      <point x="277" y="445" type="line" smooth="yes"/>
      <point x="375" y="445"/>
      <point x="434" y="430"/>
      <point x="434" y="336" type="curve" smooth="yes"/>
      <point x="434" y="254"/>
      <point x="375" y="227"/>
      <point x="288" y="227" type="curve" smooth="yes"/>
    </contour>
    <contour>
      <point x="216" y="559" type="line" smooth="yes"/>
      <point x="216" y="579"/>
      <point x="229" y="586"/>
      <point x="245" y="587" type="curve" smooth="yes"/>
      <point x="309" y="590" type="line"/>
      <point x="309" y="665" type="line"/>
      <point x="32" y="665" type="line"/>
      <point x="32" y="583" type="line"/>
      <point x="94" y="579" type="line"/>
      <point x="94" y="109" type="line" smooth="yes"/>
      <point x="94" y="89"/>
      <point x="82" y="83"/>
      <point x="65" y="81" type="curve" smooth="yes"/>
      <point x="32" y="78" type="line"/>
      <point x="32" y="0" type="line"/>
      <point x="312" y="0" type="line"/>
      <point x="312" y="81" type="line"/>
      <point x="216" y="84" type="line"/>
      <point x="216" y="130" type="line"/>
      <point x="301" y="130" type="line" smooth="yes"/>
      <point x="452" y="130"/>
      <point x="560" y="203"/>
      <point x="560" y="348" type="curve" smooth="yes"/>
      <point x="560" y="475"/>
      <point x="470" y="542"/>
      <point x="323" y="542" type="curve" smooth="yes"/>
      <point x="216" y="542" type="line"/>
    </contour>
  </outline>
</glyph>
<glyph name="germandbls" format="1">
  <advance width="625"/>
  <unicode hex="00DF"/>
  <outline>
    <contour>
      <point x="90" y="112" type="line" smooth="yes"/>
      <point x="90" y="87"/>
      <point x="80" y="81"/>
      <point x="61" y="79" type="curve" smooth="yes"/>
      <point x="28" y="76" type="line"/>
      <point x="28" y="0" type="line"/>
      <point x="209" y="0" type="line"/>
      <point x="209" y="516" type="line" smooth="yes"/>
      <point x="209" y="587"/>
      <point x="248" y="623"/>
      <point x="324" y="623" type="curve" smooth="yes"/>
      <point x="390" y="623"/>
      <point x="433" y="602"/>
      <point x="433" y="556" type="curve" smooth="yes"/>
      <point x="433" y="483"/>
      <point x="304" y="450"/>
      <point x="304" y="350" type="curve" smooth="yes"/>
      <point x="304" y="228"/>
      <point x="477" y="234"/>
      <point x="477" y="139" type="curve" smooth="yes"/>
      <point x="477" y="96"/>
      <point x="449" y="74"/>
      <point x="413" y="73" type="curve" smooth="yes"/>
      <point x="394" y="73"/>
      <point x="379" y="75"/>
      <point x="364" y="81" type="curve" smooth="yes"/>
      <point x="346" y="88"/>
      <point x="345" y="97"/>
      <point x="345" y="116" type="curve" smooth="yes"/>
      <point x="345" y="164" type="line"/>
      <point x="255" y="157" type="line"/>
      <point x="255" y="18" type="line"/>
      <point x="312" y="-8"/>
      <point x="375" y="-13"/>
      <point x="415" y="-13" type="curve" smooth="yes"/>
      <point x="515" y="-13"/>
      <point x="595" y="40"/>
      <point x="595" y="146" type="curve" smooth="yes"/>
      <point x="595" y="289"/>
      <point x="415" y="298"/>
      <point x="415" y="370" type="curve" smooth="yes"/>
      <point x="415" y="431"/>
      <point x="546" y="465"/>
      <point x="546" y="568" type="curve" smooth="yes"/>
      <point x="546" y="647"/>
      <point x="483" y="713"/>
      <point x="330" y="713" type="curve" smooth="yes"/>
      <point x="137" y="713"/>
      <point x="90" y="616"/>
      <point x="90" y="510" type="curve" smooth="yes"/>
    </contour>
  </outline>
</glyph>
<glyph name="atilde" format="1">
  <advance width="567"/>
  <unicode hex="00E3"/>
  <outline>
    <contour>
      <point x="482" y="483" type="line"/>
      <point x="410" y="510"/>
      <point x="337" y="518"/>
      <point x="304" y="518" type="curve" smooth="yes"/>
      <point x="124" y="518"/>
      <point x="40" y="406"/>
      <point x="40" y="230" type="curve" smooth="yes"/>
      <point x="40" y="87"/>
      <point x="99" y="-13"/>
      <point x="240" y="-13" type="curve" smooth="yes"/>
      <point x="295" y="-13"/>
      <point x="346" y="14"/>
      <point x="377" y="59" type="curve"/>
      <point x="380" y="58" type="line"/>
      <point x="380" y="0" type="line"/>
      <point x="539" y="0" type="line"/>
      <point x="539" y="80" type="line"/>
      <point x="507" y="82" type="line" smooth="yes"/>
      <point x="488" y="83"/>
      <point x="482" y="89"/>
      <point x="482" y="111" type="curve" smooth="yes"/>
    </contour>
    <contour>
      <point x="366" y="159" type="line" smooth="yes"/>
      <point x="366" y="116"/>
      <point x="328" y="72"/>
      <point x="266" y="72" type="curve" smooth="yes"/>
      <point x="182" y="72"/>
      <point x="162" y="151"/>
      <point x="162" y="234" type="curve" smooth="yes"/>
      <point x="162" y="342"/>
      <point x="194" y="431"/>
      <point x="289" y="431" type="curve" smooth="yes"/>
      <point x="320" y="431"/>
      <point x="351" y="425"/>
      <point x="366" y="418" type="curve"/>
    </contour>
    <contour>
      <point x="175" y="596" type="line"/>
      <point x="196" y="620"/>
      <point x="206" y="625"/>
      <point x="233" y="625" type="curve" smooth="yes"/>
      <point x="266" y="625"/>
      <point x="317" y="598"/>
      <point x="358" y="598" type="curve" smooth="yes"/>
      <point x="406" y="598"/>
      <point x="438" y="625"/>
      <point x="461" y="685" type="curve"/>
      <point x="407" y="714" type="line"/>
      <point x="395" y="694"/>
      <point x="378" y="682"/>
      <point x="363" y="682" type="curve" smooth="yes"/>
      <point x="325" y="682"/>
      <point x="275" y="710"/>
      <point x="229" y="710" type="curve" smooth="yes"/>
      <point x="190" y="710"/>
      <point x="152" y="686"/>
      <point x="127" y="631" type="curve"/>
    </contour>
  </outline>
</glyph>
<glyph name="aring" format="1">
  <advance width="567"/>
  <unicode hex="00E5"/>
  <outline>
    <contour>
      <point x="482" y="483" type="line"/>
      <point x="410" y="510"/>
      <point x="337" y="518"/>
      <point x="304" y="518" type="curve" smooth="yes"/>
      <point x="124" y="518"/>
      <point x="40" y="406"/>
      <point x="40" y="230" type="curve" smooth="yes"/>
      <point x="40" y="87"/>
      <point x="99" y="-13"/>
      <point x="240" y="-13" type="curve" smooth="yes"/>
      <point x="295" y="-13"/>
      <point x="346" y="14"/>
      <point x="377" y="59" type="curve"/>
      <point x="380" y="58" type="line"/>
      <point x="380" y="0" type="line"/>
      <point x="539" y="0" type="line"/>
      <point x="539" y="80" type="line"/>
      <point x="507" y="82" type="line" smooth="yes"/>
      <point x="488" y="83"/>
      <point x="482" y="89"/>
      <point x="482" y="111" type="curve" smooth="yes"/>
    </contour>
    <contour>
      <point x="366" y="159" type="line" smooth="yes"/>
      <point x="366" y="116"/>
      <point x="328" y="72"/>
      <point x="266" y="72" type="curve" smooth="yes"/>
      <point x="182" y="72"/>
      <point x="162" y="151"/>
      <point x="162" y="234" type="curve" smooth="yes"/>
      <point x="162" y="342"/>
      <point x="194" y="431"/>
      <point x="289" y="431" type="curve" smooth="yes"/>
      <point x="320" y="431"/>
      <point x="351" y="425"/>
      <point x="366" y="418" type="curve"/>
    </contour>
    <contour>
      <point x="192" y="657" type="curve" smooth="yes"/>
      <point x="192" y="605"/>
      <point x="225" y="564"/>
      <point x="284" y="564" type="curve" smooth="yes"/>
      <point x="343" y="564"/>
      <point x="380" y="605"/>
      <point x="380" y="662" type="curve" smooth="yes"/>
      <point x="380" y="710"/>
      <point x="346" y="750"/>
      <point x="287" y="750" type="curve" smooth="yes"/>
      <point x="231" y="750"/>
      <point x="192" y="711"/>
    </contour>
    <contour>
      <point x="251" y="657" type="curve" smooth="yes"/>
      <point x="251" y="682"/>
      <point x="261" y="698"/>
      <point x="287" y="698" type="curve" smooth="yes"/>
      <point x="312" y="698"/>
      <point x="323" y="682"/>
      <point x="323" y="657" type="curve" smooth="yes"/>
      <point x="323" y="634"/>
      <point x="311" y="615"/>
      <point x="287" y="615" type="curve" smooth="yes"/>
      <point x="263" y="615"/>
      <point x="251" y="633"/>
    </contour>
  </outline>
</glyph>
<glyph name="ae" format="1">
  <advance width="765"/>
  <unicode hex="00E6"/>
  <outline>
    <contour>
      <point x="566" y="518" type="curve" smooth="yes"/>
      <point x="517" y="518"/>
      <point x="476" y="506"/>
      <point x="442" y="484" type="curve"/>
      <point x="397" y="506"/>
      <point x="340" y="518"/>
      <point x="299" y="518" type="curve" smooth="yes"/>
      <point x="130" y="518"/>
      <point x="40" y="408"/>
      <point x="40" y="233" type="curve" smooth="yes"/>
      <point x="40" y="98"/>
      <point x="90" y="-13"/>
      <point x="244" y="-13" type="curve" smooth="yes"/>
      <point x="307" y="-13"/>
      <point x="358" y="13"/>
      <point x="392" y="41" type="curve"/>
      <point x="426" y="7"/>
      <point x="480" y="-13"/>
      <point x="550" y="-13" type="curve" smooth="yes"/>
      <point x="646" y="-13"/>
      <point x="710" y="26"/>
      <point x="730" y="43" type="curve"/>
      <point x="692" y="124" type="line"/>
      <point x="667" y="107"/>
      <point x="623" y="79"/>
      <point x="567" y="79" type="curve" smooth="yes"/>
      <point x="486" y="79"/>
      <point x="447" y="127"/>
      <point x="443" y="198" type="curve"/>
      <point x="563" y="199"/>
      <point x="728" y="225"/>
      <point x="728" y="379" type="curve" smooth="yes"/>
      <point x="728" y="468"/>
      <point x="664" y="518"/>
    </contour>
    <contour>
      <point x="287" y="431" type="curve" smooth="yes"/>
      <point x="318" y="431"/>
      <point x="347" y="425"/>
      <point x="369" y="416" type="curve"/>
      <point x="339" y="372"/>
      <point x="318" y="305"/>
      <point x="318" y="241" type="curve" smooth="yes"/>
      <point x="318" y="188"/>
      <point x="327" y="140"/>
      <point x="344" y="104" type="curve"/>
      <point x="325" y="85"/>
      <point x="303" y="72"/>
      <point x="269" y="72" type="curve" smooth="yes"/>
      <point x="188" y="72"/>
      <point x="162" y="135"/>
      <point x="162" y="244" type="curve" smooth="yes"/>
      <point x="162" y="343"/>
      <point x="198" y="431"/>
    </contour>
    <contour>
      <point x="618" y="375" type="curve" smooth="yes"/>
      <point x="618" y="298"/>
      <point x="493" y="280"/>
      <point x="439" y="281" type="curve"/>
      <point x="442" y="355"/>
      <point x="479" y="433"/>
      <point x="559" y="433" type="curve" smooth="yes"/>
      <point x="595" y="433"/>
      <point x="618" y="412"/>
    </contour>
  </outline>
</glyph>
<glyph name="ccedilla" format="1">
  <advance width="471"/>
  <unicode hex="00E7"/>
  <outline>
    <contour>
      <point x="283" y="78" type="curve" smooth="yes"/>
      <point x="194" y="78"/>
      <point x="154" y="148"/>
      <point x="154" y="257" type="curve" smooth="yes"/>
      <point x="154" y="368"/>
      <point x="195" y="428"/>
      <point x="275" y="428" type="curve" smooth="yes"/>
      <point x="290" y="428"/>
      <point x="302" y="426"/>
      <point x="314" y="422" type="curve" smooth="yes"/>
      <point x="332" y="416"/>
      <point x="335" y="407"/>
      <point x="335" y="388" type="curve" smooth="yes"/>
      <point x="335" y="340" type="line"/>
      <point x="427" y="347" type="line"/>
      <point x="427" y="477" type="line"/>
      <point x="379" y="503"/>
      <point x="331" y="518"/>
      <point x="271" y="518" type="curve" smooth="yes"/>
      <point x="158" y="518"/>
      <point x="33" y="448"/>
      <point x="33" y="245" type="curve" smooth="yes"/>
      <point x="33" y="94"/>
      <point x="104" y="4"/>
      <point x="227" y="-11" type="curve"/>
      <point x="196" y="-110" type="line"/>
      <point x="249" y="-110"/>
      <point x="284" y="-117"/>
      <point x="284" y="-148" type="curve" smooth="yes"/>
      <point x="284" y="-168"/>
      <point x="271" y="-185"/>
      <point x="236" y="-185" type="curve" smooth="yes"/>
      <point x="213" y="-185"/>
      <point x="184" y="-177"/>
      <point x="169" y="-172" type="curve"/>
      <point x="153" y="-224" type="line"/>
      <point x="176" y="-234"/>
      <point x="210" y="-242"/>
      <point x="243" y="-242" type="curve" smooth="yes"/>
      <point x="298" y="-242"/>
      <point x="365" y="-218"/>
      <point x="365" y="-145" type="curve" smooth="yes"/>
      <point x="365" y="-94"/>
      <point x="325" y="-67"/>
      <point x="272" y="-63" type="curve"/>
      <point x="284" y="-13" type="line"/>
      <point x="350" y="-10"/>
      <point x="405" y="14"/>
      <point x="441" y="44" type="curve"/>
      <point x="398" y="121" type="line"/>
      <point x="357" y="91"/>
      <point x="322" y="78"/>
    </contour>
  </outline>
</glyph>
<glyph name="edieresis" format="1">
  <advance width="484"/>
  <unicode hex="00EB"/>
  <outline>
    <contour>
      <point x="284" y="518" type="curve" smooth="yes"/>
      <point x="382" y="518"/>
      <point x="447" y="468"/>
      <point x="447" y="379" type="curve" smooth="yes"/>
      <point x="447" y="225"/>
      <point x="280" y="199"/>
      <point x="162" y="198" type="curve"/>
      <point x="166" y="133"/>
      <point x="200" y="80"/>
      <point x="285" y="80" type="curve" smooth="yes"/>
      <point x="344" y="80"/>
      <point x="387" y="107"/>
      <point x="411" y="124" type="curve"/>
      <point x="449" y="43" type="line"/>
      <point x="433" y="29"/>
      <point x="367" y="-13"/>
      <point x="273" y="-13" type="curve" smooth="yes"/>
      <point x="103" y="-13"/>
      <point x="37" y="91"/>
      <point x="37" y="240" type="curve" smooth="yes"/>
      <point x="37" y="388"/>
      <point x="120" y="518"/>
    </contour>
    <contour>
      <point x="337" y="377" type="curve" smooth="yes"/>
      <point x="337" y="414"/>
      <point x="313" y="433"/>
      <point x="277" y="433" type="curve" smooth="yes"/>
      <point x="197" y="433"/>
      <point x="161" y="356"/>
      <point x="158" y="282" type="curve"/>
      <point x="232" y="283"/>
      <point x="337" y="300"/>
    </contour>
    <contour>
      <point x="291" y="647" type="curve" smooth="yes"/>
      <point x="291" y="609"/>
      <point x="318" y="581"/>
      <point x="360" y="581" type="curve" smooth="yes"/>
      <point x="400" y="581"/>
      <point x="429" y="609"/>
      <point x="429" y="647" type="curve" smooth="yes"/>
      <point x="429" y="684"/>
      <point x="401" y="714"/>
      <point x="360" y="714" type="curve" smooth="yes"/>
      <point x="319" y="714"/>
      <point x="291" y="684"/>
    </contour>
    <contour>
      <point x="91" y="647" type="curve" smooth="yes"/>
      <point x="91" y="609"/>
      <point x="118" y="581"/>
      <point x="160" y="581" type="curve" smooth="yes"/>
      <point x="200" y="581"/>
      <point x="229" y="609"/>
      <point x="229" y="647" type="curve" smooth="yes"/>
      <point x="229" y="684"/>
      <point x="201" y="714"/>
      <point x="160" y="714" type="curve" smooth="yes"/>
      <point x="119" y="714"/>
      <point x="91" y="684"/>
    </contour>
  </outline>
</glyph>
<glyph name="iacute" format="1">
  <advance width="296"/>
  <unicode hex="00ED"/>
  <outline>
    <contour>
      <point x="214" y="503" type="line"/>
      <point x="35" y="503" type="line"/>
      <point x="35" y="420" type="line"/>
      <point x="70" y="418" type="line"/>
      <point x="89" y="418"/>
      <point x="95" y="411"/>
      <point x="95" y="389" type="curve" smooth="yes"/>
      <point x="95" y="111" type="line" smooth="yes"/>
      <point x="95" y="87"/>
      <point x="84" y="81"/>
      <point x="66" y="79" type="curve" smooth="yes"/>
      <point x="33" y="76" type="line"/>
      <point x="33" y="0" type="line"/>
      <point x="271" y="0" type="line"/>
      <point x="271" y="80" type="line"/>
      <point x="214" y="83" type="line"/>
    </contour>
    <contour>
      <point x="82" y="594" type="line"/>
      <point x="121" y="561" type="line"/>
      <point x="249" y="685" type="line" smooth="yes"/>
      <point x="278" y="713"/>
      <point x="286" y="745"/>
      <point x="245" y="764" type="curve" smooth="yes"/>
      <point x="198" y="786" type="line"/>
    </contour>
  </outline>
</glyph>
<glyph name="idieresis" format="1">
  <advance width="296"/>
  <unicode hex="00EF"/>
  <outline>
    <contour>
      <point x="214" y="503" type="line"/>
      <point x="35" y="503" type="line"/>
      <point x="35" y="420" type="line"/>
      <point x="70" y="418" type="line"/>
      <point x="89" y="418"/>
      <point x="95" y="411"/>
      <point x="95" y="389" type="curve" smooth="yes"/>
      <point x="95" y="111" type="line" smooth="yes"/>
      <point x="95" y="87"/>
      <point x="84" y="81"/>
      <point x="66" y="79" type="curve" smooth="yes"/>
      <point x="33" y="76" type="line"/>
      <point x="33" y="0" type="line"/>
      <point x="271" y="0" type="line"/>
      <point x="271" y="80" type="line"/>
      <point x="214" y="83" type="line"/>
    </contour>
    <contour>
      <point x="156" y="647" type="curve" smooth="yes"/>
      <point x="156" y="609"/>
      <point x="183" y="581"/>
      <point x="225" y="581" type="curve" smooth="yes"/>
      <point x="265" y="581"/>
      <point x="294" y="609"/>
      <point x="294" y="647" type="curve" smooth="yes"/>
      <point x="294" y="684"/>
      <point x="266" y="714"/>
      <point x="225" y="714" type="curve" smooth="yes"/>
      <point x="184" y="714"/>
      <point x="156" y="684"/>
    </contour>
    <contour>
      <point x="-44" y="647" type="curve" smooth="yes"/>
      <point x="-44" y="609"/>
      <point x="-17" y="581"/>
      <point x="25" y="581" type="curve" smooth="yes"/>
      <point x="65" y="581"/>
      <point x="94" y="609"/>
      <point x="94" y="647" type="curve" smooth="yes"/>
      <point x="94" y="684"/>
      <point x="66" y="714"/>
      <point x="25" y="714" type="curve" smooth="yes"/>
      <point x="-16" y="714"/>
      <point x="-44" y="684"/>
    </contour>
  </outline>
</glyph>
<glyph name="eth" format="1">
  <advance width="512"/>
  <unicode hex="00F0"/>
  <outline>
    <contour>
      <point x="202" y="477" type="line"/>
      <point x="285" y="534" type="line"/>
      <point x="319" y="494"/>
      <point x="335" y="458"/>
      <point x="347" y="413" type="curve"/>
      <point x="309" y="438"/>
      <point x="267" y="445"/>
      <point x="233" y="445" type="curve" smooth="yes"/>
      <point x="105" y="445"/>
      <point x="30" y="344"/>
      <point x="30" y="209" type="curve" smooth="yes"/>
      <point x="30" y="82"/>
      <point x="91" y="-14"/>
      <point x="243" y="-14" type="curve" smooth="yes"/>
      <point x="414" y="-14"/>
      <point x="478" y="114"/>
      <point x="478" y="276" type="curve" smooth="yes"/>
      <point x="478" y="384"/>
      <point x="456" y="501"/>
      <point x="379" y="597" type="curve"/>
      <point x="446" y="644" type="line"/>
      <point x="401" y="709" type="line"/>
      <point x="317" y="652" type="line"/>
      <point x="272" y="685"/>
      <point x="216" y="708"/>
      <point x="146" y="717" type="curve"/>
      <point x="122" y="624" type="line"/>
      <point x="160" y="617"/>
      <point x="194" y="604"/>
      <point x="222" y="587" type="curve"/>
      <point x="156" y="542" type="line"/>
    </contour>
    <contour>
      <point x="153" y="213" type="curve" smooth="yes"/>
      <point x="153" y="302"/>
      <point x="185" y="353"/>
      <point x="250" y="353" type="curve" smooth="yes"/>
      <point x="287" y="353"/>
      <point x="331" y="335"/>
      <point x="354" y="316" type="curve"/>
      <point x="355" y="302"/>
      <point x="355" y="274"/>
      <point x="355" y="261" type="curve" smooth="yes"/>
      <point x="355" y="159"/>
      <point x="323" y="81"/>
      <point x="248" y="81" type="curve" smooth="yes"/>
      <point x="186" y="81"/>
      <point x="153" y="129"/>
    </contour>
  </outline>
</glyph>
<glyph name="oacute" format="1">
  <advance width="528"/>
  <unicode hex="00F3"/>
  <outline>
    <contour>
      <point x="263" y="73" type="curve" smooth="yes"/>
      <point x="167" y="73"/>
      <point x="154" y="173"/>
      <point x="154" y="266" type="curve" smooth="yes"/>
      <point x="154" y="362"/>
      <point x="186" y="430"/>
      <point x="265" y="430" type="curve" smooth="yes"/>
      <point x="345" y="430"/>
      <point x="372" y="361"/>
      <point x="372" y="249" type="curve" smooth="yes"/>
      <point x="372" y="145"/>
      <point x="341" y="73"/>
    </contour>
    <contour>
      <point x="33" y="252" type="curve" smooth="yes"/>
      <point x="33" y="71"/>
      <point x="121" y="-15"/>
      <point x="255" y="-15" type="curve" smooth="yes"/>
      <point x="387" y="-15"/>
      <point x="494" y="73"/>
      <point x="494" y="265" type="curve" smooth="yes"/>
      <point x="494" y="495"/>
      <point x="345" y="518"/>
      <point x="271" y="518" type="curve" smooth="yes"/>
      <point x="168" y="518"/>
      <point x="33" y="460"/>
    </contour>
    <contour>
      <point x="186" y="594" type="line"/>
      <point x="225" y="561" type="line"/>
      <point x="353" y="685" type="line" smooth="yes"/>
      <point x="382" y="713"/>
      <point x="390" y="745"/>
      <point x="349" y="764" type="curve" smooth="yes"/>
      <point x="302" y="786" type="line"/>
    </contour>
  </outline>
</glyph>
<glyph name="otilde" format="1">
  <advance width="528"/>
  <unicode hex="00F5"/>
  <outline>
    <contour>
      <point x="263" y="73" type="curve" smooth="yes"/>
      <point x="167" y="73"/>
      <point x="154" y="173"/>
      <point x="154" y="266" type="curve" smooth="yes"/>
      <point x="154" y="362"/>
      <point x="186" y="430"/>
      <point x="265" y="430" type="curve" smooth="yes"/>
      <point x="345" y="430"/>
      <point x="372" y="361"/>
      <point x="372" y="249" type="curve" smooth="yes"/>
      <point x="372" y="145"/>
      <point x="341" y="73"/>
    </contour>
    <contour>
      <point x="33" y="252" type="curve" smooth="yes"/>
      <point x="33" y="71"/>
      <point x="121" y="-15"/>
      <point x="255" y="-15" type="curve" smooth="yes"/>
      <point x="387" y="-15"/>
      <point x="494" y="73"/>
      <point x="494" y="265" type="curve" smooth="yes"/>
      <point x="494" y="495"/>
      <point x="345" y="518"/>
      <point x="271" y="518" type="curve" smooth="yes"/>
      <point x="168" y="518"/>
      <point x="33" y="460"/>
    </contour>
    <contour>
      <point x="147" y="596" type="line"/>
      <point x="168" y="620"/>
      <point x="178" y="625"/>
      <point x="205" y="625" type="curve" smooth="yes"/>
      <point x="238" y="625"/>
      <point x="289" y="598"/>
      <point x="330" y="598" type="curve" smooth="yes"/>
      <point x="378" y="598"/>
      <point x="410" y="625"/>
      <point x="433" y="685" type="curve"/>
      <point x="379" y="714" type="line"/>
      <point x="367" y="694"/>
      <point x="350" y="682"/>
      <point x="335" y="682" type="curve" smooth="yes"/>
      <point x="297" y="682"/>
      <point x="247" y="710"/>
      <point x="201" y="710" type="curve" smooth="yes"/>
      <point x="162" y="710"/>
      <point x="124" y="686"/>
      <point x="99" y="631" type="curve"/>
    </contour>
  </outline>
</glyph>
<glyph name="divide" format="1">
  <advance width="535"/>
  <unicode hex="00F7"/>
  <outline>
    <contour>
      <point x="204" y="128" type="curve" smooth="yes"/>
      <point x="204" y="87"/>
      <point x="227" y="60"/>
      <point x="269" y="60" type="curve" smooth="yes"/>
      <point x="308" y="60"/>
      <point x="334" y="90"/>
      <point x="334" y="129" type="curve" smooth="yes"/>
      <point x="334" y="168"/>
      <point x="309" y="195"/>
      <point x="268" y="195" type="curve" smooth="yes"/>
      <point x="228" y="195"/>
      <point x="204" y="164"/>
    </contour>
    <contour>
      <point x="204" y="505" type="curve" smooth="yes"/>
      <point x="204" y="464"/>
      <point x="227" y="437"/>
      <point x="269" y="437" type="curve" smooth="yes"/>
      <point x="308" y="437"/>
      <point x="334" y="467"/>
      <point x="334" y="506" type="curve" smooth="yes"/>
      <point x="334" y="545"/>
      <point x="309" y="572"/>
      <point x="268" y="572" type="curve" smooth="yes"/>
      <point x="228" y="572"/>
      <point x="204" y="541"/>
    </contour>
    <contour>
      <point x="470" y="362" type="line"/>
      <point x="65" y="362" type="line"/>
      <point x="65" y="266" type="line"/>
      <point x="470" y="266" type="line"/>
    </contour>
  </outline>
</glyph>
<glyph name="oslash" format="1">
  <advance width="528"/>
  <unicode hex="00F8"/>
  <outline>
    <contour>
      <point x="137" y="-84" type="line"/>
      <point x="177" y="-3" type="line"/>
      <point x="201" y="-11"/>
      <point x="228" y="-15"/>
      <point x="257" y="-15" type="curve" smooth="yes"/>
      <point x="389" y="-15"/>
      <point x="496" y="73"/>
      <point x="496" y="265" type="curve" smooth="yes"/>
      <point x="496" y="370"/>
      <point x="464" y="432"/>
      <point x="423" y="468" type="curve"/>
      <point x="463" y="548" type="line"/>
      <point x="390" y="583" type="line"/>
      <point x="352" y="507" type="line"/>
      <point x="323" y="516"/>
      <point x="295" y="518"/>
      <point x="273" y="518" type="curve" smooth="yes"/>
      <point x="170" y="518"/>
      <point x="35" y="460"/>
      <point x="35" y="252" type="curve" smooth="yes"/>
      <point x="35" y="153"/>
      <point x="61" y="82"/>
      <point x="107" y="38" type="curve"/>
      <point x="65" y="-48" type="line"/>
    </contour>
    <contour>
      <point x="265" y="73" type="curve" smooth="yes"/>
      <point x="248" y="73"/>
      <point x="234" y="76"/>
      <point x="222" y="81" type="curve"/>
      <point x="361" y="353" type="line"/>
      <point x="370" y="325"/>
      <point x="374" y="290"/>
      <point x="374" y="249" type="curve" smooth="yes"/>
      <point x="374" y="145"/>
      <point x="343" y="73"/>
    </contour>
    <contour>
      <point x="267" y="430" type="curve" smooth="yes"/>
      <point x="281" y="430"/>
      <point x="295" y="428"/>
      <point x="306" y="423" type="curve"/>
      <point x="168" y="152" type="line"/>
      <point x="158" y="186"/>
      <point x="156" y="226"/>
      <point x="156" y="266" type="curve" smooth="yes"/>
      <point x="156" y="362"/>
      <point x="188" y="430"/>
    </contour>
  </outline>
</glyph>
<glyph name="uacute" format="1">
  <advance width="591"/>
  <unicode hex="00FA"/>
  <outline>
    <contour>
      <point x="563" y="79" type="line"/>
      <point x="528" y="82" type="line" smooth="yes"/>
      <point x="509" y="84"/>
      <point x="503" y="89"/>
      <point x="503" y="111" type="curve" smooth="yes"/>
      <point x="503" y="503" type="line"/>
      <point x="327" y="503" type="line"/>
      <point x="327" y="421" type="line"/>
      <point x="359" y="419" type="line" smooth="yes"/>
      <point x="378" y="418"/>
      <point x="384" y="411"/>
      <point x="384" y="389" type="curve" smooth="yes"/>
      <point x="384" y="178" type="line" smooth="yes"/>
      <point x="384" y="126"/>
      <point x="347" y="79"/>
      <point x="277" y="79" type="curve" smooth="yes"/>
      <point x="213" y="79"/>
      <point x="203" y="125"/>
      <point x="203" y="186" type="curve" smooth="yes"/>
      <point x="203" y="503" type="line"/>
      <point x="27" y="503" type="line"/>
      <point x="27" y="421" type="line"/>
      <point x="59" y="419" type="line" smooth="yes"/>
      <point x="76" y="418"/>
      <point x="84" y="412"/>
      <point x="84" y="391" type="curve" smooth="yes"/>
      <point x="84" y="160" type="line" smooth="yes"/>
      <point x="84" y="42"/>
      <point x="139" y="-13"/>
      <point x="239" y="-13" type="curve" smooth="yes"/>
      <point x="305" y="-13"/>
      <point x="366" y="15"/>
      <point x="401" y="65" type="curve"/>
      <point x="401" y="0" type="line"/>
      <point x="563" y="0" type="line"/>
    </contour>
    <contour>
      <point x="204" y="594" type="line"/>
      <point x="243" y="561" type="line"/>
      <point x="371" y="685" type="line" smooth="yes"/>
      <point x="400" y="713"/>
      <point x="408" y="745"/>
      <point x="367" y="764" type="curve" smooth="yes"/>
      <point x="320" y="786" type="line"/>
    </contour>
  </outline>
</glyph>
<glyph name="thorn" format="1">
  <advance width="568"/>
  <unicode hex="00FE"/>
  <outline>
    <contour>
      <point x="406" y="260" type="curve" smooth="yes"/>
      <point x="406" y="162"/>
      <point x="377" y="80"/>
      <point x="292" y="80" type="curve" smooth="yes"/>
      <point x="266" y="80"/>
      <point x="230" y="88"/>
      <point x="204" y="105" type="curve"/>
      <point x="204" y="354" type="line" smooth="yes"/>
      <point x="204" y="399"/>
      <point x="248" y="429"/>
      <point x="294" y="429" type="curve" smooth="yes"/>
      <point x="387" y="429"/>
      <point x="406" y="338"/>
    </contour>
    <contour>
      <point x="529" y="276" type="curve" smooth="yes"/>
      <point x="529" y="429"/>
      <point x="448" y="518"/>
      <point x="325" y="518" type="curve" smooth="yes"/>
      <point x="278" y="518"/>
      <point x="232" y="502"/>
      <point x="204" y="476" type="curve"/>
      <point x="204" y="713" type="line"/>
      <point x="29" y="713" type="line"/>
      <point x="29" y="630" type="line"/>
      <point x="64" y="628" type="line" smooth="yes"/>
      <point x="81" y="627"/>
      <point x="89" y="621"/>
      <point x="89" y="604" type="curve" smooth="yes"/>
      <point x="89" y="-95" type="line" smooth="yes"/>
      <point x="89" y="-120"/>
      <point x="79" y="-126"/>
      <point x="60" y="-128" type="curve" smooth="yes"/>
      <point x="27" y="-131" type="line"/>
      <point x="27" y="-207" type="line"/>
      <point x="285" y="-207" type="line"/>
      <point x="285" y="-128" type="line"/>
      <point x="204" y="-124" type="line"/>
      <point x="204" y="14" type="line"/>
      <point x="230" y="-2"/>
      <point x="272" y="-15"/>
      <point x="311" y="-15" type="curve" smooth="yes"/>
      <point x="448" y="-15"/>
      <point x="529" y="92"/>
    </contour>
  </outline>
</glyph>
<glyph name="Amacron" format="1">
  <advance width="662"/>
  <unicode hex="0100"/>
  <outline>
    <contour>
      <point x="68" y="112" type="line" smooth="yes"/>
      <point x="61" y="93"/>
      <point x="55" y="86"/>
      <point x="38" y="84" type="curve" smooth="yes"/>
      <point x="5" y="81" type="line"/>
      <point x="5" y="0" type="line"/>
      <point x="236" y="0" type="line"/>
      <point x="236" y="85" type="line"/>
      <point x="176" y="88" type="line"/>
      <point x="206" y="176" type="line"/>
      <point x="440" y="176" type="line"/>
      <point x="461" y="114" type="line" smooth="yes"/>
      <point x="468" y="92"/>
      <point x="458" y="86"/>
      <point x="437" y="84" type="curve" smooth="yes"/>
      <point x="399" y="81" type="line"/>
      <point x="399" y="0" type="line"/>
      <point x="657" y="0" type="line"/>
      <point x="657" y="85" type="line"/>
      <point x="600" y="88" type="line"/>
      <point x="599" y="88" type="line"/>
      <point x="395" y="665" type="line"/>
      <point x="166" y="665" type="line"/>
      <point x="166" y="584" type="line"/>
      <point x="229" y="578" type="line"/>
    </contour>
    <contour>
      <point x="323" y="553" type="line"/>
      <point x="326" y="553" type="line"/>
      <point x="416" y="268" type="line"/>
      <point x="230" y="268" type="line"/>
    </contour>
    <contour>
      <point x="159" y="734" type="line"/>
      <point x="446" y="734" type="line"/>
      <point x="446" y="821" type="line"/>
      <point x="159" y="821" type="line"/>
    </contour>
  </outline>
</glyph>
